<?xml version="1.0" encoding="utf-8"?>
<svg width="597" height="417" viewBox="-299 -209 597 417" xmlns="http://www.w3.org/2000/svg">
  <style>
svg { background-color:#FFB763; }

#looom {
--version:2; --tempo:120; --musicTime:0; 
}

#t0 {
--visible:1; --timeOffset:0.9999998; --speed:24; --bookmarkIndex:-1; --latched:0; --playMode:0; --masked:0; --blendMode:0; --pressureEnabled:0; 
stroke:#4475FF; stroke-opacity:1; fill-opacity:0; stroke-width:10; stroke-linecap:round; stroke-linejoin:round;
}
@keyframes t0 { 0% { opacity: 1; } 4.166667% { opacity: 0; } }
#t0 .frame { animation:t0 1s calc(var(--index) * 0.04166667s) steps(1) infinite; }

#t1 {
--visible:1; --timeOffset:0.9999997; --speed:24; --bookmarkIndex:-1; --latched:0; --playMode:0; --masked:0; --blendMode:0; --pressureEnabled:0; 
stroke:#4475FF; stroke-opacity:1; fill-opacity:0; stroke-width:10; stroke-linecap:round; stroke-linejoin:round;
}
@keyframes t1 { 0% { opacity: 1; } 4.166667% { opacity: 0; } }
#t1 .frame { animation:t1 1s calc(var(--index) * 0.04166667s) steps(1) infinite; }

#t2 {
--visible:1; --timeOffset:0.9999997; --speed:24; --bookmarkIndex:-1; --latched:0; --playMode:0; --masked:0; --blendMode:0; --pressureEnabled:0; 
stroke:#4475FF; stroke-opacity:1; fill-opacity:0; stroke-width:10; stroke-linecap:round; stroke-linejoin:round;
}
@keyframes t2 { 0% { opacity: 1; } 4.166667% { opacity: 0; } }
#t2 .frame { animation:t2 1s calc(var(--index) * 0.04166667s) steps(1) infinite; }

</style>
  <g id="w0" transform="translate(104.50 69.50) scale(0.49 0.49) rotate(-331.32)" class="weave">
    <g id="t0" transform="translate(440.32 437.19)" class="thread">
      <g id="f0" style="--index:0; opacity:1;" class="frame">
        <path d="M-969.85,-184.90L-969.13,-190.61L-965.70,-199.66" />
        <path d="M-957.19,-229.29L-955.10,-234.50L-947.53,-245.21L-939.76,-262.69" />
        <path d="M-923.34,-287.61L-921.77,-291.79L-911.83,-304.52" />
        <path d="M-905.99,-311.79L-896.01,-325.50L-892.33,-331.92" />
        <path d="M-878.02,-356.84" />
        <path d="M-870.22,-380.65L-868.08,-389.21" />
        <path d="M-863.88,-400.52" />
        <path d="M-856.83,-423.97L-852.18,-439.85L-848.87,-457.90" />
        <path d="M-845.43,-489.50L-846.02,-509.79L-847.63,-524.25L-850.59,-543.76L-852.81,-552.64" />
        <path d="M-857.15,-574.75L-860.94,-590.76L-861.43,-596.18" />
        <path d="M-862.99,-605.32L-864.50,-611.14L-865.37,-621.86" />
      </g>
      <g id="f1" style="--index:1; opacity:0;" class="frame">
        <path d="M-971.23,-163.40L-970.29,-169.12" />
        <path d="M-966.94,-184.72L-966.49,-189.08" />
        <path d="M-961.18,-204.54L-960.85,-211.45" />
        <path d="M-955.78,-223.70L-955.23,-227.94L-949.54,-239.00L-944.67,-252.22L-936.14,-268.66L-923.88,-296.57" />
        <path d="M-915.29,-313.78" />
        <path d="M-907.57,-323.71L-898.38,-341.61" />
        <path d="M-883.22,-358.80L-877.84,-370.94" />
        <path d="M-871.93,-386.11L-871.23,-392.25L-868.64,-400.39" />
        <path d="M-866.03,-408.08L-865.95,-413.18L-862.79,-423.33" />
        <path d="M-858.56,-440.88L-858.89,-447.41L-858.11,-452.10" />
        <path d="M-853.13,-481.45L-850.16,-521.79L-852.12,-561.02L-855.37,-575.18" />
        <path d="M-856.51,-577.90L-857.30,-582.75L-862.26,-597.48" />
        <path d="M-865.55,-605.20L-868.08,-611.18L-868.75,-617.93" />
      </g>
      <g id="f2" style="--index:2; opacity:0;" class="frame">
        <path d="M-966.28,-182.53L-965.00,-189.92L-963.31,-194.00" />
        <path d="M-955.49,-211.17L-954.28,-215.77L-952.93,-217.51" />
        <path d="M-943.28,-240.19L-938.82,-248.76" />
        <path d="M-909.64,-304.63L-905.16,-312.84L-894.00,-338.50L-885.63,-360.01L-877.49,-388.51" />
        <path d="M-870.71,-410.51L-866.35,-427.93" />
        <path d="M-865.42,-431.31L-862.46,-449.77" />
        <path d="M-859.16,-470.60L-859.09,-475.92L-856.31,-487.05L-855.79,-492.42" />
        <path d="M-854.15,-506.05L-851.87,-522.93L-851.24,-539.07L-852.27,-561.56L-851.51,-577.46" />
        <path d="M-851.35,-590.13L-850.74,-598.17L-851.26,-610.46" />
        <path d="M-852.51,-615.28L-855.51,-633.02" />
        <path d="M-860.86,-648.96L-862.65,-656.21" />
      </g>
      <g id="f3" style="--index:3; opacity:0;" class="frame">
        <path d="M-901.35,-299.04L-899.55,-305.24" />
        <path d="M-883.97,-360.43L-881.87,-367.20" />
        <path d="M-880.61,-373.26L-871.70,-415.22L-863.31,-460.17" />
        <path d="M-856.82,-488.59L-856.11,-498.85" />
        <path d="M-854.20,-518.16L-853.20,-524.97" />
        <path d="M-851.60,-537.05L-850.37,-541.89L-849.46,-559.14" />
        <path d="M-848.80,-567.84L-848.33,-589.73" />
      </g>
      <g id="f4" style="--index:4; opacity:0;" class="frame">
        <path d="M-900.86,-313.61L-900.53,-317.96L-898.64,-324.82" />
        <path d="M-891.93,-352.69L-892.38,-361.68L-891.21,-367.60" />
        <path d="M-885.89,-394.53L-885.89,-401.30L-883.26,-415.20L-883.45,-436.73L-882.38,-466.22" />
        <path d="M-880.03,-488.22L-878.78,-494.49" />
        <path d="M-875.11,-512.12L-866.01,-538.55L-858.85,-553.68L-854.95,-566.75" />
        <path d="M-853.52,-580.48L-852.46,-585.53" />
        <path d="M-852.45,-598.85L-851.78,-603.11L-852.32,-616.30L-854.86,-629.28L-858.69,-643.52L-861.08,-649.18" />
      </g>
      <g id="f5" style="--index:5; opacity:0;" class="frame">
        <path d="M-933.46,-205.71L-930.35,-214.41" />
        <path d="M-921.76,-240.71" />
        <path d="M-914.90,-278.92L-910.44,-312.02L-909.33,-343.05" />
        <path d="M-909.31,-360.38L-908.42,-395.84L-907.50,-404.34" />
        <path d="M-907.21,-409.56L-906.76,-423.25" />
        <path d="M-904.82,-451.10L-905.13,-459.19L-904.34,-463.56" />
        <path d="M-900.80,-483.72L-900.01,-489.99L-890.82,-512.89L-881.96,-531.20" />
        <path d="M-878.42,-536.16L-873.25,-545.96" />
        <path d="M-867.32,-553.81L-864.66,-558.73" />
        <path d="M-860.85,-564.34L-853.36,-581.38" />
        <path d="M-852.79,-585.40L-851.11,-589.72L-850.00,-596.20" />
        <path d="M-848.80,-601.49L-847.45,-610.09L-848.30,-624.50" />
      </g>
      <g id="f6" style="--index:6; opacity:0;" class="frame">
        <path d="M-942.54,-172.17L-931.35,-203.92" />
        <path d="M-912.75,-271.49L-909.94,-295.28" />
        <path d="M-909.55,-307.83L-909.29,-337.95" />
        <path d="M-908.13,-359.54L-909.25,-379.36" />
        <path d="M-909.95,-397.66L-911.89,-425.66" />
        <path d="M-913.96,-442.44L-913.61,-455.67L-912.48,-461.83" />
        <path d="M-910.88,-483.01L-908.29,-489.35" />
        <path d="M-894.25,-512.93L-892.78,-518.90L-887.87,-527.13" />
        <path d="M-886.01,-530.34L-874.53,-545.13" />
        <path d="M-868.01,-554.22L-864.84,-558.03L-861.40,-564.31" />
        <path d="M-856.71,-572.66L-849.62,-591.01L-847.77,-605.32L-847.68,-614.65" />
        <path d="M-847.38,-617.20L-847.38,-626.43" />
        <path d="M-857.69,-652.34L-860.01,-656.45L-862.69,-659.30" />
      </g>
      <g id="f7" style="--index:7; opacity:0;" class="frame">
        <path d="M-973.01,-123.90L-965.92,-128.69" />
        <path d="M-943.95,-160.10L-941.12,-163.36L-935.60,-175.19" />
        <path d="M-926.35,-201.18L-926.27,-206.28L-923.28,-215.55L-921.90,-227.62L-920.34,-232.45" />
        <path d="M-915.62,-268.89L-916.15,-279.54" />
        <path d="M-916.74,-306.60L-917.78,-329.86" />
        <path d="M-920.68,-350.14L-925.32,-376.34" />
        <path d="M-925.40,-382.68L-927.29,-418.23" />
        <path d="M-925.64,-427.41L-924.31,-436.14L-919.36,-457.05" />
        <path d="M-913.63,-475.76L-904.77,-494.20" />
        <path d="M-899.03,-505.93L-897.34,-509.90L-893.06,-515.42" />
        <path d="M-888.42,-522.89L-882.27,-530.74L-872.55,-541.10L-859.08,-560.11" />
        <path d="M-849.88,-578.44L-846.46,-585.27" />
        <path d="M-843.89,-594.41L-842.94,-604.21L-843.21,-609.64" />
        <path d="M-844.41,-620.13L-848.55,-636.36" />
      </g>
      <g id="f8" style="--index:8; opacity:0;" class="frame">
        <path d="M-951.50,-149.07L-939.89,-168.08L-929.88,-199.00" />
        <path d="M-921.51,-228.96L-917.75,-251.69" />
        <path d="M-915.99,-276.43L-914.77,-305.14" />
        <path d="M-915.27,-315.11L-916.38,-337.49" />
        <path d="M-917.33,-367.41L-919.06,-386.77L-922.89,-401.12" />
        <path d="M-925.60,-413.08L-926.54,-425.14L-926.29,-433.61" />
        <path d="M-926.31,-440.71L-924.34,-463.78L-920.28,-480.32L-916.78,-490.37L-910.13,-503.58L-902.49,-515.19L-876.87,-547.44" />
        <path d="M-874.76,-549.87L-872.28,-553.33" />
        <path d="M-866.10,-562.97" />
        <path d="M-860.05,-575.37L-857.28,-582.30" />
        <path d="M-856.27,-586.55L-853.90,-594.23L-852.89,-614.39" />
        <path d="M-856.39,-639.64L-856.50,-644.41L-858.70,-650.52" />
      </g>
      <g id="f9" style="--index:9; opacity:0;" class="frame">
        <path d="M-948.52,-155.99L-939.49,-168.65L-937.58,-176.86" />
        <path d="M-932.40,-195.65L-927.95,-217.86" />
        <path d="M-924.36,-232.81L-923.39,-242.18" />
        <path d="M-920.70,-252.54L-918.37,-274.97" />
        <path d="M-918.48,-308.39L-919.39,-326.68L-920.74,-333.49L-921.58,-346.11" />
        <path d="M-928.15,-377.31L-930.78,-392.61" />
        <path d="M-934.48,-419.64L-935.75,-436.46L-931.63,-460.32L-929.56,-467.86L-922.83,-482.41" />
        <path d="M-912.89,-501.35L-906.85,-511.19L-895.51,-524.63" />
        <path d="M-883.01,-538.81" />
        <path d="M-864.72,-561.71" />
        <path d="M-859.13,-572.09L-850.10,-596.32L-849.35,-603.34L-846.92,-612.79L-847.66,-625.20L-852.76,-640.48" />
      </g>
      <g id="f10" style="--index:10; opacity:0;" class="frame">
        <path d="M-946.98,-149.73L-941.22,-161.01L-939.47,-168.31" />
        <path d="M-935.38,-181.86L-929.85,-202.67L-924.41,-235.71L-920.93,-263.97" />
        <path d="M-917.41,-309.00L-918.58,-330.72L-920.44,-338.50" />
        <path d="M-925.95,-360.21L-928.69,-370.41L-929.89,-387.55" />
        <path d="M-932.01,-419.00L-932.80,-441.61L-929.80,-452.52L-928.62,-460.13L-923.23,-474.51" />
        <path d="M-917.80,-492.54L-909.01,-510.53L-894.02,-530.38L-879.36,-552.65" />
        <path d="M-867.70,-585.98L-866.58,-590.48" />
      </g>
      <g id="f11" style="--index:11; opacity:0;" class="frame">
        <path d="M-956.79,-147.91L-954.76,-154.33" />
        <path d="M-944.36,-181.73L-942.36,-186.27L-939.60,-197.74" />
        <path d="M-938.39,-202.24L-933.94,-226.33L-929.94,-266.86L-929.11,-285.77L-929.49,-300.07" />
        <path d="M-929.01,-321.08L-930.41,-327.01L-931.35,-344.06" />
        <path d="M-933.08,-358.43L-935.19,-373.75" />
        <path d="M-935.79,-403.48L-936.71,-413.43L-936.26,-423.89L-932.31,-449.51L-928.20,-465.15L-920.90,-483.51" />
        <path d="M-918.51,-491.40L-909.75,-511.82L-898.10,-534.28L-892.85,-542.42" />
        <path d="M-876.64,-571.45L-867.67,-594.44L-866.34,-600.93L-862.73,-611.23L-860.14,-623.68" />
        <path d="M-859.05,-632.95L-858.67,-645.52" />
      </g>
      <g id="f12" style="--index:12; opacity:0;" class="frame">
        <path d="M-933.76,-236.22L-933.14,-248.36L-933.56,-261.00" />
        <path d="M-935.68,-281.45L-936.26,-292.97L-935.19,-311.34L-935.20,-329.99" />
        <path d="M-934.84,-335.56L-934.89,-352.55L-933.19,-374.17L-932.67,-399.30" />
        <path d="M-930.11,-432.31L-930.62,-442.59L-924.99,-463.32" />
        <path d="M-922.98,-474.42L-914.42,-496.38" />
        <path d="M-902.96,-520.37L-900.46,-528.40L-892.30,-540.67" />
        <path d="M-887.26,-550.49L-877.57,-570.06" />
        <path d="M-868.39,-593.06L-868.60,-597.27L-864.73,-610.79" />
        <path d="M-859.24,-628.29L-857.82,-643.90" />
      </g>
      <g id="f13" style="--index:13; opacity:0;" class="frame">
        <path d="M-943.48,-239.96L-940.01,-297.11" />
        <path d="M-937.87,-316.20L-937.60,-335.21L-935.08,-353.76L-935.02,-374.74L-932.43,-389.54L-931.33,-403.58L-928.18,-415.84L-927.59,-421.65" />
        <path d="M-923.60,-442.28L-923.03,-450.87L-921.36,-459.83L-914.07,-486.97L-902.85,-520.49" />
        <path d="M-888.26,-552.66L-881.93,-564.18L-873.88,-589.69" />
        <path d="M-863.03,-630.75" />
        <path d="M-862.15,-639.46L-860.96,-644.40L-861.30,-653.50" />
      </g>
      <g id="f14" style="--index:14; opacity:0;" class="frame">
        <path d="M-950.12,-225.97L-949.30,-236.00L-946.52,-247.03" />
        <path d="M-942.46,-263.67L-935.93,-295.65" />
        <path d="M-930.06,-320.02L-928.69,-337.21L-921.34,-369.98" />
        <path d="M-917.75,-400.26L-915.68,-428.01L-913.32,-447.47" />
        <path d="M-913.48,-461.66L-912.40,-473.71L-910.96,-480.44L-904.23,-499.22L-899.73,-515.65L-890.20,-538.34" />
        <path d="M-885.08,-553.93L-882.66,-558.60" />
        <path d="M-869.23,-587.81L-867.60,-599.88L-865.55,-609.53L-863.48,-615.29" />
      </g>
      <g id="f15" style="--index:15; opacity:0;" class="frame">
        <path d="M-970.59,-153.12L-968.85,-175.85L-966.53,-189.84L-963.49,-199.99" />
        <path d="M-953.92,-230.46L-953.14,-235.15L-947.58,-246.21L-940.21,-267.56L-935.31,-278.35L-926.84,-304.43" />
        <path d="M-916.98,-331.67L-910.10,-369.56L-904.64,-420.58" />
        <path d="M-901.62,-447.05L-902.11,-461.01L-899.95,-471.11" />
        <path d="M-894.20,-520.49L-893.98,-525.26" />
        <path d="M-892.82,-533.33L-892.34,-543.23" />
        <path d="M-887.73,-564.79L-882.59,-584.26L-877.26,-599.96L-875.69,-612.46L-870.09,-631.95" />
      </g>
      <g id="f16" style="--index:16; opacity:0;" class="frame">
        <path d="M-969.79,-172.69L-968.30,-189.31L-960.03,-226.27L-957.18,-235.84L-951.01,-248.15L-945.71,-261.95L-938.07,-273.66L-927.86,-296.16L-915.87,-318.64" />
        <path d="M-907.87,-338.36L-902.04,-357.52" />
        <path d="M-894.80,-383.86L-894.95,-395.40L-892.78,-405.18" />
        <path d="M-888.56,-418.50L-886.44,-442.92L-885.19,-448.98" />
        <path d="M-884.32,-454.23L-880.39,-497.85" />
        <path d="M-878.92,-508.25L-878.69,-528.14" />
        <path d="M-875.70,-541.61L-876.01,-563.26L-875.21,-569.85" />
        <path d="M-874.65,-571.55L-874.58,-601.31L-873.23,-610.36L-870.77,-618.70L-867.93,-637.61" />
        <path d="M-867.12,-640.98L-865.41,-648.96L-859.07,-662.15L-858.82,-666.39L-855.20,-678.34" />
      </g>
      <g id="f17" style="--index:17; opacity:0;" class="frame">
        <path d="M-973.13,-143.98L-974.34,-165.80" />
        <path d="M-971.72,-191.04L-970.93,-197.95L-966.56,-212.49" />
        <path d="M-959.71,-226.60L-954.90,-237.39L-951.20,-242.70L-943.99,-256.27" />
        <path d="M-931.77,-274.19L-925.93,-283.81L-921.91,-288.45" />
        <path d="M-907.81,-308.48L-901.16,-323.92" />
        <path d="M-885.19,-373.69L-884.11,-380.96" />
        <path d="M-878.85,-415.65L-877.30,-426.83" />
        <path d="M-874.02,-438.87L-869.45,-462.98L-866.66,-482.99L-867.23,-514.07" />
        <path d="M-869.44,-547.37L-869.70,-552.48" />
        <path d="M-869.75,-576.13L-871.13,-586.05" />
        <path d="M-871.05,-588.83L-871.48,-599.14" />
        <path d="M-858.85,-669.27" />
      </g>
      <g id="f18" style="--index:18; opacity:0;" class="frame">
        <path d="M-973.58,-150.51L-973.76,-165.17L-972.06,-175.80" />
        <path d="M-965.56,-205.99L-962.29,-220.60L-954.68,-237.19" />
        <path d="M-944.17,-259.91L-929.16,-286.77L-925.12,-292.18" />
        <path d="M-905.64,-320.58L-894.67,-343.22" />
        <path d="M-878.58,-381.58L-876.42,-387.24L-870.03,-414.75" />
        <path d="M-868.49,-426.06L-866.29,-462.14" />
        <path d="M-865.72,-483.94L-866.14,-492.24" />
        <path d="M-866.06,-528.66" />
        <path d="M-867.48,-537.37L-868.19,-542.54" />
        <path d="M-869.96,-557.67L-872.26,-579.20" />
        <path d="M-873.93,-599.89L-875.86,-609.12L-876.23,-619.09" />
      </g>
      <g id="f19" style="--index:19; opacity:0;" class="frame">
        <path d="M-972.78,-154.78L-972.76,-165.43L-971.12,-174.74" />
        <path d="M-966.77,-196.60L-964.08,-209.39" />
        <path d="M-942.92,-255.11" />
        <path d="M-924.57,-281.11L-918.21,-287.87L-913.00,-296.56L-907.03,-303.86L-901.16,-317.26L-891.26,-334.96" />
        <path d="M-883.92,-350.10L-877.29,-369.09" />
        <path d="M-869.11,-392.04L-866.95,-402.03L-863.47,-412.41L-861.04,-426.19L-859.38,-441.94L-859.02,-465.27" />
        <path d="M-857.59,-501.66L-859.63,-520.32" />
        <path d="M-862.41,-544.94L-865.75,-553.65L-867.98,-567.10" />
        <path d="M-870.68,-583.19L-872.73,-600.29" />
      </g>
      <g id="f20" style="--index:20; opacity:0;" class="frame">
        <path d="M-971.30,-153.96L-971.02,-168.53L-968.59,-184.08" />
        <path d="M-967.09,-194.49L-964.84,-211.15L-959.19,-227.08" />
        <path d="M-952.00,-243.53L-944.78,-259.22L-941.68,-263.92" />
        <path d="M-925.52,-284.84L-920.67,-292.40L-911.89,-301.29L-907.89,-307.60" />
        <path d="M-903.44,-314.48L-897.37,-324.00L-886.02,-337.10L-880.49,-346.28" />
        <path d="M-870.48,-368.08L-863.07,-384.34" />
        <path d="M-850.22,-423.08L-848.46,-438.82L-848.67,-447.13L-847.21,-469.30L-848.16,-492.69L-848.87,-495.88" />
        <path d="M-850.33,-500.69L-851.40,-510.95" />
        <path d="M-853.11,-518.42L-856.69,-536.80" />
        <path d="M-862.17,-555.39L-863.72,-559.43L-864.11,-563.07" />
        <path d="M-871.15,-588.27L-872.61,-592.97L-872.87,-598.28L-872.76,-607.06L-871.75,-613.66" />
      </g>
      <g id="f21" style="--index:21; opacity:0;" class="frame">
        <path d="M-976.96,-160.68L-977.25,-173.21L-976.06,-180.04" />
        <path d="M-970.78,-208.29L-968.61,-218.17L-966.55,-223.38L-959.84,-235.92L-954.88,-242.96" />
        <path d="M-902.94,-306.29L-898.70,-310.73L-883.57,-332.12" />
        <path d="M-877.63,-342.41L-873.66,-347.28L-870.81,-352.63" />
        <path d="M-864.26,-363.40L-860.66,-371.59" />
        <path d="M-854.35,-385.33L-852.16,-392.78" />
        <path d="M-848.56,-405.28L-846.60,-410.71L-844.31,-429.14L-844.14,-445.93L-845.57,-481.27" />
        <path d="M-851.94,-512.72L-852.98,-522.55" />
        <path d="M-875.19,-598.16L-874.96,-613.71L-870.09,-640.41" />
      </g>
      <g id="f22" style="--index:22; opacity:0;" class="frame">
        <path d="M-957.36,-219.85L-957.03,-224.20L-954.91,-230.85L-948.90,-241.47L-939.51,-262.60L-929.83,-277.51" />
        <path d="M-907.08,-307.19L-903.59,-310.80L-898.08,-320.40L-893.40,-324.63" />
        <path d="M-882.48,-337.17L-875.83,-348.61L-866.86,-369.06" />
        <path d="M-865.36,-372.57L-861.59,-381.53" />
        <path d="M-853.26,-405.70" />
        <path d="M-849.62,-430.76L-846.79,-458.56L-847.25,-474.42" />
        <path d="M-850.07,-488.71L-850.08,-499.92L-852.31,-507.26L-854.11,-518.82" />
        <path d="M-860.28,-539.60L-863.87,-547.22L-867.22,-565.36L-870.24,-574.44L-875.41,-602.59L-876.12,-619.23" />
        <path d="M-874.44,-627.74L-870.66,-651.93L-867.64,-660.51" />
      </g>
      <g id="f23" style="--index:23; opacity:0;" class="frame">
        <path d="M-960.54,-207.69L-956.95,-222.75L-946.05,-244.38" />
        <path d="M-937.05,-262.27L-931.57,-272.54" />
        <path d="M-905.76,-316.37L-898.41,-324.51L-892.09,-333.81L-881.17,-346.57L-866.47,-372.30L-862.01,-383.28L-853.14,-415.04L-851.93,-423.77" />
        <path d="M-850.34,-438.38L-849.95,-448.41" />
        <path d="M-850.00,-467.62L-850.16,-472.82L-851.68,-478.64" />
        <path d="M-855.02,-512.56" />
        <path d="M-863.00,-561.03L-864.67,-565.71L-866.11,-581.07L-866.95,-604.57" />
      </g>
    </g>
    <g id="t1" transform="translate(503.28 438.24) scale(0.99 0.99) rotate(-0.96)" class="thread">
      <g id="f0" transform="translate(-26.60 -20.48)" style="--index:0; opacity:1;" class="frame">
        <path d="M-971.32,-121.32L-972.72,-144.45L-969.97,-160.92" />
        <path d="M-966.28,-182.53L-965.00,-189.92L-963.31,-194.00" />
        <path d="M-955.49,-211.17L-954.28,-215.77L-952.93,-217.51" />
        <path d="M-943.28,-240.19L-938.82,-248.76" />
        <path d="M-909.64,-304.63L-905.16,-312.84L-894.00,-338.50L-885.63,-360.01L-877.49,-388.51" />
        <path d="M-870.71,-410.51L-866.35,-427.93" />
        <path d="M-865.42,-431.31L-862.46,-449.77" />
        <path d="M-859.16,-470.60L-859.09,-475.92L-856.31,-487.05L-855.79,-492.42" />
        <path d="M-854.15,-506.05L-851.87,-522.93L-851.24,-539.07L-852.27,-561.56L-851.51,-577.46" />
        <path d="M-851.35,-590.13L-850.74,-598.17L-851.26,-610.46" />
        <path d="M-852.51,-615.28L-855.51,-633.02" />
        <path d="M-860.86,-648.96L-862.65,-656.21" />
        <path d="M-864.30,-664.67L-867.30,-686.85" />
      </g>
      <g id="f1" transform="translate(-26.60 -20.48)" style="--index:1; opacity:0;" class="frame">
        <path d="M-973.89,-118.86L-970.10,-139.03L-963.11,-158.81L-958.66,-167.59L-956.96,-175.78L-945.37,-197.67L-935.27,-221.82L-921.96,-244.82L-919.77,-251.80L-909.94,-273.30L-903.31,-293.50" />
        <path d="M-901.35,-299.04L-899.55,-305.24" />
        <path d="M-883.97,-360.43L-881.87,-367.20" />
        <path d="M-880.61,-373.26L-871.70,-415.22L-863.31,-460.17" />
        <path d="M-856.82,-488.59L-856.11,-498.85" />
        <path d="M-854.20,-518.16L-853.20,-524.97" />
        <path d="M-851.60,-537.05L-850.37,-541.89L-849.46,-559.14" />
        <path d="M-848.80,-567.84L-848.33,-589.73" />
        <path d="M-850.38,-610.63L-852.81,-626.15L-855.07,-631.04L-857.38,-641.81L-862.52,-655.88L-868.58,-663.45L-877.91,-683.75" />
      </g>
      <g id="f2" transform="translate(-26.60 -20.48)" style="--index:2; opacity:0;" class="frame">
        <path d="M-969.12,-126.08L-967.35,-139.72" />
        <path d="M-964.23,-148.20L-961.98,-156.32L-958.15,-164.18" />
        <path d="M-953.60,-175.27L-949.57,-185.59L-941.37,-197.65L-912.61,-264.39L-907.75,-278.51L-903.16,-297.29" />
        <path d="M-900.86,-313.61L-900.53,-317.96L-898.64,-324.82" />
        <path d="M-891.93,-352.69L-892.38,-361.68L-891.21,-367.60" />
        <path d="M-885.89,-394.53L-885.89,-401.30L-883.26,-415.20L-883.45,-436.73L-882.38,-466.22" />
        <path d="M-880.03,-488.22L-878.78,-494.49" />
        <path d="M-875.11,-512.12L-866.01,-538.55L-858.85,-553.68L-854.95,-566.75" />
        <path d="M-853.52,-580.48L-852.46,-585.53" />
        <path d="M-852.45,-598.85L-851.78,-603.11L-852.32,-616.30L-854.86,-629.28L-858.69,-643.52L-861.08,-649.18" />
        <path d="M-870.81,-666.01L-873.78,-672.07L-876.42,-674.18L-881.53,-682.91L-884.94,-686.29" />
      </g>
      <g id="f3" transform="translate(-26.60 -20.48)" style="--index:3; opacity:0;" class="frame">
        <path d="M-974.06,-124.62L-970.27,-126.58L-969.22,-128.19" />
        <path d="M-956.87,-147.67L-954.71,-155.13L-946.84,-168.95L-943.81,-179.22L-940.23,-187.72" />
        <path d="M-933.46,-205.71L-930.35,-214.41" />
        <path d="M-921.76,-240.71" />
        <path d="M-914.90,-278.92L-910.44,-312.02L-909.33,-343.05" />
        <path d="M-909.31,-360.38L-908.42,-395.84L-907.50,-404.34" />
        <path d="M-907.21,-409.56L-906.76,-423.25" />
        <path d="M-904.82,-451.10L-905.13,-459.19L-904.34,-463.56" />
        <path d="M-900.80,-483.72L-900.01,-489.99L-890.82,-512.89L-881.96,-531.20" />
        <path d="M-878.42,-536.16L-873.25,-545.96" />
        <path d="M-867.32,-553.81L-864.66,-558.73" />
        <path d="M-860.85,-564.34L-853.36,-581.38" />
        <path d="M-852.79,-585.40L-851.11,-589.72L-850.00,-596.20" />
        <path d="M-848.80,-601.49L-847.45,-610.09L-848.30,-624.50" />
        <path d="M-850.56,-636.81L-852.51,-642.27L-857.03,-650.71L-867.32,-665.18L-868.94,-666.34" />
        <path d="M-870.87,-667.11L-877.50,-671.46L-880.87,-672.06L-885.50,-675.50L-890.20,-676.03L-893.32,-678.54L-895.89,-679.08" />
      </g>
      <g id="f4" transform="translate(-26.60 -20.48)" style="--index:4; opacity:0;" class="frame">
        <path d="M-967.81,-126.14L-963.74,-131.58" />
        <path d="M-960.38,-137.74L-957.94,-144.53L-953.04,-151.22L-949.81,-157.48" />
        <path d="M-942.54,-172.17L-931.35,-203.92" />
        <path d="M-912.75,-271.49L-909.94,-295.28" />
        <path d="M-909.55,-307.83L-909.29,-337.95" />
        <path d="M-908.13,-359.54L-909.25,-379.36" />
        <path d="M-909.95,-397.66L-911.89,-425.66" />
        <path d="M-913.96,-442.44L-913.61,-455.67L-912.48,-461.83" />
        <path d="M-910.88,-483.01L-908.29,-489.35" />
        <path d="M-894.25,-512.93L-892.78,-518.90L-887.87,-527.13" />
        <path d="M-886.01,-530.34L-874.53,-545.13" />
        <path d="M-868.01,-554.22L-864.84,-558.03L-861.40,-564.31" />
        <path d="M-856.71,-572.66L-849.62,-591.01L-847.77,-605.32L-847.68,-614.65" />
        <path d="M-847.38,-617.20L-847.38,-626.43" />
        <path d="M-857.69,-652.34L-860.01,-656.45L-862.69,-659.30" />
        <path d="M-871.92,-670.39L-876.30,-671.84L-877.97,-673.97L-882.80,-677.19L-888.01,-683.46L-892.00,-685.61L-894.66,-685.69" />
      </g>
      <g id="f5" transform="translate(-26.60 -20.48)" style="--index:5; opacity:0;" class="frame">
        <path d="M-973.01,-123.90L-965.92,-128.69" />
        <path d="M-956.23,-143.50L-953.30,-147.19L-949.43,-149.84L-948.01,-152.69" />
        <path d="M-943.95,-160.10L-941.12,-163.36L-935.60,-175.19" />
        <path d="M-926.35,-201.18L-926.27,-206.28L-923.28,-215.55L-921.90,-227.62L-920.34,-232.45" />
        <path d="M-915.62,-268.89L-916.15,-279.54" />
        <path d="M-916.74,-306.60L-917.78,-329.86" />
        <path d="M-920.68,-350.14L-925.32,-376.34" />
        <path d="M-925.40,-382.68L-927.29,-418.23" />
        <path d="M-925.64,-427.41L-924.31,-436.14L-919.36,-457.05" />
        <path d="M-913.63,-475.76L-904.77,-494.20" />
        <path d="M-899.03,-505.93L-897.34,-509.90L-893.06,-515.42" />
        <path d="M-888.42,-522.89L-882.27,-530.74L-872.55,-541.10L-859.08,-560.11" />
        <path d="M-849.88,-578.44L-846.46,-585.27" />
        <path d="M-843.89,-594.41L-842.94,-604.21L-843.21,-609.64" />
        <path d="M-844.41,-620.13L-848.55,-636.36" />
        <path d="M-853.76,-649.42L-857.04,-655.25L-860.38,-657.20L-863.64,-662.48" />
        <path d="M-865.55,-665.27L-868.57,-668.23L-872.46,-670.15L-878.02,-674.98L-880.51,-675.96" />
        <path d="M-887.61,-677.93L-896.01,-679.07L-900.09,-678.87" />
      </g>
      <g id="f6" transform="translate(-26.60 -20.48)" style="--index:6; opacity:0;" class="frame">
        <path d="M-967.97,-129.47L-963.19,-134.04" />
        <path d="M-951.50,-149.07L-939.89,-168.08L-929.88,-199.00" />
        <path d="M-921.51,-228.96L-917.75,-251.69" />
        <path d="M-915.99,-276.43L-914.77,-305.14" />
        <path d="M-915.27,-315.11L-916.38,-337.49" />
        <path d="M-917.33,-367.41L-919.06,-386.77L-922.89,-401.12" />
        <path d="M-925.60,-413.08L-926.54,-425.14L-926.29,-433.61" />
        <path d="M-926.31,-440.71L-924.34,-463.78L-920.28,-480.32L-916.78,-490.37L-910.13,-503.58L-902.49,-515.19L-876.87,-547.44" />
        <path d="M-874.76,-549.87L-872.28,-553.33" />
        <path d="M-866.10,-562.97" />
        <path d="M-860.05,-575.37L-857.28,-582.30" />
        <path d="M-856.27,-586.55L-853.90,-594.23L-852.89,-614.39" />
        <path d="M-856.39,-639.64L-856.50,-644.41L-858.70,-650.52" />
        <path d="M-862.86,-657.87L-865.92,-661.70L-869.35,-663.54L-873.59,-668.43" />
        <path d="M-881.59,-673.13L-894.43,-678.70" />
      </g>
      <g id="f7" transform="translate(-26.60 -20.48)" style="--index:7; opacity:0;" class="frame">
        <path d="M-973.52,-123.08L-970.24,-126.02L-962.74,-136.07" />
        <path d="M-948.52,-155.99L-939.49,-168.65L-937.58,-176.86" />
        <path d="M-932.40,-195.65L-927.95,-217.86" />
        <path d="M-924.36,-232.81L-923.39,-242.18" />
        <path d="M-920.70,-252.54L-918.37,-274.97" />
        <path d="M-918.48,-308.39L-919.39,-326.68L-920.74,-333.49L-921.58,-346.11" />
        <path d="M-928.15,-377.31L-930.78,-392.61" />
        <path d="M-934.48,-419.64L-935.75,-436.46L-931.63,-460.32L-929.56,-467.86L-922.83,-482.41" />
        <path d="M-912.89,-501.35L-906.85,-511.19L-895.51,-524.63" />
        <path d="M-883.01,-538.81" />
        <path d="M-864.72,-561.71" />
        <path d="M-859.13,-572.09L-850.10,-596.32L-849.35,-603.34L-846.92,-612.79L-847.66,-625.20L-852.76,-640.48" />
        <path d="M-857.36,-650.48L-859.34,-654.71L-863.05,-659.84L-867.19,-662.64" />
        <path d="M-881.04,-677.28L-893.95,-682.61L-899.88,-683.21" />
      </g>
      <g id="f8" transform="translate(-26.60 -20.48)" style="--index:8; opacity:0;" class="frame">
        <path d="M-968.95,-127.09L-964.41,-127.32L-958.29,-133.96" />
        <path d="M-946.98,-149.73L-941.22,-161.01L-939.47,-168.31" />
        <path d="M-935.38,-181.86L-929.85,-202.67L-924.41,-235.71L-920.93,-263.97" />
        <path d="M-917.41,-309.00L-918.58,-330.72L-920.44,-338.50" />
        <path d="M-925.95,-360.21L-928.69,-370.41L-929.89,-387.55" />
        <path d="M-932.01,-419.00L-932.80,-441.61L-929.80,-452.52L-928.62,-460.13L-923.23,-474.51" />
        <path d="M-917.80,-492.54L-909.01,-510.53L-894.02,-530.38L-879.36,-552.65" />
        <path d="M-867.70,-585.98L-866.58,-590.48" />
        <path d="M-860.94,-606.54L-858.02,-623.33L-859.70,-646.03L-864.65,-658.20L-871.46,-666.08L-878.30,-678.29" />
      </g>
      <g id="f9" transform="translate(-26.60 -20.48)" style="--index:9; opacity:0;" class="frame">
        <path d="M-972.83,-124.57L-967.20,-127.52" />
        <path d="M-956.79,-147.91L-954.76,-154.33" />
        <path d="M-944.36,-181.73L-942.36,-186.27L-939.60,-197.74" />
        <path d="M-938.39,-202.24L-933.94,-226.33L-929.94,-266.86L-929.11,-285.77L-929.49,-300.07" />
        <path d="M-929.01,-321.08L-930.41,-327.01L-931.35,-344.06" />
        <path d="M-933.08,-358.43L-935.19,-373.75" />
        <path d="M-935.79,-403.48L-936.71,-413.43L-936.26,-423.89L-932.31,-449.51L-928.20,-465.15L-920.90,-483.51" />
        <path d="M-918.51,-491.40L-909.75,-511.82L-898.10,-534.28L-892.85,-542.42" />
        <path d="M-876.64,-571.45L-867.67,-594.44L-866.34,-600.93L-862.73,-611.23L-860.14,-623.68" />
        <path d="M-859.05,-632.95L-858.67,-645.52" />
        <path d="M-868.22,-667.80L-871.08,-671.33L-873.10,-676.33L-876.78,-681.48" />
      </g>
      <g id="f10" transform="translate(-26.60 -20.48)" style="--index:10; opacity:0;" class="frame">
        <path d="M-972.35,-119.26L-963.63,-129.47" />
        <path d="M-955.68,-145.86L-955.44,-152.08L-947.46,-167.81L-945.56,-178.79L-939.25,-203.65" />
        <path d="M-933.76,-236.22L-933.14,-248.36L-933.56,-261.00" />
        <path d="M-935.68,-281.45L-936.26,-292.97L-935.19,-311.34L-935.20,-329.99" />
        <path d="M-934.84,-335.56L-934.89,-352.55L-933.19,-374.17L-932.67,-399.30" />
        <path d="M-930.11,-432.31L-930.62,-442.59L-924.99,-463.32" />
        <path d="M-922.98,-474.42L-914.42,-496.38" />
        <path d="M-902.96,-520.37L-900.46,-528.40L-892.30,-540.67" />
        <path d="M-887.26,-550.49L-877.57,-570.06" />
        <path d="M-868.39,-593.06L-868.60,-597.27L-864.73,-610.79" />
        <path d="M-859.24,-628.29L-857.82,-643.90" />
        <path d="M-858.15,-652.87L-860.36,-670.20L-862.82,-672.96L-868.19,-685.03" />
      </g>
      <g id="f11" transform="translate(-26.60 -20.48)" style="--index:11; opacity:0;" class="frame">
        <path d="M-974.13,-121.84L-970.72,-126.90L-966.32,-138.66" />
        <path d="M-965.13,-141.71L-962.13,-159.41L-957.93,-173.07L-953.18,-193.63" />
        <path d="M-943.48,-239.96L-940.01,-297.11" />
        <path d="M-937.87,-316.20L-937.60,-335.21L-935.08,-353.76L-935.02,-374.74L-932.43,-389.54L-931.33,-403.58L-928.18,-415.84L-927.59,-421.65" />
        <path d="M-923.60,-442.28L-923.03,-450.87L-921.36,-459.83L-914.07,-486.97L-902.85,-520.49" />
        <path d="M-888.26,-552.66L-881.93,-564.18L-873.88,-589.69" />
        <path d="M-863.03,-630.75" />
        <path d="M-862.15,-639.46L-860.96,-644.40L-861.30,-653.50" />
        <path d="M-860.82,-657.41L-860.94,-668.40L-862.52,-671.31L-863.14,-675.16" />
        <path d="M-863.83,-677.35L-866.90,-683.64L-869.42,-686.95" />
      </g>
      <g id="f12" transform="translate(-26.60 -20.48)" style="--index:12; opacity:0;" class="frame">
        <path d="M-973.53,-120.76L-970.45,-128.23L-968.27,-139.78" />
        <path d="M-967.18,-149.17L-966.65,-156.19L-960.88,-176.57L-955.52,-202.71" />
        <path d="M-950.12,-225.97L-949.30,-236.00L-946.52,-247.03" />
        <path d="M-942.46,-263.67L-935.93,-295.65" />
        <path d="M-930.06,-320.02L-928.69,-337.21L-921.34,-369.98" />
        <path d="M-917.75,-400.26L-915.68,-428.01L-913.32,-447.47" />
        <path d="M-913.48,-461.66L-912.40,-473.71L-910.96,-480.44L-904.23,-499.22L-899.73,-515.65L-890.20,-538.34" />
        <path d="M-885.08,-553.93L-882.66,-558.60" />
        <path d="M-869.23,-587.81L-867.60,-599.88L-865.55,-609.53L-863.48,-615.29" />
        <path d="M-861.41,-644.72L-860.24,-656.89L-860.66,-667.73L-863.75,-673.92L-865.96,-675.92" />
      </g>
      <g id="f13" transform="translate(-26.60 -20.48)" style="--index:13; opacity:0;" class="frame">
        <path d="M-973.26,-123.89L-972.20,-138.93" />
        <path d="M-970.59,-153.12L-968.85,-175.85L-966.53,-189.84L-963.49,-199.99" />
        <path d="M-953.92,-230.46L-953.14,-235.15L-947.58,-246.21L-940.21,-267.56L-935.31,-278.35L-926.84,-304.43" />
        <path d="M-916.98,-331.67L-910.10,-369.56L-904.64,-420.58" />
        <path d="M-901.62,-447.05L-902.11,-461.01L-899.95,-471.11" />
        <path d="M-894.20,-520.49L-893.98,-525.26" />
        <path d="M-892.82,-533.33L-892.34,-543.23" />
        <path d="M-887.73,-564.79L-882.59,-584.26L-877.26,-599.96L-875.69,-612.46L-870.09,-631.95" />
        <path d="M-866.37,-641.91L-864.45,-649.89L-861.55,-656.14L-860.23,-667.54L-860.45,-672.07" />
      </g>
      <g id="f14" transform="translate(-26.60 -20.48)" style="--index:14; opacity:0;" class="frame">
        <path d="M-969.03,-121.88L-970.57,-150.21" />
        <path d="M-969.79,-172.69L-968.30,-189.31L-960.03,-226.27L-957.18,-235.84L-951.01,-248.15L-945.71,-261.95L-938.07,-273.66L-927.86,-296.16L-915.87,-318.64" />
        <path d="M-907.87,-338.36L-902.04,-357.52" />
        <path d="M-894.80,-383.86L-894.95,-395.40L-892.78,-405.18" />
        <path d="M-888.56,-418.50L-886.44,-442.92L-885.19,-448.98" />
        <path d="M-884.32,-454.23L-880.39,-497.85" />
        <path d="M-878.92,-508.25L-878.69,-528.14" />
        <path d="M-875.70,-541.61L-876.01,-563.26L-875.21,-569.85" />
        <path d="M-874.65,-571.55L-874.58,-601.31L-873.23,-610.36L-870.77,-618.70L-867.93,-637.61" />
        <path d="M-867.12,-640.98L-865.41,-648.96L-859.07,-662.15L-858.82,-666.39L-855.20,-678.34" />
      </g>
      <g id="f15" transform="translate(-26.60 -20.48)" style="--index:15; opacity:0;" class="frame">
        <path d="M-969.75,-120.95L-971.02,-132.99" />
        <path d="M-973.13,-143.98L-974.34,-165.80" />
        <path d="M-971.72,-191.04L-970.93,-197.95L-966.56,-212.49" />
        <path d="M-959.71,-226.60L-954.90,-237.39L-951.20,-242.70L-943.99,-256.27" />
        <path d="M-931.77,-274.19L-925.93,-283.81L-921.91,-288.45" />
        <path d="M-907.81,-308.48L-901.16,-323.92" />
        <path d="M-885.19,-373.69L-884.11,-380.96" />
        <path d="M-878.85,-415.65L-877.30,-426.83" />
        <path d="M-874.02,-438.87L-869.45,-462.98L-866.66,-482.99L-867.23,-514.07" />
        <path d="M-869.44,-547.37L-869.70,-552.48" />
        <path d="M-869.75,-576.13L-871.13,-586.05" />
        <path d="M-871.05,-588.83L-871.48,-599.14" />
        <path d="M-870.28,-629.06L-868.13,-641.72L-865.16,-650.64L-861.80,-656.81" />
        <path d="M-858.85,-669.27" />
        <path d="M-856.25,-674.74L-852.20,-680.60" />
      </g>
      <g id="f16" transform="translate(-26.60 -20.48)" style="--index:16; opacity:0;" class="frame">
        <path d="M-970.02,-117.15L-971.51,-131.74" />
        <path d="M-973.58,-150.51L-973.76,-165.17L-972.06,-175.80" />
        <path d="M-965.56,-205.99L-962.29,-220.60L-954.68,-237.19" />
        <path d="M-944.17,-259.91L-929.16,-286.77L-925.12,-292.18" />
        <path d="M-905.64,-320.58L-894.67,-343.22" />
        <path d="M-878.58,-381.58L-876.42,-387.24L-870.03,-414.75" />
        <path d="M-868.49,-426.06L-866.29,-462.14" />
        <path d="M-865.72,-483.94L-866.14,-492.24" />
        <path d="M-866.06,-528.66" />
        <path d="M-867.48,-537.37L-868.19,-542.54" />
        <path d="M-869.96,-557.67L-872.26,-579.20" />
        <path d="M-873.93,-599.89L-875.86,-609.12L-876.23,-619.09" />
        <path d="M-874.29,-635.86L-874.21,-645.30L-869.92,-659.73L-864.66,-670.09L-862.00,-678.55L-857.00,-687.36" />
      </g>
      <g id="f17" transform="translate(-26.60 -20.48)" style="--index:17; opacity:0;" class="frame">
        <path d="M-972.62,-113.69L-972.92,-126.34" />
        <path d="M-972.78,-154.78L-972.76,-165.43L-971.12,-174.74" />
        <path d="M-966.77,-196.60L-964.08,-209.39" />
        <path d="M-942.92,-255.11" />
        <path d="M-924.57,-281.11L-918.21,-287.87L-913.00,-296.56L-907.03,-303.86L-901.16,-317.26L-891.26,-334.96" />
        <path d="M-883.92,-350.10L-877.29,-369.09" />
        <path d="M-869.11,-392.04L-866.95,-402.03L-863.47,-412.41L-861.04,-426.19L-859.38,-441.94L-859.02,-465.27" />
        <path d="M-857.59,-501.66L-859.63,-520.32" />
        <path d="M-862.41,-544.94L-865.75,-553.65L-867.98,-567.10" />
        <path d="M-870.68,-583.19L-872.73,-600.29" />
        <path d="M-874.34,-625.85L-875.15,-639.70L-872.60,-648.48L-871.34,-652.00L-865.58,-661.49L-859.82,-677.10L-854.85,-680.36" />
      </g>
      <g id="f18" transform="translate(-26.60 -20.48)" style="--index:18; opacity:0;" class="frame">
        <path d="M-968.38,-117.47L-969.80,-134.93" />
        <path d="M-971.30,-153.96L-971.02,-168.53L-968.59,-184.08" />
        <path d="M-967.09,-194.49L-964.84,-211.15L-959.19,-227.08" />
        <path d="M-952.00,-243.53L-944.78,-259.22L-941.68,-263.92" />
        <path d="M-925.52,-284.84L-920.67,-292.40L-911.89,-301.29L-907.89,-307.60" />
        <path d="M-903.44,-314.48L-897.37,-324.00L-886.02,-337.10L-880.49,-346.28" />
        <path d="M-870.48,-368.08L-863.07,-384.34" />
        <path d="M-850.22,-423.08L-848.46,-438.82L-848.67,-447.13L-847.21,-469.30L-848.16,-492.69L-848.87,-495.88" />
        <path d="M-850.33,-500.69L-851.40,-510.95" />
        <path d="M-853.11,-518.42L-856.69,-536.80" />
        <path d="M-862.17,-555.39L-863.72,-559.43L-864.11,-563.07" />
        <path d="M-871.15,-588.27L-872.61,-592.97L-872.87,-598.28L-872.76,-607.06L-871.75,-613.66" />
        <path d="M-868.34,-632.38L-867.77,-640.63L-861.78,-658.79L-860.55,-665.52L-856.11,-676.41L-850.87,-685.21" />
      </g>
      <g id="f19" transform="translate(-26.60 -20.48)" style="--index:19; opacity:0;" class="frame">
        <path d="M-970.06,-113.72L-973.36,-132.66" />
        <path d="M-976.96,-160.68L-977.25,-173.21L-976.06,-180.04" />
        <path d="M-970.78,-208.29L-968.61,-218.17L-966.55,-223.38L-959.84,-235.92L-954.88,-242.96" />
        <path d="M-902.94,-306.29L-898.70,-310.73L-883.57,-332.12" />
        <path d="M-877.63,-342.41L-873.66,-347.28L-870.81,-352.63" />
        <path d="M-864.26,-363.40L-860.66,-371.59" />
        <path d="M-854.35,-385.33L-852.16,-392.78" />
        <path d="M-848.56,-405.28L-846.60,-410.71L-844.31,-429.14L-844.14,-445.93L-845.57,-481.27" />
        <path d="M-851.94,-512.72L-852.98,-522.55" />
        <path d="M-875.19,-598.16L-874.96,-613.71L-870.09,-640.41" />
        <path d="M-860.73,-662.41L-856.21,-676.51L-852.57,-681.35" />
      </g>
      <g id="f20" transform="translate(-26.60 -20.48)" style="--index:20; opacity:0;" class="frame">
        <path d="M-968.65,-121.00L-970.36,-135.13" />
        <path d="M-972.15,-146.48L-970.56,-170.22L-968.02,-183.66L-964.09,-198.53" />
        <path d="M-957.36,-219.85L-957.03,-224.20L-954.91,-230.85L-948.90,-241.47L-939.51,-262.60L-929.83,-277.51" />
        <path d="M-907.08,-307.19L-903.59,-310.80L-898.08,-320.40L-893.40,-324.63" />
        <path d="M-882.48,-337.17L-875.83,-348.61L-866.86,-369.06" />
        <path d="M-865.36,-372.57L-861.59,-381.53" />
        <path d="M-853.26,-405.70" />
        <path d="M-849.62,-430.76L-846.79,-458.56L-847.25,-474.42" />
        <path d="M-850.07,-488.71L-850.08,-499.92L-852.31,-507.26L-854.11,-518.82" />
        <path d="M-860.28,-539.60L-863.87,-547.22L-867.22,-565.36L-870.24,-574.44L-875.41,-602.59L-876.12,-619.23" />
        <path d="M-874.44,-627.74L-870.66,-651.93L-867.64,-660.51" />
        <path d="M-859.24,-683.36L-855.17,-688.67" />
      </g>
      <g id="f21" transform="translate(-26.60 -20.48)" style="--index:21; opacity:0;" class="frame">
        <path d="M-971.20,-123.20L-971.74,-140.72" />
        <path d="M-970.81,-150.88L-967.62,-178.03" />
        <path d="M-960.54,-207.69L-956.95,-222.75L-946.05,-244.38" />
        <path d="M-937.05,-262.27L-931.57,-272.54" />
        <path d="M-905.76,-316.37L-898.41,-324.51L-892.09,-333.81L-881.17,-346.57L-866.47,-372.30L-862.01,-383.28L-853.14,-415.04L-851.93,-423.77" />
        <path d="M-850.34,-438.38L-849.95,-448.41" />
        <path d="M-850.00,-467.62L-850.16,-472.82L-851.68,-478.64" />
        <path d="M-855.02,-512.56" />
        <path d="M-863.00,-561.03L-864.67,-565.71L-866.11,-581.07L-866.95,-604.57" />
        <path d="M-865.20,-629.53L-865.82,-641.94L-863.99,-649.91L-864.14,-657.25L-860.04,-670.54L-855.92,-677.42L-854.36,-681.60" />
      </g>
      <g id="f22" transform="translate(-26.60 -20.48)" style="--index:22; opacity:0;" class="frame">
        <path d="M-970.77,-125.57L-971.69,-139.72" />
        <path d="M-973.63,-155.85L-972.27,-164.69" />
        <path d="M-969.85,-184.90L-969.13,-190.61L-965.70,-199.66" />
        <path d="M-957.19,-229.29L-955.10,-234.50L-947.53,-245.21L-939.76,-262.69" />
        <path d="M-923.34,-287.61L-921.77,-291.79L-911.83,-304.52" />
        <path d="M-905.99,-311.79L-896.01,-325.50L-892.33,-331.92" />
        <path d="M-878.02,-356.84" />
        <path d="M-870.22,-380.65L-868.08,-389.21" />
        <path d="M-863.88,-400.52" />
        <path d="M-856.83,-423.97L-852.18,-439.85L-848.87,-457.90" />
        <path d="M-845.43,-489.50L-846.02,-509.79L-847.63,-524.25L-850.59,-543.76L-852.81,-552.64" />
        <path d="M-857.15,-574.75L-860.94,-590.76L-861.43,-596.18" />
        <path d="M-862.99,-605.32L-864.50,-611.14L-865.37,-621.86" />
        <path d="M-864.99,-636.33L-865.94,-652.82L-862.01,-676.89" />
      </g>
      <g id="f23" transform="translate(-26.60 -20.48)" style="--index:23; opacity:0;" class="frame">
        <path d="M-972.18,-122.60L-972.73,-149.44" />
        <path d="M-971.23,-163.40L-970.29,-169.12" />
        <path d="M-966.94,-184.72L-966.49,-189.08" />
        <path d="M-961.18,-204.54L-960.85,-211.45" />
        <path d="M-955.78,-223.70L-955.23,-227.94L-949.54,-239.00L-944.67,-252.22L-936.14,-268.66L-923.88,-296.57" />
        <path d="M-915.29,-313.78" />
        <path d="M-907.57,-323.71L-898.38,-341.61" />
        <path d="M-883.22,-358.80L-877.84,-370.94" />
        <path d="M-871.93,-386.11L-871.23,-392.25L-868.64,-400.39" />
        <path d="M-866.03,-408.08L-865.95,-413.18L-862.79,-423.33" />
        <path d="M-858.56,-440.88L-858.89,-447.41L-858.11,-452.10" />
        <path d="M-853.13,-481.45L-850.16,-521.79L-852.12,-561.02L-855.37,-575.18" />
        <path d="M-856.51,-577.90L-857.30,-582.75L-862.26,-597.48" />
        <path d="M-865.55,-605.20L-868.08,-611.18L-868.75,-617.93" />
        <path d="M-868.75,-629.59L-870.31,-638.15L-870.67,-658.80L-870.07,-664.49L-866.39,-673.44" />
        <path d="M-863.46,-681.59" />
      </g>
    </g>
    <g id="t2" transform="translate(493.47 451.73) scale(0.99 0.99) rotate(-0.79)" class="thread">
      <g id="f0" transform="translate(25.10 -23.47)" style="--index:0; opacity:1;" class="frame">
        <path d="M-964.23,-148.20L-961.98,-156.32L-958.15,-164.18" />
        <path d="M-953.60,-175.27L-949.57,-185.59L-941.37,-197.65L-912.61,-264.39L-907.75,-278.51L-903.16,-297.29" />
        <path d="M-900.86,-313.61L-900.53,-317.96L-898.64,-324.82" />
        <path d="M-891.93,-352.69L-892.38,-361.68L-891.21,-367.60" />
        <path d="M-885.89,-394.53L-885.89,-401.30L-883.26,-415.20L-883.45,-436.73L-882.38,-466.22" />
        <path d="M-880.03,-488.22L-878.78,-494.49" />
        <path d="M-875.11,-512.12L-866.01,-538.55L-858.85,-553.68L-854.95,-566.75" />
        <path d="M-853.52,-580.48L-852.46,-585.53" />
        <path d="M-852.45,-598.85L-851.78,-603.11L-852.32,-616.30L-854.86,-629.28L-858.69,-643.52L-861.08,-649.18" />
      </g>
      <g id="f1" transform="translate(25.10 -23.47)" style="--index:1; opacity:0;" class="frame">
        <path d="M-956.87,-147.67L-954.71,-155.13L-946.84,-168.95L-943.81,-179.22L-940.23,-187.72" />
        <path d="M-933.46,-205.71L-930.35,-214.41" />
        <path d="M-921.76,-240.71" />
        <path d="M-914.90,-278.92L-910.44,-312.02L-909.33,-343.05" />
        <path d="M-909.31,-360.38L-908.42,-395.84L-907.50,-404.34" />
        <path d="M-907.21,-409.56L-906.76,-423.25" />
        <path d="M-904.82,-451.10L-905.13,-459.19L-904.34,-463.56" />
        <path d="M-900.80,-483.72L-900.01,-489.99L-890.82,-512.89L-881.96,-531.20" />
        <path d="M-878.42,-536.16L-873.25,-545.96" />
        <path d="M-867.32,-553.81L-864.66,-558.73" />
        <path d="M-860.85,-564.34L-853.36,-581.38" />
        <path d="M-852.79,-585.40L-851.11,-589.72L-850.00,-596.20" />
        <path d="M-848.80,-601.49L-847.45,-610.09L-848.30,-624.50" />
      </g>
      <g id="f2" transform="translate(25.10 -23.47)" style="--index:2; opacity:0;" class="frame">
        <path d="M-942.54,-172.17L-931.35,-203.92" />
        <path d="M-912.75,-271.49L-909.94,-295.28" />
        <path d="M-909.55,-307.83L-909.29,-337.95" />
        <path d="M-908.13,-359.54L-909.25,-379.36" />
        <path d="M-909.95,-397.66L-911.89,-425.66" />
        <path d="M-913.96,-442.44L-913.61,-455.67L-912.48,-461.83" />
        <path d="M-910.88,-483.01L-908.29,-489.35" />
        <path d="M-894.25,-512.93L-892.78,-518.90L-887.87,-527.13" />
        <path d="M-886.01,-530.34L-874.53,-545.13" />
        <path d="M-868.01,-554.22L-864.84,-558.03L-861.40,-564.31" />
        <path d="M-856.71,-572.66L-849.62,-591.01L-847.77,-605.32L-847.68,-614.65" />
        <path d="M-847.38,-617.20L-847.38,-626.43" />
      </g>
      <g id="f3" transform="translate(25.10 -23.47)" style="--index:3; opacity:0;" class="frame">
        <path d="M-943.95,-160.10L-941.12,-163.36L-935.60,-175.19" />
        <path d="M-926.35,-201.18L-926.27,-206.28L-923.28,-215.55L-921.90,-227.62L-920.34,-232.45" />
        <path d="M-915.62,-268.89L-916.15,-279.54" />
        <path d="M-916.74,-306.60L-917.78,-329.86" />
        <path d="M-920.68,-350.14L-925.32,-376.34" />
        <path d="M-925.40,-382.68L-927.29,-418.23" />
        <path d="M-925.64,-427.41L-924.31,-436.14L-919.36,-457.05" />
        <path d="M-913.63,-475.76L-904.77,-494.20" />
        <path d="M-899.03,-505.93L-897.34,-509.90L-893.06,-515.42" />
        <path d="M-888.42,-522.89L-882.27,-530.74L-872.55,-541.10L-859.08,-560.11" />
        <path d="M-849.88,-578.44L-846.46,-585.27" />
        <path d="M-843.89,-594.41L-842.94,-604.21L-843.21,-609.64" />
      </g>
      <g id="f4" transform="translate(25.10 -23.47)" style="--index:4; opacity:0;" class="frame">
        <path d="M-951.50,-149.07L-939.89,-168.08L-929.88,-199.00" />
        <path d="M-921.51,-228.96L-917.75,-251.69" />
        <path d="M-915.99,-276.43L-914.77,-305.14" />
        <path d="M-915.27,-315.11L-916.38,-337.49" />
        <path d="M-917.33,-367.41L-919.06,-386.77L-922.89,-401.12" />
        <path d="M-925.60,-413.08L-926.54,-425.14L-926.29,-433.61" />
        <path d="M-926.31,-440.71L-924.34,-463.78L-920.28,-480.32L-916.78,-490.37L-910.13,-503.58L-902.49,-515.19L-876.87,-547.44" />
        <path d="M-874.76,-549.87L-872.28,-553.33" />
        <path d="M-866.10,-562.97" />
        <path d="M-860.05,-575.37L-857.28,-582.30" />
        <path d="M-856.27,-586.55L-853.90,-594.23L-852.89,-614.39" />
      </g>
      <g id="f5" transform="translate(25.10 -23.47)" style="--index:5; opacity:0;" class="frame">
        <path d="M-948.52,-155.99L-939.49,-168.65L-937.58,-176.86" />
        <path d="M-932.40,-195.65L-927.95,-217.86" />
        <path d="M-924.36,-232.81L-923.39,-242.18" />
        <path d="M-920.70,-252.54L-918.37,-274.97" />
        <path d="M-918.48,-308.39L-919.39,-326.68L-920.74,-333.49L-921.58,-346.11" />
        <path d="M-928.15,-377.31L-930.78,-392.61" />
        <path d="M-934.48,-419.64L-935.75,-436.46L-931.63,-460.32L-929.56,-467.86L-922.83,-482.41" />
        <path d="M-912.89,-501.35L-906.85,-511.19L-895.51,-524.63" />
        <path d="M-883.01,-538.81" />
        <path d="M-864.72,-561.71" />
        <path d="M-859.13,-572.09L-850.10,-596.32L-849.35,-603.34L-846.92,-612.79L-847.66,-625.20L-852.76,-640.48" />
      </g>
      <g id="f6" transform="translate(25.10 -23.47)" style="--index:6; opacity:0;" class="frame">
        <path d="M-946.98,-149.73L-941.22,-161.01L-939.47,-168.31" />
        <path d="M-935.38,-181.86L-929.85,-202.67L-924.41,-235.71L-920.93,-263.97" />
        <path d="M-917.41,-309.00L-918.58,-330.72L-920.44,-338.50" />
        <path d="M-925.95,-360.21L-928.69,-370.41L-929.89,-387.55" />
        <path d="M-932.01,-419.00L-932.80,-441.61L-929.80,-452.52L-928.62,-460.13L-923.23,-474.51" />
        <path d="M-917.80,-492.54L-909.01,-510.53L-894.02,-530.38L-879.36,-552.65" />
        <path d="M-867.70,-585.98L-866.58,-590.48" />
      </g>
      <g id="f7" transform="translate(25.10 -23.47)" style="--index:7; opacity:0;" class="frame">
        <path d="M-956.79,-147.91L-954.76,-154.33" />
        <path d="M-944.36,-181.73L-942.36,-186.27L-939.60,-197.74" />
        <path d="M-938.39,-202.24L-933.94,-226.33L-929.94,-266.86L-929.11,-285.77L-929.49,-300.07" />
        <path d="M-929.01,-321.08L-930.41,-327.01L-931.35,-344.06" />
        <path d="M-933.08,-358.43L-935.19,-373.75" />
        <path d="M-935.79,-403.48L-936.71,-413.43L-936.26,-423.89L-932.31,-449.51L-928.20,-465.15L-920.90,-483.51" />
        <path d="M-918.51,-491.40L-909.75,-511.82L-898.10,-534.28L-892.85,-542.42" />
        <path d="M-876.64,-571.45L-867.67,-594.44L-866.34,-600.93L-862.73,-611.23L-860.14,-623.68" />
        <path d="M-859.05,-632.95L-858.67,-645.52" />
      </g>
      <g id="f8" transform="translate(25.10 -23.47)" style="--index:8; opacity:0;" class="frame">
        <path d="M-955.68,-145.86L-955.44,-152.08L-947.46,-167.81L-945.56,-178.79L-939.25,-203.65" />
        <path d="M-933.76,-236.22L-933.14,-248.36L-933.56,-261.00" />
        <path d="M-935.68,-281.45L-936.26,-292.97L-935.19,-311.34L-935.20,-329.99" />
        <path d="M-934.84,-335.56L-934.89,-352.55L-933.19,-374.17L-932.67,-399.30" />
        <path d="M-930.11,-432.31L-930.62,-442.59L-924.99,-463.32" />
        <path d="M-922.98,-474.42L-914.42,-496.38" />
        <path d="M-902.96,-520.37L-900.46,-528.40L-892.30,-540.67" />
        <path d="M-887.26,-550.49L-877.57,-570.06" />
        <path d="M-868.39,-593.06L-868.60,-597.27L-864.73,-610.79" />
      </g>
      <g id="f9" transform="translate(25.10 -23.47)" style="--index:9; opacity:0;" class="frame">
        <path d="M-943.48,-239.96L-940.01,-297.11" />
        <path d="M-937.87,-316.20L-937.60,-335.21L-935.08,-353.76L-935.02,-374.74L-932.43,-389.54L-931.33,-403.58L-928.18,-415.84L-927.59,-421.65" />
        <path d="M-923.60,-442.28L-923.03,-450.87L-921.36,-459.83L-914.07,-486.97L-902.85,-520.49" />
        <path d="M-888.26,-552.66L-881.93,-564.18L-873.88,-589.69" />
        <path d="M-863.03,-630.75" />
        <path d="M-862.15,-639.46L-860.96,-644.40L-861.30,-653.50" />
      </g>
      <g id="f10" transform="translate(25.10 -23.47)" style="--index:10; opacity:0;" class="frame">
        <path d="M-967.18,-149.17L-966.65,-156.19L-960.88,-176.57L-955.52,-202.71" />
        <path d="M-950.12,-225.97L-949.30,-236.00L-946.52,-247.03" />
        <path d="M-942.46,-263.67L-935.93,-295.65" />
        <path d="M-930.06,-320.02L-928.69,-337.21L-921.34,-369.98" />
        <path d="M-917.75,-400.26L-915.68,-428.01L-913.32,-447.47" />
        <path d="M-913.48,-461.66L-912.40,-473.71L-910.96,-480.44L-904.23,-499.22L-899.73,-515.65L-890.20,-538.34" />
        <path d="M-885.08,-553.93L-882.66,-558.60" />
        <path d="M-869.23,-587.81L-867.60,-599.88L-865.55,-609.53L-863.48,-615.29" />
      </g>
      <g id="f11" transform="translate(25.10 -23.47)" style="--index:11; opacity:0;" class="frame">
        <path d="M-970.59,-153.12L-968.85,-175.85L-966.53,-189.84L-963.49,-199.99" />
        <path d="M-953.92,-230.46L-953.14,-235.15L-947.58,-246.21L-940.21,-267.56L-935.31,-278.35L-926.84,-304.43" />
        <path d="M-916.98,-331.67L-910.10,-369.56L-904.64,-420.58" />
        <path d="M-901.62,-447.05L-902.11,-461.01L-899.95,-471.11" />
        <path d="M-894.20,-520.49L-893.98,-525.26" />
        <path d="M-892.82,-533.33L-892.34,-543.23" />
        <path d="M-887.73,-564.79L-882.59,-584.26L-877.26,-599.96L-875.69,-612.46L-870.09,-631.95" />
      </g>
      <g id="f12" transform="translate(25.10 -23.47)" style="--index:12; opacity:0;" class="frame">
        <path d="M-969.79,-172.69L-968.30,-189.31L-960.03,-226.27L-957.18,-235.84L-951.01,-248.15L-945.71,-261.95L-938.07,-273.66L-927.86,-296.16L-915.87,-318.64" />
        <path d="M-907.87,-338.36L-902.04,-357.52" />
        <path d="M-894.80,-383.86L-894.95,-395.40L-892.78,-405.18" />
        <path d="M-888.56,-418.50L-886.44,-442.92L-885.19,-448.98" />
        <path d="M-884.32,-454.23L-880.39,-497.85" />
        <path d="M-878.92,-508.25L-878.69,-528.14" />
        <path d="M-875.70,-541.61L-876.01,-563.26L-875.21,-569.85" />
        <path d="M-874.65,-571.55L-874.58,-601.31L-873.23,-610.36L-870.77,-618.70L-867.93,-637.61" />
      </g>
      <g id="f13" transform="translate(25.10 -23.47)" style="--index:13; opacity:0;" class="frame">
        <path d="M-973.13,-143.98L-974.34,-165.80" />
        <path d="M-971.72,-191.04L-970.93,-197.95L-966.56,-212.49" />
        <path d="M-959.71,-226.60L-954.90,-237.39L-951.20,-242.70L-943.99,-256.27" />
        <path d="M-931.77,-274.19L-925.93,-283.81L-921.91,-288.45" />
        <path d="M-907.81,-308.48L-901.16,-323.92" />
        <path d="M-885.19,-373.69L-884.11,-380.96" />
        <path d="M-878.85,-415.65L-877.30,-426.83" />
        <path d="M-874.02,-438.87L-869.45,-462.98L-866.66,-482.99L-867.23,-514.07" />
        <path d="M-869.44,-547.37L-869.70,-552.48" />
        <path d="M-869.75,-576.13L-871.13,-586.05" />
        <path d="M-871.05,-588.83L-871.48,-599.14" />
      </g>
      <g id="f14" transform="translate(25.10 -23.47)" style="--index:14; opacity:0;" class="frame">
        <path d="M-973.58,-150.51L-973.76,-165.17L-972.06,-175.80" />
        <path d="M-965.56,-205.99L-962.29,-220.60L-954.68,-237.19" />
        <path d="M-944.17,-259.91L-929.16,-286.77L-925.12,-292.18" />
        <path d="M-905.64,-320.58L-894.67,-343.22" />
        <path d="M-878.58,-381.58L-876.42,-387.24L-870.03,-414.75" />
        <path d="M-868.49,-426.06L-866.29,-462.14" />
        <path d="M-865.72,-483.94L-866.14,-492.24" />
        <path d="M-866.06,-528.66" />
        <path d="M-867.48,-537.37L-868.19,-542.54" />
        <path d="M-869.96,-557.67L-872.26,-579.20" />
        <path d="M-873.93,-599.89L-875.86,-609.12L-876.23,-619.09" />
      </g>
      <g id="f15" transform="translate(25.10 -23.47)" style="--index:15; opacity:0;" class="frame">
        <path d="M-972.78,-154.78L-972.76,-165.43L-971.12,-174.74" />
        <path d="M-966.77,-196.60L-964.08,-209.39" />
        <path d="M-942.92,-255.11" />
        <path d="M-924.57,-281.11L-918.21,-287.87L-913.00,-296.56L-907.03,-303.86L-901.16,-317.26L-891.26,-334.96" />
        <path d="M-883.92,-350.10L-877.29,-369.09" />
        <path d="M-869.11,-392.04L-866.95,-402.03L-863.47,-412.41L-861.04,-426.19L-859.38,-441.94L-859.02,-465.27" />
        <path d="M-857.59,-501.66L-859.63,-520.32" />
        <path d="M-862.41,-544.94L-865.75,-553.65L-867.98,-567.10" />
        <path d="M-870.68,-583.19L-872.73,-600.29" />
      </g>
      <g id="f16" transform="translate(25.10 -23.47)" style="--index:16; opacity:0;" class="frame">
        <path d="M-971.30,-153.96L-971.02,-168.53L-968.59,-184.08" />
        <path d="M-967.09,-194.49L-964.84,-211.15L-959.19,-227.08" />
        <path d="M-952.00,-243.53L-944.78,-259.22L-941.68,-263.92" />
        <path d="M-925.52,-284.84L-920.67,-292.40L-911.89,-301.29L-907.89,-307.60" />
        <path d="M-903.44,-314.48L-897.37,-324.00L-886.02,-337.10L-880.49,-346.28" />
        <path d="M-870.48,-368.08L-863.07,-384.34" />
        <path d="M-850.22,-423.08L-848.46,-438.82L-848.67,-447.13L-847.21,-469.30L-848.16,-492.69L-848.87,-495.88" />
        <path d="M-850.33,-500.69L-851.40,-510.95" />
        <path d="M-853.11,-518.42L-856.69,-536.80" />
        <path d="M-862.17,-555.39L-863.72,-559.43L-864.11,-563.07" />
        <path d="M-871.15,-588.27L-872.61,-592.97L-872.87,-598.28L-872.76,-607.06L-871.75,-613.66" />
      </g>
      <g id="f17" transform="translate(25.10 -23.47)" style="--index:17; opacity:0;" class="frame">
        <path d="M-976.96,-160.68L-977.25,-173.21L-976.06,-180.04" />
        <path d="M-970.78,-208.29L-968.61,-218.17L-966.55,-223.38L-959.84,-235.92L-954.88,-242.96" />
        <path d="M-902.94,-306.29L-898.70,-310.73L-883.57,-332.12" />
        <path d="M-877.63,-342.41L-873.66,-347.28L-870.81,-352.63" />
        <path d="M-864.26,-363.40L-860.66,-371.59" />
        <path d="M-854.35,-385.33L-852.16,-392.78" />
        <path d="M-848.56,-405.28L-846.60,-410.71L-844.31,-429.14L-844.14,-445.93L-845.57,-481.27" />
        <path d="M-851.94,-512.72L-852.98,-522.55" />
        <path d="M-875.19,-598.16L-874.96,-613.71L-870.09,-640.41" />
      </g>
      <g id="f18" transform="translate(25.10 -23.47)" style="--index:18; opacity:0;" class="frame">
        <path d="M-972.15,-146.48L-970.56,-170.22L-968.02,-183.66L-964.09,-198.53" />
        <path d="M-957.36,-219.85L-957.03,-224.20L-954.91,-230.85L-948.90,-241.47L-939.51,-262.60L-929.83,-277.51" />
        <path d="M-907.08,-307.19L-903.59,-310.80L-898.08,-320.40L-893.40,-324.63" />
        <path d="M-882.48,-337.17L-875.83,-348.61L-866.86,-369.06" />
        <path d="M-865.36,-372.57L-861.59,-381.53" />
        <path d="M-853.26,-405.70" />
        <path d="M-849.62,-430.76L-846.79,-458.56L-847.25,-474.42" />
        <path d="M-850.07,-488.71L-850.08,-499.92L-852.31,-507.26L-854.11,-518.82" />
        <path d="M-860.28,-539.60L-863.87,-547.22L-867.22,-565.36L-870.24,-574.44L-875.41,-602.59L-876.12,-619.23" />
        <path d="M-874.44,-627.74L-870.66,-651.93L-867.64,-660.51" />
      </g>
      <g id="f19" transform="translate(25.10 -23.47)" style="--index:19; opacity:0;" class="frame">
        <path d="M-970.81,-150.88L-967.62,-178.03" />
        <path d="M-960.54,-207.69L-956.95,-222.75L-946.05,-244.38" />
        <path d="M-937.05,-262.27L-931.57,-272.54" />
        <path d="M-905.76,-316.37L-898.41,-324.51L-892.09,-333.81L-881.17,-346.57L-866.47,-372.30L-862.01,-383.28L-853.14,-415.04L-851.93,-423.77" />
        <path d="M-850.34,-438.38L-849.95,-448.41" />
        <path d="M-850.00,-467.62L-850.16,-472.82L-851.68,-478.64" />
        <path d="M-855.02,-512.56" />
        <path d="M-863.00,-561.03L-864.67,-565.71L-866.11,-581.07L-866.95,-604.57" />
      </g>
      <g id="f20" transform="translate(25.10 -23.47)" style="--index:20; opacity:0;" class="frame">
        <path d="M-973.63,-155.85L-972.27,-164.69" />
        <path d="M-969.85,-184.90L-969.13,-190.61L-965.70,-199.66" />
        <path d="M-957.19,-229.29L-955.10,-234.50L-947.53,-245.21L-939.76,-262.69" />
        <path d="M-923.34,-287.61L-921.77,-291.79L-911.83,-304.52" />
        <path d="M-905.99,-311.79L-896.01,-325.50L-892.33,-331.92" />
        <path d="M-878.02,-356.84" />
        <path d="M-870.22,-380.65L-868.08,-389.21" />
        <path d="M-863.88,-400.52" />
        <path d="M-856.83,-423.97L-852.18,-439.85L-848.87,-457.90" />
        <path d="M-845.43,-489.50L-846.02,-509.79L-847.63,-524.25L-850.59,-543.76L-852.81,-552.64" />
        <path d="M-857.15,-574.75L-860.94,-590.76L-861.43,-596.18" />
        <path d="M-862.99,-605.32L-864.50,-611.14L-865.37,-621.86" />
      </g>
      <g id="f21" transform="translate(25.10 -23.47)" style="--index:21; opacity:0;" class="frame">
        <path d="M-971.23,-163.40L-970.29,-169.12" />
        <path d="M-966.94,-184.72L-966.49,-189.08" />
        <path d="M-961.18,-204.54L-960.85,-211.45" />
        <path d="M-955.78,-223.70L-955.23,-227.94L-949.54,-239.00L-944.67,-252.22L-936.14,-268.66L-923.88,-296.57" />
        <path d="M-915.29,-313.78" />
        <path d="M-907.57,-323.71L-898.38,-341.61" />
        <path d="M-883.22,-358.80L-877.84,-370.94" />
        <path d="M-871.93,-386.11L-871.23,-392.25L-868.64,-400.39" />
        <path d="M-866.03,-408.08L-865.95,-413.18L-862.79,-423.33" />
        <path d="M-858.56,-440.88L-858.89,-447.41L-858.11,-452.10" />
        <path d="M-853.13,-481.45L-850.16,-521.79L-852.12,-561.02L-855.37,-575.18" />
        <path d="M-856.51,-577.90L-857.30,-582.75L-862.26,-597.48" />
        <path d="M-865.55,-605.20L-868.08,-611.18L-868.75,-617.93" />
      </g>
      <g id="f22" transform="translate(25.10 -23.47)" style="--index:22; opacity:0;" class="frame">
        <path d="M-966.28,-182.53L-965.00,-189.92L-963.31,-194.00" />
        <path d="M-955.49,-211.17L-954.28,-215.77L-952.93,-217.51" />
        <path d="M-943.28,-240.19L-938.82,-248.76" />
        <path d="M-909.64,-304.63L-905.16,-312.84L-894.00,-338.50L-885.63,-360.01L-877.49,-388.51" />
        <path d="M-870.71,-410.51L-866.35,-427.93" />
        <path d="M-865.42,-431.31L-862.46,-449.77" />
        <path d="M-859.16,-470.60L-859.09,-475.92L-856.31,-487.05L-855.79,-492.42" />
        <path d="M-854.15,-506.05L-851.87,-522.93L-851.24,-539.07L-852.27,-561.56L-851.51,-577.46" />
        <path d="M-851.35,-590.13L-850.74,-598.17L-851.26,-610.46" />
        <path d="M-852.51,-615.28L-855.51,-633.02" />
        <path d="M-860.86,-648.96L-862.65,-656.21" />
      </g>
      <g id="f23" transform="translate(25.10 -23.47)" style="--index:23; opacity:0;" class="frame">
        <path d="M-901.35,-299.04L-899.55,-305.24" />
        <path d="M-883.97,-360.43L-881.87,-367.20" />
        <path d="M-880.61,-373.26L-871.70,-415.22L-863.31,-460.17" />
        <path d="M-856.82,-488.59L-856.11,-498.85" />
        <path d="M-854.20,-518.16L-853.20,-524.97" />
        <path d="M-851.60,-537.05L-850.37,-541.89L-849.46,-559.14" />
        <path d="M-848.80,-567.84L-848.33,-589.73" />
      </g>
    </g>
  </g>
</svg>