<?xml version="1.0" encoding="utf-8"?>
<svg width="597" height="417" viewBox="-299 -209 597 417" xmlns="http://www.w3.org/2000/svg">
  <style>
svg { background-color:#60BBCD; }

#looom {
--version:2; --tempo:120; --musicTime:0; 
}

#t0 {
--visible:1; --timeOffset:26.04995; --speed:12; --bookmarkIndex:-1; --latched:0; --playMode:0; --masked:0; --blendMode:0; --pressureEnabled:0; 
stroke:#000000; stroke-opacity:0.1961764; fill-opacity:0; stroke-width:4.550077; stroke-linecap:round; stroke-linejoin:round;
}
@keyframes t0 { 0% { opacity: 1; } 100% { opacity: 0; } }
#t0 .frame { animation:t0 0.08333334s calc(var(--index) * 0.08333334s) steps(1) infinite; }

#t1 {
--visible:1; --timeOffset:22.4; --speed:30; --bookmarkIndex:-1; --latched:0; --playMode:0; --masked:0; --blendMode:0; --pressureEnabled:0; 
stroke:#000000; stroke-opacity:1; fill-opacity:0; stroke-width:4.550077; stroke-linecap:round; stroke-linejoin:round;
}
@keyframes t1 { 0% { opacity: 1; } 8.333333% { opacity: 0; } }
#t1 .frame { animation:t1 0.4s calc(var(--index) * 0.03333334s) steps(1) infinite; }

</style>
  <g id="w0" transform="translate(10.50 93.50) scale(0.59 0.59) rotate(-326.14)" class="weave">
    <g id="t0" transform="translate(27.54 -20.98)" class="thread">
      <g id="f0" style="--index:0; opacity:1;" class="frame">
        <path d="M-195.10,-58.78L-194.85,-68.58L-188.32,-80.08L-186.36,-85.91L-185.55,-95.71L-185.96,-117.57L-176.81,-127.75L-163.18,-133.17L-159.72,-133.17L-157.61,-131.34L-154.98,-127.22L-152.18,-119.56L-147.00,-114.24L-140.12,-112.79L-134.83,-112.79L-120.55,-116.22L-113.92,-116.38L-104.92,-109.22L-100.80,-102.07L-99.60,-96.90L-99.60,-90.82L-102.11,-85.65L-108.09,-77.43L-99.89,-77.43L-95.62,-71.89L-93.91,-65.40L-94.46,-58.78L-96.43,-55.60L-99.49,-53.36" />
        <path d="M-99.49,-53.36L-99.49,-53.36" />
        <path d="M-99.49,-53.36L-97.23,-53.36L-94.97,-52.03L-92.86,-48.98L-91.91,-45.67L-91.80,-38.52L-93.11,-35.34L-95.77,-32.28L-102.40,-31.37L-101.45,-30.17L-101.60,-23.96L-102.91,-21.19L-106.08,-17.85L-110.86,-16.02L-116.58,-16.02L-120.91,-17.06L-123.83,-18.67L-124.12,-11.64L-125.69,-8.08L-129.80,-3.29L-135.09,-1.18L-144.78,-1.18L-148.86,-2.50L-152.83,-5.56L-154.98,-9.91" />
        <path d="M-154.98,-9.91L-155.09,-11.64L-154.98,-9.91" />
        <path d="M-154.98,-9.91L-155.09,-6.88L-157.61,-4.23L-166.90,-3.95L-175.35,-9.12L-177.21,-11.77L-177.61,-14.37" />
        <path d="M-177.61,-14.37L-177.61,-18.00L-176.41,-19.17L-173.38,-19.58L-173.09,-16.68L-174.84,-15.08L-177.61,-14.37" />
        <path d="M-177.61,-14.37L-184.10,-14.29L-186.36,-14.95L-190.18,-16.93L-194.15,-20.37L-196.16,-24.75L-196.56,-36.00" />
        <path d="M-198.82,-74.00L-205.16,-74.25L-215.76,-65.14L-223.45,-56.00L-228.73,-46.87L-231.50,-39.31L-233.36,-31.11L-233.91,-19.05L-233.91,-7.42L-231.10,7.55L-230.99,19.08L-233.62,25.29L-239.85,36.29L-245.28,43.69L-250.45,48.20L-250.45,49.01L-247.79,49.01L-240.90,46.08L-236.42,46.21L-231.90,48.60L-228.33,52.70L-224.91,59.98L-223.45,66.88L-223.30,82.76L-224.49,87.75" />
        <path d="M-224.49,87.75L-225.27,90.98L-224.49,87.75" />
        <path d="M-224.49,87.75L-219.48,80.11L-211.24,74.54L-204.50,72.83L-196.41,73.22L-189.27,80.24L-187.41,84.08L-184.64,97.06L-183.84,106.86L-178.92,92.81L-173.78,86.20L-165.95,80.78L-158.41,78.00L-153.12,77.87L-150.06,79.20L-143.58,84.75L-139.46,91.90L-138.29,95.46L-138.00,100.76L-134.83,85.41L-131.92,78.26L-105.57,49.93L-97.88,38.02L-89.39,19.87L-87.68,13.00L-87.43,-10.44L-91.14,-15.20L-93.11,-20.24" />
        <path d="M-84.66,-66.59L-78.94,-66.46L-75.91,-64.73L-69.83,-58.90L-64.40,-50.17L-56.96,-29.25L-56.56,-13.22L-62.79,2.00L-69.94,14.17L-78.83,22.64L-84.77,24.12" />
        <path d="M-65.45,-58.90L-58.82,-55.60L-54.19,-51.37L-48.07,-43.81L-39.22,-27.14L-35.50,-13.22L-34.70,-4.49L-34.70,8.62L-37.61,18.42L-42.64,28.34L-52.34,39.21L-59.22,45.68L-72.05,55.22L-82.14,59.32L-89.94,60.92L-104.37,61.30L-108.74,60.11L-110.20,58.66" />
        <path d="M-32.84,-13.37L-28.36,-10.19L-26.10,-6.88L-19.87,6.51L-16.70,15.90L-14.44,26.23L-14.33,41.20L-16.30,49.67L-20.27,60.26L-35.50,78.66L-43.85,84.49L-56.82,91.11L-67.17,94.54L-85.02,97.85L-99.09,97.19L-112.97,94.80L-125.58,87.14L-129.15,81.97" />
        <path d="M-9.30,21.19L-0.67,41.20L4.36,63.29L4.22,75.07L-0.01,90.45L-10.07,106.07L-15.64,112.95L-25.59,122.75L-29.67,126.05L-36.30,129.49L-43.44,134.53L-59.33,142.06L-67.68,144.86L-82.51,148.17L-107.28,148.83L-126.23,144.33L-134.32,143.26L-143.58,140.08L-157.61,130.02L-163.29,122.75L-167.95,114.27L-172.73,103.15L-175.24,88.84" />
        <path d="M-170.07,-107.62L-175.75,-125.36L-180.93,-153.18L-181.58,-181.51L-177.21,-202.84" />
        <path d="M-126.09,-86.57L-120.80,-95.58L-112.86,-104.46L-99.60,-116.22L-88.08,-127.75L-81.19,-135.82L-71.54,-151.98L-66.62,-167.74" />
      </g>
    </g>
    <g id="t1" transform="translate(27.54 -20.98)" class="thread">
      <g id="f0" style="--index:0; opacity:1;" class="frame">
        <path d="M-252.19,45.74L-251.99,47.85" />
        <path d="M-235.94,98.90L-235.93,101.06" />
        <path d="M-186.60,106.08" />
        <path d="M-137.29,99.09" />
        <path d="M-192.92,-74.76L-194.80,-71.43" />
        <path d="M-94.25,-69.10L-93.38,-64.08" />
        <path d="M-169.79,-108.06" />
        <path d="M-169.71,-109.94" />
        <path d="M-123.49,-88.35L-123.58,-86.60" />
        <path d="M-170.49,-204.75L-170.44,-203.00" />
        <path d="M-66.77,-168.09" />
        <path d="M-252.22,46.01L-246.05,42.08L-240.37,35.32L-238.17,30.03L-234.30,16.04L-232.43,5.72L-232.12,-4.32L-234.14,-33.42L-233.13,-38.35L-228.95,-48.14L-222.20,-57.63L-213.13,-66.09L-203.25,-71.68L-198.94,-73.13L-194.31,-73.36" />
        <path d="M-249.49,48.46L-247.41,46.09L-242.81,45.08L-235.87,46.90L-232.43,49.75L-228.90,57.84L-227.49,67.44L-229.28,84.14L-236.09,101.22" />
        <path d="M-236.86,102.71L-231.92,99.40L-215.67,80.74L-210.41,76.67L-204.76,75.34L-201.79,76.24L-197.22,79.28L-193.08,84.67L-189.00,96.77L-187.75,106.48" />
        <path d="M-184.70,105.21L-178.29,101.54L-170.42,85.93L-166.39,81.65L-162.25,79.78L-156.27,79.29L-150.37,81.51L-143.53,88.99L-138.96,96.34" />
        <path d="M-108.43,-78.45" />
        <path d="M-98.75,-54.26" />
        <path d="M-98.70,-55.23" />
        <path d="M-103.41,-35.11" />
        <path d="M-120.60,-15.68" />
        <path d="M-154.29,-19.89" />
        <path d="M-177.87,-15.38" />
        <path d="M-193.25,-40.39" />
        <path d="M-188.55,-54.22" />
        <path d="M-189.52,-55.24" />
        <path d="M-188.44,-56.90" />
        <path d="M-106.93,-78.13L-103.69,-78.04L-100.00,-76.41L-94.22,-70.77L-93.48,-63.29L-95.70,-57.27L-97.99,-55.18" />
        <path d="M-98.62,-53.54L-94.92,-49.84L-92.78,-45.25L-92.22,-40.96L-93.42,-37.78L-96.07,-34.82L-101.94,-33.05" />
        <path d="M-118.89,-15.91L-117.83,-14.49L-113.23,-13.01L-109.48,-13.49L-104.95,-16.09L-102.68,-19.83L-101.81,-23.48L-102.43,-31.84L-104.41,-34.34" />
        <path d="M-153.09,-22.98L-154.43,-20.67L-154.90,-16.16L-151.43,-8.80L-146.86,-5.01L-141.63,-2.97L-132.58,-4.34L-127.34,-6.91L-123.09,-10.87L-122.09,-16.08" />
        <path d="M-176.51,-16.69L-176.57,-13.76L-172.60,-7.98L-169.75,-5.85L-165.55,-4.74L-160.45,-6.16L-156.95,-8.76L-155.38,-13.98L-154.98,-18.61" />
        <path d="M-176.32,-18.55L-180.14,-15.95L-186.98,-15.78L-189.58,-17.37L-193.76,-22.21L-196.38,-27.15L-196.53,-31.93L-193.14,-37.61L-191.90,-41.83" />
        <path d="M-192.14,-41.07L-193.98,-41.02L-197.60,-44.99L-198.74,-47.40L-198.29,-51.84L-197.12,-54.72L-195.45,-55.97L-187.73,-56.33" />
        <path d="M-176.42,-127.10L-174.22,-128.34" />
        <path d="M-144.57,-116.29L-143.63,-114.70L-141.89,-113.92" />
        <path d="M-105.36,-109.52L-103.59,-105.91" />
        <path d="M-187.97,-56.41L-189.80,-57.45L-192.71,-61.97L-193.40,-70.94L-191.62,-76.71L-186.71,-83.81L-184.31,-91.79L-183.63,-103.38L-185.34,-109.47L-184.97,-115.06L-181.30,-124.00L-178.62,-127.32L-174.29,-129.75L-163.51,-130.38L-157.79,-128.22L-152.25,-123.88L-147.34,-117.53L-143.55,-114.49L-130.27,-110.93L-116.30,-111.02L-109.94,-108.90L-104.13,-102.08L-102.64,-94.90L-103.84,-86.93L-107.28,-81.63L-110.05,-79.56" />
        <path d="M-185.65,-139.82" />
        <path d="M-170.00,-180.13L-169.51,-177.97" />
        <path d="M-169.35,-110.38L-177.66,-119.73L-182.11,-128.46L-182.87,-134.24L-181.94,-144.65L-179.60,-153.56L-176.71,-160.31L-170.43,-169.64L-168.64,-175.41L-168.27,-182.13L-171.67,-191.29L-172.35,-195.26L-169.92,-203.09" />
        <path d="M-93.95,-103.20" />
        <path d="M-82.07,-142.11L-82.35,-143.97" />
        <path d="M-122.41,-88.55L-118.08,-90.25L-114.04,-90.51L-110.32,-92.28L-103.65,-96.35L-94.89,-104.53L-89.98,-113.45L-83.01,-143.40L-80.14,-151.01L-78.01,-154.59L-67.57,-166.40" />
        <path d="M-134.99,97.96L-135.76,93.48L-132.18,80.14L-125.51,71.01L-113.28,58.34L-100.71,42.95L-97.11,36.11L-93.04,23.27L-89.67,3.00L-89.72,-0.38L-92.50,-17.66L-94.64,-23.23L-97.42,-28.19L-99.26,-29.79" />
        <path d="M-65.87,-33.35L-64.41,-28.28" />
        <path d="M-62.74,44.10L-59.00,41.28" />
        <path d="M-18.02,44.68L-17.35,38.04" />
        <path d="M-112.67,144.87L-104.10,145.59" />
        <path d="M-91.61,-65.45L-88.92,-65.35L-83.25,-62.08L-77.57,-57.04L-73.20,-51.84L-67.47,-41.66L-65.55,-34.46L-64.95,-28.33L-66.78,-17.22L-71.06,-7.05L-76.79,3.83L-80.82,14.53L-85.35,20.75L-89.95,24.42L-91.13,24.46" />
        <path d="M-74.00,-59.15L-69.97,-59.45L-65.49,-58.09L-55.87,-51.29L-49.47,-44.33L-43.15,-33.55L-38.38,-10.41L-37.51,-0.76L-38.09,5.36L-42.69,20.57L-45.68,26.50L-54.32,37.72L-59.01,42.37L-65.96,47.78L-82.57,58.09L-95.24,60.51L-106.13,58.82L-109.67,56.47L-110.78,54.50" />
        <path d="M-35.56,-13.24L-32.92,-11.67L-30.07,-8.36L-20.67,6.44L-17.59,14.59L-14.90,27.93L-15.31,41.66L-19.02,49.53L-22.35,59.27L-28.72,68.18L-42.22,80.07L-50.32,85.35L-67.20,94.00L-80.35,97.42L-91.82,97.91L-114.88,93.23L-119.47,90.79L-126.08,84.57L-129.03,81.06L-131.21,76.80" />
        <path d="M-169.69,90.40L-170.39,93.18L-169.63,102.84L-166.88,111.12L-163.08,117.53L-157.39,124.06L-146.84,133.54L-131.35,140.47L-112.41,145.70L-99.01,145.88L-86.67,144.89L-70.77,141.24L-49.34,132.50L-27.66,117.83L-24.02,114.85L-16.20,106.01L-5.60,89.24L-0.33,74.58L1.31,67.19L1.82,59.71L0.73,44.33L-2.28,35.84L-5.56,29.56L-14.06,20.78L-17.77,19.71" />
      </g>
      <g id="f1" style="--index:1; opacity:0;" class="frame">
        <path d="M-256.65,42.71L-256.99,44.82" />
        <path d="M-232.11,92.65L-231.78,95.12" />
        <path d="M-189.83,107.89" />
        <path d="M-136.93,98.64L-136.70,100.89" />
        <path d="M-192.35,-75.21L-194.17,-71.13" />
        <path d="M-94.56,-68.70L-93.65,-63.95" />
        <path d="M-169.61,-108.28" />
        <path d="M-169.71,-109.71" />
        <path d="M-123.72,-88.39" />
        <path d="M-171.68,-204.48" />
        <path d="M-66.34,-167.88" />
        <path d="M-256.96,42.07L-251.54,42.28L-247.70,40.20L-241.90,34.73L-238.48,28.85L-234.28,18.79L-232.54,11.91L-231.25,0.65L-231.59,-8.33L-234.06,-24.35L-234.22,-29.93L-232.83,-37.77L-228.75,-47.23L-219.17,-60.61L-210.45,-68.60L-202.62,-71.75L-194.88,-72.29" />
        <path d="M-256.49,42.57L-250.65,43.06L-242.71,47.22L-236.27,53.42L-232.21,60.06L-229.88,67.46L-229.09,74.94L-230.20,85.91L-232.85,95.02" />
        <path d="M-234.24,97.73L-228.33,92.98L-213.02,75.71L-207.43,73.39L-203.27,73.35L-199.77,74.42L-194.77,78.32L-190.14,84.38L-187.76,97.43L-189.24,109.88" />
        <path d="M-186.59,107.62L-181.79,104.29L-178.29,100.72L-173.17,89.18L-169.85,84.25L-166.83,81.71L-162.85,79.90L-156.69,79.16L-148.61,82.34L-141.12,92.07L-137.60,97.96" />
        <path d="M-108.62,-78.47" />
        <path d="M-98.70,-55.23" />
        <path d="M-98.49,-54.71" />
        <path d="M-103.25,-33.90" />
        <path d="M-121.04,-16.64" />
        <path d="M-154.34,-16.30" />
        <path d="M-178.84,-13.70" />
        <path d="M-191.15,-40.48" />
        <path d="M-189.52,-55.24" />
        <path d="M-188.42,-57.13" />
        <path d="M-106.71,-78.21L-99.84,-77.35L-95.64,-72.89L-93.64,-63.73L-97.79,-57.14" />
        <path d="M-97.34,-52.93L-94.59,-52.55L-91.28,-49.76L-89.51,-45.62L-89.46,-41.31L-90.91,-38.29L-94.00,-35.18L-102.37,-34.60" />
        <path d="M-120.48,-17.26L-117.99,-15.39L-113.27,-15.02L-107.04,-15.55L-104.40,-17.50L-101.04,-24.95L-102.52,-33.99" />
        <path d="M-152.65,-15.20L-152.94,-13.13L-150.11,-6.90L-143.31,-3.64L-138.12,-3.08L-131.94,-4.49L-127.05,-7.50L-122.79,-13.72L-122.04,-16.00L-122.40,-18.39" />
        <path d="M-153.65,-17.43L-154.01,-15.42L-152.80,-11.24" />
        <path d="M-177.17,-15.44L-176.20,-10.86L-174.20,-7.69L-169.88,-4.80L-164.41,-4.25L-160.60,-5.41L-155.79,-8.63L-154.11,-11.44L-152.49,-18.50" />
        <path d="M-176.02,-16.09L-175.69,-11.36" />
        <path d="M-175.69,-11.36L-175.69,-11.36" />
        <path d="M-175.69,-11.36L-175.92,-11.75" />
        <path d="M-178.60,-19.19L-178.28,-17.25L-179.57,-15.95L-181.84,-14.84L-186.52,-14.69L-192.22,-17.65L-195.90,-22.81L-197.08,-26.65L-197.18,-31.72L-190.20,-39.93" />
        <path d="M-189.53,-40.47L-194.18,-41.58L-195.85,-43.44L-197.20,-46.40L-197.46,-53.29L-196.97,-55.12L-195.24,-56.09L-191.21,-56.65L-188.57,-56.07" />
        <path d="M-175.52,-126.69" />
        <path d="M-145.69,-115.71L-143.00,-113.97" />
        <path d="M-104.59,-109.63L-103.72,-107.79" />
        <path d="M-188.52,-56.72L-190.16,-57.71L-192.68,-62.20L-193.37,-65.73L-192.64,-72.72L-190.49,-79.93L-186.20,-88.70L-184.94,-94.38L-184.65,-100.86L-186.73,-113.39L-185.37,-119.44L-182.49,-124.63L-180.38,-126.95L-175.93,-129.45L-165.86,-130.87L-161.08,-130.29L-154.68,-126.91L-146.59,-116.19L-143.67,-114.31L-134.30,-112.39L-129.54,-112.21L-120.98,-113.36L-113.46,-112.88L-106.06,-109.01L-101.90,-103.44L-100.74,-98.81L-100.74,-92.45L-102.26,-86.68L-103.92,-83.57L-106.63,-80.91L-109.78,-79.35" />
        <path d="M-182.11,-141.19L-181.31,-138.85" />
        <path d="M-168.52,-178.79L-168.77,-177.04" />
        <path d="M-169.68,-110.05L-175.02,-114.38L-179.57,-121.19L-180.96,-127.25L-181.56,-137.82L-180.56,-146.25L-178.47,-151.56L-173.43,-161.28L-169.02,-166.60L-167.45,-170.07L-166.99,-175.41L-167.82,-181.77L-175.32,-193.28L-174.44,-200.09L-170.99,-204.82" />
        <path d="M-96.04,-107.66L-94.73,-108.75" />
        <path d="M-85.00,-145.12L-84.90,-147.60" />
        <path d="M-82.65,-143.49" />
        <path d="M-122.81,-87.80L-108.91,-94.37L-94.65,-108.50L-89.84,-116.17L-85.26,-129.82L-84.32,-145.45L-83.25,-148.33L-74.50,-161.78L-71.32,-165.07L-66.64,-166.77" />
        <path d="M-134.84,101.29L-134.62,92.58L-130.02,79.85L-110.41,55.43L-99.73,40.64L-91.53,19.41L-89.27,2.99L-89.77,-4.44L-94.22,-23.58L-97.13,-29.49L-100.12,-33.45" />
        <path d="M-63.33,-35.30L-61.07,-27.76" />
        <path d="M-64.09,40.62L-59.02,36.84" />
        <path d="M-20.09,43.93L-19.01,37.22" />
        <path d="M-110.99,142.63L-103.92,143.31" />
        <path d="M-90.81,-65.39L-85.28,-64.67L-80.12,-61.20L-69.48,-48.91L-63.59,-38.25L-61.71,-26.06L-63.41,-13.78L-73.95,7.04L-80.12,17.45L-83.18,21.09L-89.19,25.24L-91.50,25.44" />
        <path d="M-74.16,-58.70L-72.77,-59.90L-69.56,-59.63L-61.66,-57.08L-54.16,-51.01L-48.84,-43.39L-43.64,-33.23L-39.59,-22.25L-37.04,-9.05L-36.57,-0.10L-37.58,6.11L-41.76,18.55L-44.46,23.22L-52.49,32.81L-65.22,42.65L-74.17,46.80L-81.12,52.01L-86.03,54.25L-102.17,57.31L-108.37,55.57" />
        <path d="M-35.41,-13.42L-31.13,-10.14L-26.71,-3.57L-24.64,0.12L-21.39,9.32L-18.68,21.87L-17.38,37.80L-18.58,42.67L-25.00,56.58L-32.68,68.60L-45.63,80.18L-62.41,91.94L-73.39,95.16L-84.51,97.01L-91.26,97.23L-109.95,94.39L-121.61,88.47L-125.03,85.95L-127.46,83.02L-128.66,79.76" />
        <path d="M-167.49,83.17L-168.98,87.41L-168.34,95.91L-165.82,108.61L-161.99,116.61L-158.82,121.24L-150.23,129.25L-135.28,136.15L-114.72,142.60L-99.45,143.54L-83.18,142.36L-58.97,135.53L-41.66,128.40L-37.60,126.12L-31.83,119.92L-25.34,115.70L-22.41,112.08L-12.12,102.68L-5.53,91.47L1.59,69.26L2.31,59.85L1.91,50.50L0.81,43.36L-1.76,35.76L-7.54,25.65L-15.79,18.44L-20.88,17.58" />
      </g>
      <g id="f2" style="--index:2; opacity:0;" class="frame">
        <path d="M-260.91,40.71" />
        <path d="M-227.54,90.79L-227.36,92.86" />
        <path d="M-193.00,110.59" />
        <path d="M-135.45,98.95" />
        <path d="M-190.67,-73.83L-192.82,-70.01" />
        <path d="M-93.89,-68.43L-93.11,-65.02" />
        <path d="M-169.47,-108.23" />
        <path d="M-169.58,-109.26" />
        <path d="M-124.39,-88.12" />
        <path d="M-173.56,-204.75" />
        <path d="M-66.12,-168.11L-65.93,-166.10" />
        <path d="M-259.43,38.83L-256.51,40.18L-252.38,40.29L-247.02,38.25L-240.43,33.07L-237.00,26.56L-233.89,17.77L-232.38,7.60L-232.39,-2.30L-234.00,-15.59L-234.18,-30.03L-232.02,-37.88L-225.82,-50.61L-218.78,-59.65L-209.37,-67.34L-202.03,-70.57L-192.08,-71.99" />
        <path d="M-260.01,40.23L-257.87,40.08L-254.36,41.34L-246.92,45.70L-242.01,50.25L-234.01,60.29L-232.03,64.99L-229.45,75.35L-228.12,85.01L-229.07,91.55" />
        <path d="M-228.49,92.81L-222.79,87.58L-212.43,75.32L-206.78,72.76L-201.61,73.42L-195.62,78.20L-191.40,85.56L-189.05,100.31L-189.56,104.87L-192.31,109.22" />
        <path d="M-194.86,112.25L-187.85,108.93L-185.59,106.47L-182.84,102.91L-175.34,87.62L-171.16,82.31L-167.18,79.04L-160.74,76.24L-156.98,75.80L-152.39,76.54L-144.90,82.28L-141.19,87.17L-138.09,93.10L-136.00,99.31" />
        <path d="M-109.40,-78.09" />
        <path d="M-108.54,-78.20" />
        <path d="M-98.49,-54.71" />
        <path d="M-98.24,-54.27" />
        <path d="M-102.79,-34.59" />
        <path d="M-121.55,-18.04" />
        <path d="M-154.38,-14.87" />
        <path d="M-179.03,-14.08" />
        <path d="M-189.18,-42.29" />
        <path d="M-187.66,-57.55" />
        <path d="M-105.37,-78.24L-98.42,-76.61L-95.49,-73.09L-94.39,-70.34L-93.81,-66.51L-94.39,-62.77L-96.17,-59.14L-98.76,-56.83" />
        <path d="M-97.50,-53.51L-94.04,-51.97L-92.09,-49.98L-89.81,-43.34L-89.95,-39.83L-93.71,-35.45L-96.35,-34.19L-100.31,-33.22L-102.80,-35.42" />
        <path d="M-120.87,-18.82L-117.35,-16.43L-113.18,-15.45L-105.93,-16.57L-103.31,-19.43L-101.63,-24.56L-101.23,-28.87L-101.97,-33.97" />
        <path d="M-152.43,-14.81L-152.34,-12.79L-148.49,-5.49L-144.60,-2.45L-139.96,-2.31L-132.23,-4.84L-125.25,-8.36L-122.80,-12.11L-121.84,-17.47" />
        <path d="M-177.02,-15.01L-176.47,-10.81L-174.22,-7.27L-170.55,-4.62L-164.94,-3.28L-158.51,-5.75L-155.79,-9.92L-154.91,-16.00" />
        <path d="M-177.47,-16.72L-178.47,-15.18L-180.01,-14.52L-186.24,-15.30L-191.16,-17.98L-194.40,-22.72L-195.86,-27.70L-195.26,-32.44L-192.15,-38.79L-188.05,-42.81" />
        <path d="M-186.95,-44.09L-188.79,-42.49L-191.57,-43.00L-194.24,-45.37L-195.80,-48.32L-194.25,-53.03L-187.85,-57.09" />
        <path d="M-177.04,-127.38L-173.06,-129.30" />
        <path d="M-146.53,-115.35L-142.84,-113.22" />
        <path d="M-144.82,-115.07L-143.49,-113.64" />
        <path d="M-102.63,-106.24" />
        <path d="M-188.22,-57.19L-190.21,-58.35L-192.03,-62.24L-192.09,-71.63L-187.82,-80.81L-185.62,-92.28L-184.57,-104.88L-185.27,-112.09L-184.62,-117.48L-183.09,-121.85L-180.15,-125.26L-176.05,-128.20L-169.38,-130.24L-167.05,-130.51L-160.78,-129.38L-154.78,-126.18L-150.74,-122.39L-147.34,-116.80L-141.75,-113.48L-129.71,-111.77L-123.51,-113.07L-117.05,-112.98L-111.90,-111.58L-107.37,-108.39L-103.48,-102.75L-101.35,-91.33L-104.04,-84.80L-110.07,-79.59" />
        <path d="M-180.35,-141.55L-179.92,-139.32" />
        <path d="M-172.17,-179.11L-172.38,-177.28" />
        <path d="M-169.56,-109.38L-174.20,-116.97L-177.88,-126.75L-179.25,-138.30L-177.72,-149.76L-174.78,-159.18L-170.98,-166.95L-169.76,-171.98L-171.41,-179.33L-174.16,-184.88L-176.11,-191.85L-175.19,-198.11L-172.36,-203.84" />
        <path d="M-98.47,-111.52" />
        <path d="M-82.65,-143.49" />
        <path d="M-80.85,-141.97" />
        <path d="M-123.39,-88.10L-119.30,-89.37L-110.34,-94.34L-100.09,-104.66L-95.24,-112.41L-91.08,-124.52L-80.06,-149.40L-73.54,-160.35L-68.05,-166.34" />
        <path d="M-133.62,100.60L-134.57,94.41L-133.45,87.01L-131.39,81.09L-127.19,74.94L-119.33,67.38L-110.42,56.89L-99.97,41.13L-92.45,25.31L-90.04,17.54L-88.67,4.15L-91.39,-13.93L-94.34,-22.88L-99.58,-32.20" />
        <path d="M-61.27,-36.04L-59.78,-32.94L-58.86,-27.88" />
        <path d="M-65.40,36.81L-60.92,33.93" />
        <path d="M-22.41,43.12L-21.28,36.84" />
        <path d="M-109.99,139.89L-102.83,140.37" />
        <path d="M-90.32,-63.79L-87.66,-64.67L-81.61,-62.84L-71.69,-54.76L-66.35,-48.29L-62.93,-42.60L-59.69,-34.08L-58.72,-26.35L-59.13,-18.72L-60.85,-12.47L-69.61,4.72L-79.95,19.11L-85.48,23.82L-92.00,26.40" />
        <path d="M-74.23,-58.82L-71.73,-59.44L-66.45,-58.22L-58.81,-54.13L-51.43,-48.29L-46.02,-39.39L-42.14,-25.32L-40.82,-11.72L-44.75,12.11L-47.03,17.74L-51.22,24.75L-55.82,30.55L-64.36,38.66L-75.43,44.67L-84.05,48.01L-95.13,54.45L-101.81,56.28L-109.18,55.87" />
        <path d="M-38.64,-14.56L-31.73,-8.82L-27.99,-4.55L-24.76,0.82L-20.78,11.67L-18.59,28.91L-20.32,37.54L-24.22,47.45L-34.11,63.66L-44.80,75.56L-68.72,88.81L-82.94,92.61L-91.37,93.37L-97.93,93.37L-114.98,91.32L-123.11,86.52L-129.52,78.90" />
        <path d="M-165.43,80.20L-167.58,82.18L-168.50,86.79L-168.21,93.40L-166.58,100.45L-159.65,113.12L-153.73,120.55" />
        <path d="M-154.47,118.85L-148.40,124.95L-125.62,137.76L-115.89,140.99L-106.04,142.48L-78.92,140.65L-71.34,138.86L-51.59,132.37L-36.41,124.30L-25.89,115.85L-12.70,101.46L-3.91,87.00L-0.10,74.92L1.05,68.11L-0.36,46.91L-1.50,41.56L-4.96,32.27L-9.33,24.32L-16.58,18.41L-21.96,16.31" />
      </g>
      <g id="f3" style="--index:3; opacity:0;" class="frame">
        <path d="M-265.54,38.04L-265.72,39.75" />
        <path d="M-225.52,91.28L-224.92,93.42" />
        <path d="M-194.15,112.31L-194.14,114.28" />
        <path d="M-133.93,99.30L-133.38,101.00" />
        <path d="M-187.54,-74.21L-190.26,-69.53" />
        <path d="M-92.44,-67.77L-91.90,-64.54" />
        <path d="M-169.30,-108.55" />
        <path d="M-125.46,-87.22" />
        <path d="M-124.39,-88.20" />
        <path d="M-174.65,-204.17" />
        <path d="M-64.88,-167.87L-64.81,-165.22" />
        <path d="M-265.41,38.14L-260.07,38.99L-252.75,38.42L-246.51,35.59L-241.26,30.90L-235.62,19.74L-233.73,11.99L-232.34,-0.29L-233.08,-21.63L-232.08,-30.68L-228.62,-44.30L-223.97,-53.65L-218.12,-60.91L-209.07,-68.45L-199.71,-70.96L-192.56,-71.16L-190.61,-70.53" />
        <path d="M-265.68,37.65L-260.28,37.73L-250.31,42.78L-243.98,47.07L-238.02,53.04L-231.53,63.87L-227.75,77.52L-226.53,90.58" />
        <path d="M-225.83,92.79L-224.71,88.33L-222.01,83.25L-216.06,77.71L-212.29,75.34L-204.44,73.46L-202.53,73.31L-198.56,74.59L-191.80,80.69L-188.94,89.05L-188.27,94.24L-188.82,101.75L-189.94,106.26L-192.59,110.96" />
        <path d="M-195.35,113.75L-191.46,112.56L-184.35,107.19L-180.29,100.93L-174.04,85.66L-168.48,80.04L-162.29,77.04L-154.66,76.78L-148.56,79.58L-139.21,91.60L-135.86,100.40" />
        <path d="M-108.95,-78.51" />
        <path d="M-98.83,-55.17L-99.06,-53.44" />
        <path d="M-102.69,-33.46" />
        <path d="M-122.65,-19.14" />
        <path d="M-154.29,-14.20" />
        <path d="M-177.51,-15.43" />
        <path d="M-187.89,-43.25" />
        <path d="M-187.18,-57.43" />
        <path d="M-105.99,-78.39L-101.44,-78.02L-96.89,-75.48L-94.54,-72.93L-92.75,-68.30L-92.03,-64.12L-93.34,-60.74L-100.78,-53.26" />
        <path d="M-98.03,-53.30L-95.75,-51.94L-91.73,-47.54L-90.34,-44.55L-90.17,-39.62L-91.72,-37.03L-96.13,-33.94L-100.47,-32.97L-102.01,-34.92" />
        <path d="M-120.77,-20.21L-118.91,-17.88L-115.94,-16.93L-105.50,-17.91L-101.98,-22.63L-100.86,-27.87L-101.39,-32.30" />
        <path d="M-152.89,-14.61L-152.84,-12.04L-146.74,-2.49L-143.54,-0.56L-139.10,-0.11L-130.87,-3.70L-127.12,-6.52L-123.89,-11.08L-122.94,-18.15" />
        <path d="M-175.38,-16.61L-176.61,-15.19L-176.51,-14.10L-173.87,-7.47L-170.54,-3.75L-167.13,-2.56L-163.92,-2.92L-156.27,-7.84L-154.64,-14.34" />
        <path d="M-177.79,-17.58L-180.37,-16.18L-187.89,-16.56L-191.48,-20.02L-195.08,-26.80L-195.29,-31.75L-194.20,-34.43L-191.69,-38.79L-187.08,-42.21L-186.24,-43.92" />
        <path d="M-185.41,-44.13L-187.72,-42.05L-190.13,-42.20L-194.64,-44.42L-196.47,-47.48L-196.08,-51.02L-194.81,-52.92L-187.85,-57.30L-186.32,-56.87" />
        <path d="M-176.77,-128.92L-172.85,-129.88" />
        <path d="M-146.73,-115.70L-142.79,-113.20" />
        <path d="M-102.55,-106.54" />
        <path d="M-102.64,-106.70" />
        <path d="M-102.85,-106.89L-101.27,-104.82" />
        <path d="M-183.88,-58.24L-185.70,-57.99L-187.65,-59.32L-191.25,-65.63L-190.42,-71.17L-186.90,-79.46L-186.04,-84.19L-185.27,-95.79L-186.96,-107.62L-185.06,-117.43L-182.60,-124.10L-178.97,-127.95L-172.75,-131.91L-164.98,-132.35L-159.20,-129.54L-155.39,-126.25L-150.37,-117.85L-145.56,-113.45L-142.06,-112.74L-136.74,-113.03L-123.84,-117.34L-118.69,-116.29L-111.45,-112.25L-104.07,-104.08L-101.54,-99.87L-100.46,-95.55L-100.68,-89.95L-101.54,-87.34L-107.35,-80.46" />
        <path d="M-178.58,-139.87L-177.77,-136.96" />
        <path d="M-181.58,-175.78L-181.73,-173.01" />
        <path d="M-176.23,-179.06L-176.67,-176.73" />
        <path d="M-168.42,-108.64L-171.33,-112.53L-175.82,-121.70L-178.79,-137.47L-175.71,-160.83L-178.76,-173.70L-179.72,-184.18L-176.17,-197.92L-172.91,-203.63" />
        <path d="M-100.95,-114.01L-100.05,-115.81" />
        <path d="M-80.85,-141.97" />
        <path d="M-78.59,-141.16" />
        <path d="M-125.71,-86.69L-116.54,-93.13L-101.19,-109.47L-88.00,-128.89L-74.46,-145.14L-71.76,-152.04L-71.03,-157.74L-66.93,-164.63" />
        <path d="M-132.54,102.32L-134.08,93.05L-133.42,88.18L-130.80,79.93L-127.75,75.42L-116.32,62.32L-110.38,56.86L-107.13,52.34L-99.14,39.11L-92.22,20.67L-89.90,1.68L-90.75,-6.54L-94.24,-19.94L-97.56,-26.77L-101.31,-31.23" />
        <path d="M-60.10,-36.55L-58.97,-35.16L-58.31,-30.88" />
        <path d="M-66.30,33.53L-63.52,31.04" />
        <path d="M-24.95,41.54L-23.96,35.76" />
        <path d="M-109.76,137.90L-102.92,139.12" />
        <path d="M-88.56,-64.26L-86.02,-65.08L-79.63,-62.56L-73.19,-58.36L-68.15,-52.97L-64.24,-47.77L-60.09,-39.29L-58.31,-32.53L-58.00,-27.84L-58.61,-20.82L-60.39,-14.70L-69.51,4.34L-76.56,16.12L-78.09,17.91L-86.27,22.97L-91.23,24.73L-92.50,23.94" />
        <path d="M-70.34,-59.55L-67.00,-58.95L-59.74,-53.04L-51.60,-42.88L-46.36,-33.91L-44.03,-24.62L-42.57,-13.18L-43.03,-6.35L-45.42,0.90L-46.86,8.64L-49.07,13.76L-57.23,25.38L-66.33,34.95L-88.95,48.33L-97.52,50.00L-105.83,49.33" />
        <path d="M-39.98,-15.67L-32.72,-7.27L-26.85,2.36L-25.37,6.29L-23.38,13.96L-22.14,23.72L-22.29,33.68L-24.19,41.63L-28.52,50.95L-49.09,74.67L-60.59,83.30L-81.38,94.37L-99.04,96.85L-108.38,95.88L-120.21,89.65L-127.35,85.13L-130.86,78.26" />
        <path d="M-165.62,79.11L-167.56,81.19L-168.46,86.97L-167.50,93.47L-165.40,99.22L-157.90,112.29L-141.81,128.86L-120.59,136.59L-104.46,140.04L-84.55,139.92L-68.97,137.27L-60.40,134.94L-45.53,127.87L-31.95,120.34L-23.90,114.32L-14.85,103.90L-6.62,91.77L-2.80,84.19L-0.28,74.60L0.94,65.69L-2.19,39.88L-5.37,32.09L-9.49,25.61L-14.22,21.59L-23.37,16.39" />
      </g>
      <g id="f4" style="--index:4; opacity:0;" class="frame">
        <path d="M-267.69,39.94" />
        <path d="M-225.03,91.10L-224.61,93.03" />
        <path d="M-194.68,114.87" />
        <path d="M-131.54,99.38" />
        <path d="M-184.98,-72.82L-187.21,-68.51" />
        <path d="M-90.83,-66.52L-90.06,-63.51" />
        <path d="M-168.40,-108.51" />
        <path d="M-125.02,-87.89" />
        <path d="M-176.51,-203.75L-176.60,-201.96" />
        <path d="M-175.69,-203.68" />
        <path d="M-62.79,-167.25L-62.87,-165.14" />
        <path d="M-267.22,39.29L-265.18,39.87L-255.01,39.72L-249.65,37.74L-243.40,33.57L-239.48,27.59L-235.55,19.19L-233.64,12.04L-232.45,2.10L-232.04,-19.22L-230.01,-35.23L-227.07,-44.39L-222.88,-52.21L-217.79,-58.49L-209.55,-65.82L-204.16,-68.36L-193.97,-71.12L-187.97,-71.19" />
        <path d="M-265.79,40.33L-262.87,39.45L-259.04,39.92L-250.52,42.99L-242.07,48.70L-236.82,54.13L-231.92,61.21L-229.30,68.40L-226.85,85.25L-227.31,90.22" />
        <path d="M-224.08,92.20L-223.74,89.08L-221.95,84.76L-215.27,76.79L-207.90,73.40L-201.02,72.56L-198.73,73.60L-195.36,76.61L-192.21,81.43L-190.37,87.90L-189.41,95.35L-191.64,108.35L-194.26,113.32" />
        <path d="M-195.39,115.63L-185.72,107.96L-179.34,98.28L-173.18,84.77L-166.70,79.48L-162.99,77.67L-160.46,77.30L-155.20,78.23L-148.53,82.01L-142.74,87.74L-133.79,100.13L-131.81,100.88" />
        <path d="M-108.62,-79.52" />
        <path d="M-99.78,-53.62" />
        <path d="M-102.33,-32.50" />
        <path d="M-101.85,-34.08" />
        <path d="M-122.99,-20.02" />
        <path d="M-154.65,-13.42" />
        <path d="M-175.83,-17.43" />
        <path d="M-187.60,-42.91" />
        <path d="M-190.40,-44.66" />
        <path d="M-186.37,-58.26" />
        <path d="M-106.22,-79.14L-104.27,-79.95L-97.21,-77.92L-92.63,-74.19L-91.45,-71.77L-90.35,-64.61L-90.84,-61.29L-94.00,-57.30L-98.75,-53.85" />
        <path d="M-98.90,-52.58L-96.40,-51.30L-92.72,-47.00L-91.08,-41.43L-92.30,-37.65L-95.71,-34.23L-97.45,-33.45L-101.04,-33.50" />
        <path d="M-120.87,-21.71L-120.08,-18.83L-116.54,-16.99L-112.25,-16.86L-106.38,-18.30L-103.85,-20.78L-101.80,-25.17L-100.76,-29.53L-100.96,-32.17" />
        <path d="M-152.53,-13.87L-151.34,-10.10L-145.49,-3.76L-139.44,-1.83L-136.60,-1.92L-130.27,-5.12L-125.22,-9.87L-123.07,-14.60L-122.01,-20.73" />
        <path d="M-173.42,-18.28L-174.95,-16.22L-174.99,-11.75L-171.38,-5.61L-168.01,-3.11L-161.28,-2.95L-157.67,-4.62L-156.04,-7.14L-154.78,-12.35" />
        <path d="M-175.06,-18.23L-180.40,-17.15L-187.24,-18.17L-191.72,-21.34L-193.97,-24.63L-194.98,-29.18L-194.41,-34.06L-192.76,-37.77L-188.44,-43.88" />
        <path d="M-187.01,-44.94L-188.99,-44.04L-192.66,-44.76L-195.05,-48.28L-195.57,-51.04L-194.01,-53.63L-189.92,-57.22L-184.93,-57.44" />
        <path d="M-175.71,-132.11L-172.94,-133.61" />
        <path d="M-145.11,-115.31L-143.82,-114.03L-142.00,-113.76" />
        <path d="M-105.16,-108.95L-102.38,-104.67" />
        <path d="M-182.58,-56.85L-185.66,-59.20L-187.71,-64.05L-186.17,-70.61L-183.51,-75.00L-182.60,-81.93L-183.31,-91.67L-186.30,-100.65L-187.14,-108.61L-184.58,-121.53L-182.47,-125.25L-175.28,-131.69L-166.55,-133.38L-161.00,-131.17L-155.35,-126.63L-148.40,-117.76L-142.94,-114.41L-138.42,-113.64L-134.38,-114.10L-121.05,-117.62L-116.64,-116.31L-111.29,-113.33L-104.41,-105.80L-101.49,-100.61L-100.32,-95.84L-100.15,-90.76L-101.86,-85.50L-104.70,-82.10L-106.82,-80.90" />
        <path d="M-176.13,-141.13L-175.85,-137.78" />
        <path d="M-183.54,-175.67L-183.23,-173.20" />
        <path d="M-169.27,-109.03L-171.55,-113.55L-172.80,-127.38L-174.59,-135.74L-183.46,-152.43L-185.01,-158.86L-183.94,-171.42L-178.48,-185.19L-176.69,-192.77L-176.59,-201.62" />
        <path d="M-102.17,-112.86" />
        <path d="M-103.48,-113.00L-102.12,-114.80" />
        <path d="M-78.49,-138.95L-77.52,-140.94" />
        <path d="M-123.28,-86.87L-119.72,-96.11L-112.53,-105.33L-91.56,-120.69L-81.73,-132.67L-78.99,-138.10L-78.25,-142.40L-75.30,-150.05L-71.49,-157.99L-65.06,-164.86" />
        <path d="M-130.73,100.69L-132.80,94.24L-132.75,86.04L-131.91,82.93L-124.86,70.79L-114.77,59.74L-106.58,48.62L-100.72,38.60L-92.94,19.84L-89.62,1.00L-89.64,-2.25L-92.05,-16.05L-94.25,-21.44L-98.67,-28.73" />
        <path d="M-59.07,-37.48L-57.50,-32.83" />
        <path d="M-64.57,33.96L-61.92,31.58" />
        <path d="M-24.47,42.04L-23.53,37.17" />
        <path d="M-110.09,138.97L-102.52,140.29" />
        <path d="M-87.14,-64.39L-81.12,-63.53L-76.54,-61.92L-68.41,-54.37L-58.59,-38.48L-56.31,-31.63L-55.87,-25.52L-56.92,-18.36L-60.79,-7.38L-67.94,6.51L-76.27,17.66L-88.48,24.84L-92.47,25.21" />
        <path d="M-61.77,-52.32L-63.34,-53.81" />
        <path d="M-66.13,-56.75L-68.38,-57.81" />
        <path d="M-68.38,-57.81L-68.38,-57.81" />
        <path d="M-68.38,-57.81L-63.31,-54.77L-55.63,-45.62L-48.91,-33.77L-46.04,-26.18L-43.03,-14.00L-42.83,-7.75L-46.97,7.71L-48.62,12.05L-57.17,25.29L-64.33,32.99L-85.91,44.71L-92.13,46.45L-103.68,48.08" />
        <path d="M-41.65,-14.94L-36.49,-9.46L-27.77,3.50L-23.45,16.49L-21.48,27.75L-21.75,35.45L-24.18,46.23L-33.33,57.38L-43.31,65.98L-62.53,80.41L-81.72,90.37L-102.43,91.55L-113.24,90.18L-121.48,87.47L-126.97,84.34L-130.51,78.99" />
        <path d="M-164.84,80.23L-167.09,83.04L-167.52,88.36L-165.85,95.28L-162.78,101.48L-158.81,108.46L-153.32,115.10L-141.16,127.14L-137.43,129.45L-133.60,130.29L-123.39,135.00L-113.42,137.74L-108.70,139.89L-101.47,140.75L-86.27,139.45L-71.72,136.60L-57.29,131.80L-34.95,121.36L-25.41,115.79L-20.42,111.85L-14.67,104.32L-9.36,93.98L-2.89,83.93L-0.37,78.28L2.05,66.31L0.72,55.26L-3.34,39.12L-11.29,24.70L-17.05,20.34L-22.73,17.78" />
      </g>
      <g id="f5" style="--index:5; opacity:0;" class="frame">
        <path d="M-265.88,45.00L-264.75,47.59" />
        <path d="M-258.99,48.73" />
        <path d="M-225.20,90.92L-224.56,93.42" />
        <path d="M-192.65,116.11L-191.40,117.90" />
        <path d="M-129.15,101.83L-129.11,103.85" />
        <path d="M-182.51,-72.34L-185.76,-67.08" />
        <path d="M-88.90,-66.61L-88.62,-62.90" />
        <path d="M-167.91,-108.51" />
        <path d="M-124.67,-88.57L-124.74,-86.59" />
        <path d="M-176.12,-204.63" />
        <path d="M-61.24,-167.25L-61.68,-164.71" />
        <path d="M-264.87,44.17L-260.29,46.01L-252.89,45.03L-242.16,38.40L-237.39,31.71L-232.65,14.62L-230.82,-5.00L-231.48,-20.53L-230.28,-29.81L-225.63,-42.28L-220.07,-51.68L-212.01,-60.35L-203.67,-66.90L-194.90,-69.45L-183.47,-70.77" />
        <path d="M-263.61,45.87L-246.36,51.78L-235.28,61.14L-231.17,67.68L-228.65,75.48L-226.78,86.86L-227.27,91.23" />
        <path d="M-224.29,94.06L-221.69,84.64L-218.93,80.43L-216.30,78.02L-209.19,74.07L-201.57,73.97L-198.27,75.38L-193.55,81.70L-191.50,90.16L-190.92,102.16L-192.13,118.11" />
        <path d="M-193.41,119.23L-192.10,116.90L-186.35,112.31L-182.39,106.79L-173.46,86.23L-169.61,82.20L-163.41,78.37L-158.57,78.12L-153.29,79.96L-146.84,85.37L-140.32,94.36L-136.14,97.12L-133.18,100.23L-128.54,101.61" />
        <path d="M-110.65,-81.09" />
        <path d="M-99.58,-53.97" />
        <path d="M-101.44,-32.66" />
        <path d="M-101.75,-33.72" />
        <path d="M-123.15,-20.18" />
        <path d="M-154.63,-12.91" />
        <path d="M-154.77,-14.36" />
        <path d="M-175.07,-19.74" />
        <path d="M-173.98,-20.48" />
        <path d="M-191.77,-42.79" />
        <path d="M-186.35,-59.56" />
        <path d="M-109.69,-80.76L-106.27,-81.25L-94.18,-77.57L-91.75,-75.18L-89.13,-69.41L-88.72,-64.09L-90.88,-59.77L-93.84,-57.15L-100.44,-53.49" />
        <path d="M-98.43,-52.51L-93.50,-48.79L-91.23,-41.50L-93.67,-36.18L-97.36,-33.05" />
        <path d="M-121.48,-22.51L-120.44,-19.01L-117.45,-16.88L-111.48,-16.86L-106.96,-17.77L-104.03,-20.30L-101.92,-23.97L-101.10,-26.78L-101.29,-32.22" />
        <path d="M-153.38,-14.12L-152.22,-11.30L-148.69,-7.03L-143.03,-3.33L-139.93,-2.70L-134.64,-3.23L-129.18,-6.87L-123.75,-12.50L-121.56,-17.16L-120.78,-23.13" />
        <path d="M-172.20,-19.69L-174.04,-17.88L-173.09,-12.71L-169.87,-6.62L-168.03,-5.16L-163.80,-4.28L-159.05,-5.14L-155.06,-8.16L-154.21,-12.72" />
        <path d="M-174.85,-20.62L-178.51,-17.84L-182.65,-17.48L-187.30,-18.28L-191.52,-20.99L-194.16,-25.61L-195.22,-31.00L-192.78,-40.36L-190.54,-42.28" />
        <path d="M-189.41,-44.32L-192.43,-44.07L-194.77,-45.75L-196.72,-49.31L-196.49,-53.78L-195.85,-56.06L-193.00,-58.08L-187.19,-58.97" />
        <path d="M-175.35,-136.24L-171.81,-137.40" />
        <path d="M-143.93,-116.34L-140.99,-114.52" />
        <path d="M-106.43,-107.36L-103.81,-102.99" />
        <path d="M-183.39,-58.46L-185.72,-61.70L-185.87,-66.38L-184.81,-70.03L-181.64,-75.33L-181.23,-82.34L-182.26,-89.62L-187.14,-103.44L-187.14,-117.62L-183.61,-127.36L-178.80,-132.44L-172.26,-137.00L-169.17,-137.49L-164.51,-136.02L-156.35,-131.35L-152.65,-127.17L-146.49,-116.67L-142.26,-114.02L-134.19,-112.56L-122.99,-114.81L-117.86,-114.90L-109.57,-110.82L-106.61,-107.88L-102.35,-100.85L-101.23,-95.53L-101.27,-92.67L-103.94,-85.43L-108.79,-81.09" />
        <path d="M-172.45,-141.96L-171.58,-139.29" />
        <path d="M-186.43,-175.40" />
        <path d="M-167.73,-109.80L-169.52,-112.98L-170.87,-117.96L-169.77,-127.79L-170.32,-137.16L-173.09,-142.43L-179.64,-148.01L-184.15,-153.55L-186.79,-158.17L-187.70,-163.29L-185.94,-173.13L-178.79,-185.17L-176.05,-192.09L-174.97,-197.26L-175.46,-203.55" />
        <path d="M-103.90,-114.01L-103.30,-116.06L-101.94,-116.97" />
        <path d="M-77.57,-138.33L-76.38,-139.82" />
        <path d="M-123.82,-88.58L-119.29,-97.75L-112.10,-107.95L-92.75,-119.50L-79.90,-130.81L-77.26,-134.93L-72.86,-146.52L-71.91,-154.24L-68.36,-160.99L-63.76,-165.59" />
        <path d="M-126.53,101.33L-129.06,96.74L-129.43,92.04L-127.46,82.19L-124.46,74.55L-115.55,62.87L-108.07,55.10L-97.85,41.23L-91.67,28.66L-88.29,19.09L-86.33,5.73L-87.17,-5.24L-89.24,-12.87L-93.56,-22.86L-97.10,-28.63L-100.02,-31.59" />
        <path d="M-59.31,-37.45L-58.20,-35.75L-57.27,-30.32" />
        <path d="M-63.78,37.29L-60.42,34.42" />
        <path d="M-22.62,41.73L-20.94,35.71" />
        <path d="M-109.99,140.35L-103.27,141.60" />
        <path d="M-85.93,-66.00L-76.96,-62.20L-68.93,-56.21L-67.02,-53.72L-59.86,-41.64L-58.25,-37.48L-56.97,-32.35L-56.91,-22.76L-58.10,-15.21L-60.20,-8.91L-69.15,8.13L-75.79,17.60L-80.23,21.55L-84.06,23.96L-90.99,26.72" />
        <path d="M-57.12,-53.17L-60.89,-54.98" />
        <path d="M-67.44,-57.61L-65.33,-57.25L-61.41,-54.33L-52.18,-44.10L-49.33,-38.92L-46.35,-30.04L-45.05,-24.14L-44.48,-11.07L-48.51,11.78L-52.43,19.11L-54.40,25.34L-57.64,30.63L-67.87,39.59L-76.89,44.82L-97.82,49.74L-101.89,48.57" />
        <path d="M-42.39,-12.76L-40.43,-12.41L-36.93,-9.31L-27.88,5.21L-23.84,14.79L-21.16,27.87L-23.36,41.53L-28.17,50.39L-37.91,62.80L-55.22,79.04L-77.10,91.50L-95.58,94.44L-108.42,94.52L-115.19,93.25L-128.28,84.88" />
        <path d="M-165.12,80.18L-166.53,81.38L-166.87,82.98L-166.04,88.41L-162.63,97.61L-157.32,107.41L-151.74,115.14L-142.82,124.66L-126.91,135.64L-118.54,137.30L-105.32,141.46L-100.98,141.91L-84.15,140.37L-57.62,133.33L-46.45,127.78L-21.27,112.64L-13.85,105.77L-10.25,101.32L-1.28,83.03L1.37,75.85L2.53,67.70L1.98,58.07L-0.06,47.26L-3.90,37.47L-10.79,25.04L-23.87,17.13" />
      </g>
      <g id="f6" style="--index:6; opacity:0;" class="frame">
        <path d="M-254.06,49.29" />
        <path d="M-224.57,91.05L-223.76,93.07" />
        <path d="M-187.20,112.72L-186.88,114.56" />
        <path d="M-128.42,105.82L-128.76,108.25" />
        <path d="M-181.79,-71.63L-183.07,-68.44" />
        <path d="M-89.13,-66.89L-88.75,-64.42" />
        <path d="M-167.28,-109.32L-166.61,-107.75" />
        <path d="M-123.99,-88.48L-123.84,-86.46" />
        <path d="M-175.99,-204.49" />
        <path d="M-61.71,-167.78L-62.30,-165.66" />
        <path d="M-259.05,46.99" />
        <path d="M-259.96,47.79L-253.02,47.82L-246.86,44.27L-242.01,39.15L-235.94,28.90L-232.28,13.84L-232.64,-24.26L-230.77,-34.74L-225.97,-45.54L-214.42,-59.01L-201.43,-67.52L-194.16,-70.30L-186.32,-71.40L-182.63,-70.63" />
        <path d="M-257.07,48.11L-251.00,49.16L-243.66,52.03L-232.07,63.94L-228.64,72.45L-226.07,88.50L-226.53,90.63" />
        <path d="M-223.62,93.15L-221.80,87.36L-214.63,76.34L-207.74,73.57L-203.62,73.08L-198.17,74.03L-193.31,78.59L-190.27,85.14L-188.61,96.26L-187.82,113.37" />
        <path d="M-186.34,113.91L-183.79,111.20L-181.87,107.56L-180.28,103.18L-179.61,96.94L-174.55,85.68L-167.62,80.56L-164.62,79.26L-160.61,78.74L-155.05,79.46L-152.36,81.08L-133.93,103.36L-128.73,107.69" />
        <path d="M-112.27,-81.21" />
        <path d="M-99.95,-53.55" />
        <path d="M-102.58,-33.01" />
        <path d="M-123.43,-19.13" />
        <path d="M-154.60,-13.37" />
        <path d="M-154.76,-13.49" />
        <path d="M-173.98,-20.48" />
        <path d="M-173.39,-21.60" />
        <path d="M-193.13,-41.19" />
        <path d="M-185.74,-58.76" />
        <path d="M-186.52,-59.39" />
        <path d="M-110.30,-81.83L-99.86,-80.33L-93.68,-76.26L-89.62,-70.40L-88.47,-65.68L-89.92,-61.64L-92.03,-59.12L-98.91,-55.85" />
        <path d="M-98.36,-52.65L-96.44,-52.04L-93.13,-49.07L-91.01,-41.53L-91.79,-38.03L-94.03,-34.72L-97.77,-32.08L-99.58,-31.75L-100.23,-32.59" />
        <path d="M-122.37,-20.23L-120.78,-17.04L-116.85,-15.07L-113.07,-14.59L-105.93,-15.88L-102.29,-19.65L-100.92,-22.53L-100.12,-25.67L-100.90,-31.35" />
        <path d="M-153.95,-14.58L-153.34,-11.92L-147.83,-3.58L-143.62,-0.98L-139.35,-0.38L-134.58,-1.82L-124.75,-8.48L-122.81,-12.47L-122.25,-20.14" />
        <path d="M-171.90,-20.89L-174.86,-18.71L-174.74,-12.88L-171.98,-7.24L-168.34,-4.36L-163.89,-3.24L-159.30,-5.30L-157.11,-7.94L-156.23,-11.43" />
        <path d="M-174.59,-21.55L-180.09,-17.89L-183.74,-16.92L-188.56,-18.51L-191.89,-21.29L-194.47,-26.00L-195.27,-31.45L-193.47,-38.93L-191.93,-41.35" />
        <path d="M-189.15,-43.69L-190.90,-43.37L-194.53,-44.59L-196.38,-48.26L-196.35,-52.78L-193.99,-57.26L-191.99,-58.39L-186.33,-59.40" />
        <path d="M-175.14,-139.47L-171.71,-140.93" />
        <path d="M-142.96,-117.76L-141.73,-116.49L-139.81,-116.12" />
        <path d="M-107.83,-106.72L-105.76,-103.23" />
        <path d="M-183.58,-57.43L-185.77,-61.15L-185.82,-64.91L-180.92,-71.39L-180.27,-78.06L-182.36,-90.81L-187.36,-102.74L-187.09,-119.19L-184.60,-127.37L-182.00,-132.24L-177.59,-137.83L-174.30,-139.73L-170.25,-140.15L-164.43,-138.92L-156.91,-134.19L-152.10,-129.96L-145.57,-118.36L-140.88,-115.26L-132.39,-113.78L-127.46,-114.21L-123.13,-115.61L-119.71,-115.52L-112.25,-112.83L-107.52,-107.63L-104.11,-102.04L-103.36,-99.15L-103.79,-88.04L-105.57,-85.85L-110.45,-82.65" />
        <path d="M-166.09,-143.78" />
        <path d="M-191.28,-176.08L-192.09,-173.30" />
        <path d="M-165.89,-108.09L-170.33,-114.43L-171.22,-117.76L-166.63,-137.68L-166.73,-142.54L-168.26,-146.85L-170.54,-150.90L-173.96,-153.95L-182.27,-156.57L-187.04,-160.09L-189.79,-164.14L-190.88,-167.92L-190.78,-172.37L-187.83,-180.19L-186.60,-182.13L-180.12,-187.37L-175.69,-195.40L-174.87,-199.48L-176.12,-204.37" />
        <path d="M-106.98,-117.75L-105.65,-119.69" />
        <path d="M-76.13,-137.63" />
        <path d="M-123.27,-87.24L-123.05,-94.19L-120.59,-101.62L-116.95,-108.12L-111.22,-115.43L-103.34,-120.01L-94.15,-123.27L-86.66,-127.06L-79.02,-132.81L-75.81,-136.31L-72.73,-144.46L-70.55,-157.90L-67.31,-162.82L-63.31,-166.47" />
        <path d="M-128.39,105.95L-130.65,100.55L-131.09,94.32L-130.55,88.84L-127.52,79.69L-123.55,72.39L-119.15,67.79L-103.74,46.86L-97.71,39.91L-90.48,24.77L-85.66,7.94L-85.51,-1.20L-88.59,-13.28L-94.90,-26.81L-99.47,-32.00" />
        <path d="M-60.84,-37.21L-59.32,-31.18" />
        <path d="M-61.96,41.54L-58.52,37.80" />
        <path d="M-20.89,42.52L-19.26,36.22" />
        <path d="M-110.80,142.68L-104.48,143.62" />
        <path d="M-87.05,-65.06L-83.03,-64.27L-76.56,-60.76L-68.68,-54.48L-61.86,-44.19L-58.78,-30.50L-60.31,-14.07L-62.96,-6.37L-68.21,3.82L-77.85,16.02L-88.66,23.23L-90.34,22.47" />
        <path d="M-70.30,-56.27L-64.92,-55.15L-56.69,-50.26L-48.68,-41.46L-42.95,-32.00L-41.04,-24.54L-40.22,-12.32L-41.24,-1.24L-43.45,8.84L-52.99,31.54L-57.90,36.98L-65.90,43.19L-72.86,47.10L-89.20,53.75L-98.62,54.86L-105.85,52.96" />
        <path d="M-34.35,-7.20" />
        <path d="M-38.39,-9.42L-30.53,2.15L-25.09,11.82L-20.75,28.11L-20.33,39.93L-23.04,46.78L-29.85,55.01L-46.92,69.77L-59.76,78.70L-66.80,84.68L-83.28,94.41L-94.06,95.86L-109.84,95.11L-114.47,93.52L-123.66,87.86L-130.61,84.79" />
        <path d="M-165.95,81.11L-166.80,82.83L-166.65,85.75L-163.97,94.95L-156.44,111.10L-151.62,119.41L-146.45,125.67L-139.55,132.04L-123.51,140.97L-116.59,143.24L-112.17,142.35L-101.21,143.45L-86.91,143.01L-62.43,136.18L-52.77,132.30L-35.97,122.86L-20.45,111.61L-15.88,105.67L-9.11,94.42L-4.70,89.66L0.48,81.26L2.28,76.63L3.60,64.45L0.49,45.66L-3.10,36.14L-8.22,28.31L-19.40,21.50L-22.33,20.51" />
      </g>
      <g id="f7" style="--index:7; opacity:0;" class="frame">
        <path d="M-251.63,49.28" />
        <path d="M-222.19,94.22L-220.51,96.78" />
        <path d="M-184.17,107.91L-184.47,109.66" />
        <path d="M-130.86,111.04L-131.93,112.79" />
        <path d="M-182.87,-73.15L-184.96,-69.46" />
        <path d="M-89.17,-67.46L-88.85,-64.33" />
        <path d="M-167.28,-109.32" />
        <path d="M-122.91,-87.99" />
        <path d="M-174.41,-203.72" />
        <path d="M-62.72,-167.85L-63.20,-165.17" />
        <path d="M-252.01,49.20L-246.05,46.60L-242.93,44.18L-240.16,40.01L-236.05,29.84L-233.60,14.56L-232.99,-19.49L-230.16,-31.37L-224.97,-43.89L-220.24,-50.97L-210.74,-60.68L-195.57,-68.78L-183.09,-70.26" />
        <path d="M-252.21,49.55L-249.40,49.14L-246.94,49.74L-239.49,53.05L-231.68,58.47L-229.29,61.29L-226.28,67.51L-224.16,74.76L-222.48,86.30L-223.71,92.20" />
        <path d="M-221.28,96.70L-221.53,91.23L-219.64,86.30L-215.59,79.63L-207.98,75.21L-203.55,74.72L-199.28,75.42L-193.38,81.31L-189.28,88.22L-187.16,94.69L-185.11,110.54" />
        <path d="M-184.98,110.48L-181.11,105.99L-178.62,92.21L-174.49,84.67L-166.35,79.08L-159.27,78.44L-155.72,79.22L-149.92,83.29L-144.45,91.21L-140.19,100.77L-131.29,111.01" />
        <path d="M-112.24,-81.67" />
        <path d="M-100.72,-54.14" />
        <path d="M-104.04,-34.03" />
        <path d="M-122.84,-19.16" />
        <path d="M-154.73,-13.64" />
        <path d="M-154.69,-12.67" />
        <path d="M-173.39,-21.60" />
        <path d="M-172.72,-21.42" />
        <path d="M-194.82,-39.69" />
        <path d="M-186.52,-59.39" />
        <path d="M-187.23,-58.84" />
        <path d="M-110.64,-82.06L-108.40,-82.17L-101.62,-79.73L-94.56,-74.82L-92.26,-71.94L-90.59,-66.88L-90.53,-62.48L-92.86,-58.46L-98.19,-54.15" />
        <path d="M-99.53,-53.15L-97.31,-52.70L-95.44,-51.02L-93.28,-41.70L-94.30,-38.58L-96.16,-36.32L-102.42,-34.18" />
        <path d="M-121.63,-20.15L-121.07,-17.19L-116.68,-14.45L-108.40,-15.15L-106.12,-16.27L-102.35,-20.88L-101.03,-25.27L-101.26,-31.95L-102.54,-34.12" />
        <path d="M-152.59,-13.79L-151.96,-10.83L-148.96,-5.69L-140.96,-0.76L-138.42,-0.75L-132.12,-2.89L-125.83,-6.63L-122.70,-12.17L-122.60,-17.56" />
        <path d="M-171.48,-21.08L-173.50,-19.06L-173.60,-13.88L-171.20,-8.25L-168.38,-5.79L-164.31,-4.46L-159.33,-5.55L-156.28,-7.94L-154.79,-12.65" />
        <path d="M-172.91,-21.41L-176.64,-16.82L-181.60,-14.50L-185.50,-14.43L-189.81,-17.03L-194.93,-25.69L-196.78,-31.11L-196.39,-33.82L-192.85,-42.33" />
        <path d="M-190.50,-44.23L-192.95,-43.98L-195.88,-46.16L-197.17,-48.54L-196.75,-52.04L-193.91,-56.48L-190.46,-58.63L-187.12,-59.22" />
        <path d="M-174.32,-139.77L-171.88,-140.67" />
        <path d="M-142.88,-119.26L-139.10,-117.61" />
        <path d="M-109.75,-105.18L-108.22,-102.63" />
        <path d="M-183.88,-57.51L-186.30,-60.60L-185.94,-65.87L-181.15,-75.76L-180.62,-80.71L-182.14,-89.12L-187.07,-104.71L-187.56,-119.66L-185.77,-127.18L-183.88,-130.88L-181.73,-133.33L-174.03,-138.80L-167.79,-139.09L-157.09,-133.05L-152.85,-129.28L-147.25,-121.41L-142.63,-117.54L-130.23,-114.06L-122.88,-116.64L-118.80,-116.86L-112.16,-114.07L-105.04,-103.22L-104.21,-98.26L-105.11,-89.27L-107.31,-86.01L-110.76,-83.66" />
        <path d="M-164.67,-144.06" />
        <path d="M-195.27,-175.91" />
        <path d="M-165.35,-108.60L-168.84,-113.41L-169.74,-118.80L-169.07,-124.98L-164.60,-135.61L-164.57,-141.47L-165.74,-145.58L-168.84,-150.98L-173.79,-155.95L-181.90,-157.65L-188.55,-161.94L-192.64,-166.11L-194.28,-169.27L-194.67,-172.26L-194.13,-176.76L-190.05,-182.11L-187.79,-184.25L-180.32,-188.35L-176.30,-192.99L-175.26,-195.85L-174.78,-202.44" />
        <path d="M-110.61,-122.08L-109.73,-123.72" />
        <path d="M-71.85,-133.67" />
        <path d="M-123.59,-88.55L-124.23,-95.03L-122.34,-105.55L-114.93,-118.05L-112.38,-120.99L-106.31,-125.12L-99.57,-126.73L-86.38,-128.04L-78.14,-131.17L-73.33,-135.12L-70.83,-139.79L-69.53,-144.30L-69.19,-158.51L-66.87,-162.76L-63.96,-165.79" />
        <path d="M-129.38,110.64L-131.28,104.78L-131.73,95.30L-126.50,77.56L-112.97,58.16L-96.53,37.59L-90.87,26.85L-86.55,12.06L-85.84,5.14L-86.45,-1.29L-89.61,-15.30L-94.92,-26.85L-99.95,-33.70" />
        <path d="M-64.21,-35.47L-63.10,-29.27" />
        <path d="M-60.66,43.51L-57.88,40.80" />
        <path d="M-18.93,42.50L-17.32,36.17" />
        <path d="M-111.36,144.34L-104.46,145.58" />
        <path d="M-87.24,-64.49L-85.04,-64.43L-75.20,-59.72L-69.74,-54.61L-66.83,-50.09L-61.83,-34.74L-60.34,-15.24L-61.46,-8.77L-69.33,9.73L-80.85,20.09L-86.20,23.09L-90.40,24.11" />
        <path d="M-67.45,-56.16L-58.62,-51.60L-51.20,-45.84L-46.29,-39.24L-40.42,-27.78L-37.42,-10.01L-37.49,0.47L-41.95,21.25L-47.15,30.32L-54.50,39.16L-62.62,44.81L-72.96,50.52L-88.98,56.73L-95.89,58.45L-105.30,57.89L-108.07,56.91L-109.79,55.34" />
        <path d="M-33.70,-3.11L-23.14,16.98L-19.63,27.90L-19.02,36.81L-21.40,46.94L-26.15,56.45L-30.49,61.36L-34.31,67.34L-43.54,76.16L-55.54,84.55L-78.37,91.90L-87.33,93.73L-110.75,94.16L-115.14,93.06L-126.14,88.22L-129.80,84.38" />
        <path d="M-164.52,79.69L-165.78,80.96L-166.48,83.94L-165.04,90.84L-160.38,101.52L-151.28,117.36L-146.93,123.14L-135.29,134.20L-122.27,142.34L-115.72,144.87L-110.99,145.73L-94.82,146.79L-86.50,146.14L-76.98,143.64L-45.57,132.60L-34.39,126.79L-24.41,119.78L-13.72,109.89L-1.69,94.64L7.52,78.50L7.10,62.39L5.97,52.10L3.12,41.13L-3.09,30.08L-8.79,24.18L-20.72,19.61L-23.13,19.30L-24.60,20.08" />
      </g>
      <g id="f8" style="--index:8; opacity:0;" class="frame">
        <path d="M-251.86,49.32" />
        <path d="M-219.06,101.43L-218.36,105.20" />
        <path d="M-183.37,105.80L-183.41,107.78" />
        <path d="M-136.61,108.87" />
        <path d="M-186.42,-74.07L-188.38,-70.79" />
        <path d="M-90.74,-67.05L-90.20,-64.50" />
        <path d="M-167.69,-109.58" />
        <path d="M-122.06,-88.27L-121.92,-86.34" />
        <path d="M-172.32,-204.37" />
        <path d="M-64.29,-167.85L-64.59,-165.45" />
        <path d="M-252.02,49.11L-247.77,48.29L-242.22,42.89L-238.50,34.75L-233.40,19.36L-232.62,10.40L-233.71,-10.49L-233.16,-23.32L-232.10,-30.07L-227.06,-42.29L-219.99,-53.66L-213.50,-60.00L-197.71,-69.98L-188.27,-71.97" />
        <path d="M-251.07,49.03L-245.49,49.23L-237.44,53.29L-233.11,56.55L-229.69,61.01L-225.57,70.59L-221.12,98.38L-219.76,102.43" />
        <path d="M-218.71,103.53L-220.12,92.93L-217.65,83.61L-211.44,76.52L-208.23,74.78L-204.36,74.14L-197.37,75.30L-194.29,78.17L-190.85,83.05L-185.77,95.44L-183.74,105.92" />
        <path d="M-182.52,107.82L-180.46,103.89L-179.59,95.38L-174.09,83.83L-167.90,79.09L-162.10,77.83L-155.90,78.88L-151.78,81.65L-147.76,87.97L-142.14,103.08L-134.88,109.49" />
        <path d="M-111.08,-81.59L-110.70,-79.66" />
        <path d="M-101.17,-53.77" />
        <path d="M-104.55,-34.05" />
        <path d="M-122.38,-19.45" />
        <path d="M-154.54,-16.55" />
        <path d="M-174.11,-19.77" />
        <path d="M-172.17,-21.49" />
        <path d="M-195.09,-38.23" />
        <path d="M-195.63,-38.52" />
        <path d="M-187.49,-56.97" />
        <path d="M-109.94,-81.64L-107.74,-81.61L-100.12,-78.04L-95.47,-73.37L-93.49,-69.35L-92.45,-63.79L-92.85,-61.22L-95.67,-57.41L-101.42,-53.92" />
        <path d="M-99.63,-52.86L-97.43,-51.91L-94.53,-47.51L-93.32,-40.96L-95.80,-36.65L-99.96,-33.63L-102.32,-33.42" />
        <path d="M-120.80,-20.49L-118.34,-15.98L-115.68,-13.84L-112.42,-13.44L-107.13,-14.85L-103.52,-19.31L-102.05,-24.96L-102.27,-29.48L-104.84,-33.05" />
        <path d="M-153.98,-16.73L-153.76,-13.96L-148.67,-4.35L-142.04,-0.93L-137.15,-0.79L-131.17,-2.85L-126.20,-6.17L-124.26,-9.43L-123.19,-13.34L-122.97,-17.45L-123.70,-20.14" />
        <path d="M-171.42,-21.52L-174.23,-18.96L-174.15,-13.78L-170.11,-7.40L-166.18,-4.75L-161.19,-4.71L-156.83,-6.80L-154.20,-11.59L-154.07,-16.99" />
        <path d="M-171.93,-21.96L-176.70,-17.37L-180.21,-15.24L-185.91,-16.07L-190.70,-18.81L-193.77,-22.61L-196.14,-28.12L-196.00,-32.38L-192.95,-39.68" />
        <path d="M-191.01,-41.55L-192.67,-40.73L-194.74,-42.30L-197.68,-47.32L-197.99,-49.74L-195.96,-53.21L-193.32,-55.52L-190.43,-57.19L-187.51,-56.87" />
        <path d="M-174.11,-137.82L-172.52,-138.66L-171.65,-138.32" />
        <path d="M-141.66,-119.59L-138.55,-118.28" />
        <path d="M-110.79,-104.44L-109.01,-102.39" />
        <path d="M-109.36,-105.66" />
        <path d="M-184.71,-56.22L-186.35,-56.85L-187.51,-58.53L-189.16,-63.59L-188.77,-67.86L-187.34,-71.40L-183.86,-76.35L-183.00,-79.69L-184.01,-91.89L-187.33,-100.85L-188.51,-106.60L-187.77,-117.46L-185.01,-127.09L-176.53,-137.24L-171.96,-138.61L-164.38,-137.91L-159.29,-135.85L-155.15,-132.81L-145.27,-121.59L-138.86,-117.74L-126.86,-113.88L-118.53,-114.53L-112.94,-112.14L-109.74,-108.75L-107.37,-104.61L-106.94,-101.18L-107.76,-90.41L-110.06,-86.01L-112.73,-83.59" />
        <path d="M-168.90,-143.65" />
        <path d="M-193.68,-176.13" />
        <path d="M-165.60,-109.33L-169.17,-114.21L-170.07,-117.74L-170.03,-123.36L-167.69,-134.96L-169.29,-145.70L-173.92,-153.14L-177.11,-155.59L-184.01,-158.75L-190.27,-165.00L-193.60,-171.93L-192.94,-177.12L-190.40,-182.73L-177.30,-192.47L-173.78,-199.01L-173.40,-202.48" />
        <path d="M-109.50,-121.57L-108.41,-123.69" />
        <path d="M-70.87,-132.67" />
        <path d="M-122.59,-86.32L-124.06,-92.22L-122.35,-101.62L-116.66,-113.30L-111.73,-119.38L-104.16,-124.06L-97.25,-126.49L-88.36,-126.78L-83.52,-127.74L-75.08,-132.06L-73.00,-134.53L-70.30,-139.67L-69.50,-143.79L-70.01,-153.71L-69.46,-159.07L-65.17,-165.63" />
        <path d="M-131.88,110.70L-133.36,106.42L-133.94,96.34L-131.64,84.59L-129.65,79.69L-128.22,76.98L-104.66,50.39L-97.83,41.17L-91.46,28.38L-86.44,10.61L-86.26,1.81L-88.43,-7.47L-93.10,-20.84L-99.38,-32.94L-100.75,-34.19" />
        <path d="M-68.36,-35.41L-67.36,-30.39" />
        <path d="M-59.52,46.17L-56.80,43.46" />
        <path d="M-17.31,41.70L-16.31,39.99L-16.14,37.05" />
        <path d="M-113.44,145.25L-111.73,146.00L-105.55,146.04" />
        <path d="M-88.67,-64.46L-86.07,-63.50L-82.43,-60.62L-74.86,-50.75L-71.27,-44.54L-67.03,-31.10L-66.21,-22.09L-66.64,-17.60L-69.75,-5.66L-72.67,2.50L-80.25,13.43L-84.53,17.50L-88.61,20.00" />
        <path d="M-75.79,-55.35L-70.73,-56.38L-67.17,-55.74L-54.01,-48.46L-47.07,-41.08L-41.21,-31.38L-38.98,-23.73L-37.15,-1.79L-37.73,5.27L-40.86,18.97L-47.24,30.27L-49.89,33.00L-52.61,37.84L-61.84,45.26L-68.89,49.48L-77.33,54.07L-82.95,56.04L-88.80,56.32L-97.22,58.00L-104.04,57.75L-106.38,56.53" />
        <path d="M-34.74,-8.27L-27.07,1.60L-23.08,8.51L-18.23,25.24L-17.71,38.24L-18.58,42.77L-23.75,55.56L-32.55,68.74L-42.42,79.25L-54.91,87.15L-69.58,91.51L-82.69,93.14L-94.46,95.98L-106.90,97.23L-112.69,96.40L-120.20,94.09L-128.98,88.42L-132.56,83.97" />
        <path d="M-168.10,81.14L-169.42,86.18L-169.20,91.07L-156.17,117.38L-148.04,128.07L-141.59,133.65L-132.42,139.31L-111.91,146.05L-100.54,146.85L-81.32,145.31L-67.19,141.91L-57.10,138.12L-43.32,131.15L-33.69,124.90L-17.31,109.64L-1.57,90.50L2.82,78.36L5.51,67.28L5.80,59.97L5.09,51.99L1.22,40.04L-5.14,29.18L-9.82,24.56L-16.26,20.73L-20.76,20.36" />
      </g>
      <g id="f9" style="--index:9; opacity:0;" class="frame">
        <path d="M-250.29,48.33L-250.28,50.39" />
        <path d="M-223.10,112.57L-223.39,116.12" />
        <path d="M-183.33,105.66L-183.46,107.64" />
        <path d="M-139.96,102.96" />
        <path d="M-187.95,-75.23L-190.62,-71.10" />
        <path d="M-92.22,-67.85L-91.68,-64.99" />
        <path d="M-168.23,-109.54L-168.09,-107.79" />
        <path d="M-121.75,-88.58L-121.56,-86.87" />
        <path d="M-169.55,-205.36L-169.47,-202.62" />
        <path d="M-65.39,-167.86L-65.34,-166.12" />
        <path d="M-251.55,48.82L-247.82,48.29L-243.69,43.95L-240.30,36.77L-235.77,23.83L-233.46,11.79L-233.21,-18.40L-231.10,-27.99L-226.59,-40.05L-213.88,-57.25L-208.13,-62.49L-198.90,-70.06L-189.23,-73.00" />
        <path d="M-250.00,49.54L-246.32,51.00L-240.78,56.29L-235.30,62.70L-231.21,69.98L-228.46,76.97L-227.04,83.40L-224.03,109.36" />
        <path d="M-223.04,114.83L-221.41,110.03L-220.24,95.61L-218.24,86.90L-212.69,78.25L-207.67,74.11L-202.63,73.32L-199.02,73.91L-196.34,75.08L-193.22,78.26L-190.39,82.72L-188.98,86.58L-184.78,104.90" />
        <path d="M-182.77,107.35L-181.22,106.18L-179.87,103.49L-176.70,89.58L-173.81,83.52L-168.95,79.50L-161.73,77.10L-154.49,79.15L-149.83,83.92L-145.39,96.39L-142.23,100.62L-139.89,102.01" />
        <path d="M-109.41,-79.97" />
        <path d="M-100.67,-53.50" />
        <path d="M-105.21,-34.88" />
        <path d="M-121.19,-16.71" />
        <path d="M-154.15,-18.12" />
        <path d="M-174.95,-19.80" />
        <path d="M-196.22,-37.72" />
        <path d="M-195.63,-38.52L-195.22,-36.74" />
        <path d="M-187.28,-57.46" />
        <path d="M-108.22,-80.35L-106.41,-80.63L-99.89,-78.40L-94.12,-71.38L-93.14,-65.22L-93.79,-61.78L-94.88,-58.48L-98.43,-54.67" />
        <path d="M-99.15,-52.65L-96.20,-50.82L-94.15,-48.10L-92.18,-39.59L-94.74,-35.17L-100.23,-32.22L-102.32,-32.09" />
        <path d="M-119.33,-17.97L-118.99,-16.03L-117.63,-14.65L-114.27,-13.24L-108.87,-13.80L-103.51,-16.65L-101.33,-20.83L-100.45,-25.03L-100.89,-28.83L-103.81,-33.60" />
        <path d="M-154.41,-18.72L-154.71,-16.94L-149.37,-6.70L-144.07,-1.86L-138.66,-0.45L-133.17,-1.73L-128.96,-4.09L-125.84,-7.20L-124.24,-10.06L-123.47,-13.76L-123.84,-17.73" />
        <path d="M-172.54,-20.22L-173.91,-18.78L-173.95,-17.09L-173.21,-13.11L-171.70,-10.34L-168.81,-7.67L-163.50,-5.95L-161.38,-6.06L-156.86,-8.43L-154.79,-12.19L-155.94,-17.55" />
        <path d="M-173.13,-21.44L-174.11,-19.23L-178.97,-16.81L-186.22,-16.46L-189.96,-18.14L-193.84,-22.11L-197.40,-28.70L-197.70,-32.36L-194.50,-37.89" />
        <path d="M-193.99,-40.76L-197.55,-43.15L-199.66,-46.62L-199.26,-51.81L-196.97,-55.12L-193.35,-57.41L-191.29,-57.80L-187.61,-56.40" />
        <path d="M-175.74,-135.19L-173.27,-136.32" />
        <path d="M-142.60,-118.59L-139.86,-117.39" />
        <path d="M-109.36,-105.66L-108.30,-103.78" />
        <path d="M-186.64,-57.15L-189.83,-62.65L-190.44,-69.35L-188.55,-74.18L-183.41,-79.40L-181.92,-89.56L-183.63,-96.66L-187.87,-106.03L-188.09,-115.37L-185.60,-127.69L-183.11,-132.09L-180.89,-133.85L-174.90,-135.62L-170.34,-135.90L-163.97,-134.78L-156.43,-130.58L-148.03,-121.90L-143.25,-118.07L-130.02,-113.35L-119.32,-112.43L-112.12,-108.56L-107.86,-103.09L-105.52,-97.47L-106.64,-87.94L-108.26,-84.65L-111.32,-81.64" />
        <path d="M-174.43,-143.80L-174.56,-140.83" />
        <path d="M-189.09,-176.80" />
        <path d="M-167.22,-109.62L-169.84,-112.54L-172.19,-117.84L-173.36,-125.62L-173.03,-135.79L-174.14,-145.04L-178.81,-154.64L-185.83,-163.57L-188.90,-169.09L-189.64,-172.35L-188.91,-176.85L-186.37,-183.40L-183.92,-186.38L-174.04,-193.22L-170.90,-198.30L-170.05,-202.70" />
        <path d="M-105.79,-120.04L-104.56,-121.34" />
        <path d="M-69.69,-132.77" />
        <path d="M-122.52,-87.09L-122.77,-95.27L-120.39,-102.83L-115.00,-111.75L-110.59,-116.14L-107.29,-118.83L-97.50,-123.81L-91.48,-126.06L-80.68,-128.04L-75.52,-131.09L-72.51,-134.50L-69.16,-141.34L-69.08,-145.32L-70.64,-154.64L-70.01,-158.31L-66.96,-165.14" />
        <path d="M-137.17,105.34L-138.36,102.03L-138.45,97.16L-136.58,89.44L-132.58,80.72L-125.88,72.30L-113.76,59.69L-98.90,41.56L-95.65,34.72L-92.70,25.71L-90.88,18.53L-88.68,3.01L-88.93,-4.51L-93.49,-21.92L-98.98,-30.68" />
        <path d="M-71.81,-32.60L-70.78,-29.76" />
        <path d="M-59.42,45.71L-56.86,42.71" />
        <path d="M-15.98,41.88L-15.45,35.99" />
        <path d="M-15.15,40.49" />
        <path d="M-113.32,146.57L-105.45,147.22" />
        <path d="M-91.63,-64.82L-85.05,-59.10L-77.36,-46.71L-74.63,-40.48L-71.88,-29.61L-71.26,-23.80L-72.32,-8.10L-75.06,1.56L-78.24,8.99L-82.32,15.63L-89.70,22.21" />
        <path d="M-77.54,-55.14L-76.26,-56.63L-71.13,-57.35L-65.94,-56.23L-60.57,-52.83L-51.10,-43.82L-44.10,-31.92L-40.71,-23.23L-38.20,-7.62L-38.59,4.76L-42.93,22.37L-48.06,30.27L-52.81,36.35L-55.81,38.86L-62.42,47.91L-74.31,55.01L-86.70,59.59L-94.79,60.93L-111.77,58.16" />
        <path d="M-31.24,-8.31L-33.96,-9.82" />
        <path d="M-33.96,-9.82L-34.32,-10.47L-33.96,-9.82" />
        <path d="M-33.96,-9.82L-24.93,3.09L-20.43,11.84L-16.35,25.84L-15.63,37.50L-16.84,43.56L-21.88,54.66L-32.89,71.52L-44.02,80.83L-57.67,88.50L-77.56,94.55L-90.11,96.80L-105.76,96.95L-112.82,96.16L-118.76,94.17L-123.29,91.55L-130.67,83.84" />
        <path d="M-169.42,83.22L-171.32,84.92L-171.80,92.53L-168.59,103.76L-166.13,109.32L-160.58,119.39L-145.29,135.17L-141.72,137.20L-125.78,141.33L-103.16,145.22L-82.74,142.59L-70.92,140.13L-53.29,133.95L-43.62,129.50L-33.97,123.56L-18.91,110.59L-4.90,96.56L-1.41,91.91L0.00,80.51L2.94,67.43L2.41,53.59L0.40,43.65L-4.69,32.95L-10.70,24.74L-14.36,22.92L-18.29,23.01" />
      </g>
      <g id="f10" style="--index:10; opacity:0;" class="frame">
        <path d="M-250.65,48.52" />
        <path d="M-231.58,112.02L-232.64,114.36" />
        <path d="M-183.69,105.89L-183.85,107.86" />
        <path d="M-140.56,98.93" />
        <path d="M-190.32,-74.42L-191.97,-70.55" />
        <path d="M-93.40,-68.03L-93.02,-64.94" />
        <path d="M-168.86,-109.31" />
        <path d="M-122.25,-88.49L-122.28,-86.60" />
        <path d="M-168.01,-204.59L-168.07,-201.88" />
        <path d="M-65.82,-167.30L-65.77,-165.47" />
        <path d="M-251.48,48.31L-247.61,47.08L-244.25,43.93L-241.12,39.95L-236.27,29.59L-232.67,12.88L-232.29,-24.40L-227.56,-41.12L-220.92,-51.25L-213.38,-59.47L-199.21,-69.87L-192.57,-71.79" />
        <path d="M-244.08,50.52" />
        <path d="M-248.47,48.24L-246.81,47.52L-243.55,47.89L-239.57,49.94L-232.54,56.75L-229.74,62.86L-227.29,77.96L-227.11,90.34L-227.71,96.34L-230.23,103.96L-231.34,111.31" />
        <path d="M-231.60,114.28L-224.77,101.70L-218.36,85.95L-210.85,77.14L-204.56,74.72L-199.95,74.82L-196.31,76.37L-191.15,82.22L-187.84,88.96L-184.03,107.60" />
        <path d="M-184.15,107.71L-182.20,106.36L-180.44,103.70L-177.76,92.02L-175.13,85.76L-170.29,80.82L-164.08,77.77L-156.50,79.23L-154.22,80.54L-149.78,85.06L-146.03,93.53L-141.89,97.41" />
        <path d="M-108.58,-78.89" />
        <path d="M-99.97,-54.47" />
        <path d="M-105.22,-35.38" />
        <path d="M-120.07,-14.79" />
        <path d="M-153.97,-21.72" />
        <path d="M-175.71,-18.92" />
        <path d="M-195.64,-38.21" />
        <path d="M-188.71,-54.34" />
        <path d="M-188.17,-57.20L-187.77,-55.19" />
        <path d="M-107.07,-80.36L-102.06,-78.25L-96.13,-73.14L-94.18,-69.45L-93.41,-64.77L-94.57,-58.89L-95.59,-57.24L-98.74,-55.54" />
        <path d="M-99.20,-52.73L-96.53,-50.88L-94.83,-48.48L-93.14,-43.09L-92.91,-39.22L-95.74,-34.41L-99.25,-33.17L-104.34,-33.11" />
        <path d="M-118.93,-16.23L-118.09,-13.63L-115.83,-12.17L-113.26,-11.86L-109.38,-12.31L-104.25,-16.37L-102.22,-20.21L-101.31,-25.29L-101.83,-28.94L-105.30,-34.91" />
        <path d="M-152.78,-21.60L-152.62,-19.20L-148.32,-9.98L-142.45,-5.26L-137.93,-3.76L-133.86,-4.70L-127.90,-7.90L-122.81,-13.14L-122.10,-17.68" />
        <path d="M-174.07,-20.80L-175.00,-19.15L-174.85,-16.49L-172.74,-12.08L-169.50,-9.35L-162.19,-7.77L-157.44,-9.36L-154.86,-12.31L-153.53,-16.77L-153.73,-21.27" />
        <path d="M-173.82,-20.99L-179.71,-17.12L-183.22,-16.81L-187.70,-17.80L-191.96,-20.69L-196.15,-27.02L-197.34,-30.44L-196.71,-34.84L-193.84,-41.15" />
        <path d="M-192.98,-40.65L-195.84,-42.51L-198.01,-46.00L-198.05,-51.31L-196.61,-53.46L-193.91,-55.19L-190.87,-55.86L-187.66,-55.39" />
        <path d="M-176.14,-131.20L-173.60,-132.68" />
        <path d="M-143.49,-117.88L-142.27,-116.34L-140.65,-115.75" />
        <path d="M-108.03,-106.61L-106.57,-104.02" />
        <path d="M-188.24,-55.58L-192.39,-62.25L-192.25,-68.43L-188.86,-77.69L-184.20,-83.11L-183.20,-91.57L-183.67,-96.17L-187.90,-106.27L-187.90,-117.34L-185.81,-124.83L-181.71,-129.88L-176.67,-132.97L-168.96,-133.99L-161.51,-131.61L-154.65,-126.77L-149.94,-121.14L-143.62,-116.99L-138.05,-116.03L-132.12,-113.20L-125.64,-112.71L-119.70,-113.40L-115.80,-112.34L-112.40,-110.06L-106.24,-101.31L-104.83,-95.02L-105.61,-87.39L-109.34,-82.07L-111.44,-80.74" />
        <path d="M-179.51,-141.98L-179.76,-139.87" />
        <path d="M-183.64,-178.15L-183.36,-176.19" />
        <path d="M-169.33,-109.42L-177.04,-123.60L-179.59,-131.53L-179.63,-144.60L-177.83,-152.91L-177.73,-160.37L-180.22,-169.87L-182.95,-175.28L-183.49,-178.80L-182.48,-185.12L-177.65,-194.66L-169.13,-202.24" />
        <path d="M-102.45,-115.29" />
        <path d="M-73.89,-136.47" />
        <path d="M-121.16,-85.52L-121.29,-87.57L-118.98,-94.15L-112.75,-103.96L-107.66,-109.92L-99.47,-118.00L-78.25,-131.27L-74.73,-135.21L-71.92,-140.52L-70.66,-144.91L-70.24,-159.99L-68.26,-164.31L-66.51,-165.91" />
        <path d="M-138.38,101.16L-139.15,96.57L-138.76,91.54L-135.50,82.52L-130.24,74.12L-116.34,61.45L-104.31,47.60L-97.98,37.78L-91.22,20.89L-88.58,3.94L-89.09,-5.81L-92.85,-21.71L-95.90,-27.13L-99.85,-31.84" />
        <path d="M-70.38,-34.28L-68.62,-29.06" />
        <path d="M-61.72,47.77L-57.18,44.70" />
        <path d="M-58.77,45.65L-56.94,43.59" />
        <path d="M-15.15,45.09L-14.65,37.77" />
        <path d="M-15.15,40.49L-14.83,35.80" />
        <path d="M-116.16,146.31L-111.03,147.41L-104.09,146.97" />
        <path d="M-90.62,-65.90L-86.96,-64.18L-83.12,-61.11L-77.09,-53.69L-70.49,-41.31L-67.41,-29.01L-67.96,-18.20L-72.51,2.88L-78.93,15.23L-86.74,23.14L-89.48,24.73" />
        <path d="M-76.54,-57.78L-71.74,-59.28L-68.03,-59.40L-63.63,-58.10L-59.45,-55.74L-52.51,-49.19L-44.56,-36.79L-42.11,-30.97L-39.43,-20.68L-37.82,-10.82L-38.35,4.17L-42.26,19.14L-49.28,33.17L-53.04,38.71L-58.43,44.89L-70.45,53.15L-82.21,58.36L-92.35,60.03L-104.23,60.18L-111.73,56.59" />
        <path d="M-35.77,-12.86L-32.13,-9.79L-25.23,-1.04L-21.24,5.88L-16.87,21.48L-15.58,29.97L-16.11,41.64L-19.78,52.04L-23.87,59.77L-33.11,70.60L-41.39,77.58L-63.55,90.82L-77.70,94.94L-91.44,96.92L-99.58,97.35L-114.59,95.70L-122.27,92.15L-129.93,87.46L-133.56,82.31L-133.52,80.17" />
        <path d="M-170.06,85.76L-171.66,90.85L-172.15,103.96L-171.51,106.95L-167.76,114.74L-164.93,119.66L-157.70,128.75L-150.09,135.38L-142.80,139.51L-128.75,144.08L-114.76,147.24L-102.14,147.60L-79.60,144.86L-70.77,142.70L-53.64,136.17L-43.51,130.63L-25.59,118.85L-12.63,105.82L-5.45,95.32L-1.27,86.71L2.34,68.17L0.30,49.09L-2.05,41.77L-6.57,32.72L-12.58,27.20L-16.75,25.40" />
      </g>
      <g id="f11" style="--index:11; opacity:0;" class="frame">
        <path d="M-250.43,47.30L-250.25,49.68" />
        <path d="M-235.10,104.46L-235.68,106.40" />
        <path d="M-184.63,105.63" />
        <path d="M-138.32,98.74L-138.32,100.53" />
        <path d="M-191.04,-74.19L-192.64,-71.31" />
        <path d="M-93.89,-67.36L-93.79,-64.44" />
        <path d="M-169.30,-109.00" />
        <path d="M-123.13,-88.35" />
        <path d="M-168.42,-204.52" />
        <path d="M-67.04,-167.77" />
        <path d="M-66.02,-167.48L-66.19,-165.59" />
        <path d="M-250.10,47.87L-242.58,41.39L-237.81,31.81L-234.20,21.45L-232.84,14.21L-231.99,2.23L-233.84,-29.71L-233.22,-35.47L-231.11,-41.48L-225.84,-51.66L-218.89,-60.56L-213.58,-65.39L-207.49,-69.23L-198.28,-72.61L-192.84,-73.07" />
        <path d="M-249.73,49.18L-247.25,46.66L-244.00,45.46L-239.72,44.86L-237.06,45.53L-231.90,49.60L-226.72,60.59L-224.76,73.32L-225.44,85.81L-230.19,99.23L-233.97,104.44" />
        <path d="M-234.56,106.35L-228.09,103.09L-223.92,99.42L-217.87,86.94L-215.42,83.46L-209.74,78.73L-203.20,75.97L-200.61,76.51L-197.58,78.60L-194.04,81.58L-191.18,85.48L-187.57,95.80L-185.61,106.29" />
        <path d="M-182.36,106.61L-178.89,103.63L-177.23,100.85L-174.68,88.59L-173.13,85.22L-167.04,80.49L-161.64,78.60L-158.08,78.33L-152.12,80.40L-147.69,86.35L-144.15,93.80L-139.71,97.31" />
        <path d="M-108.50,-78.61" />
        <path d="M-99.27,-54.66" />
        <path d="M-105.08,-35.31" />
        <path d="M-119.95,-14.12" />
        <path d="M-153.88,-20.63" />
        <path d="M-176.65,-17.42" />
        <path d="M-194.50,-38.95" />
        <path d="M-188.67,-54.34" />
        <path d="M-188.20,-57.48" />
        <path d="M-107.25,-78.19L-103.34,-77.77L-99.98,-76.27L-95.20,-71.24L-94.20,-69.21L-93.16,-63.61L-93.57,-61.08L-94.88,-58.06L-98.57,-53.14" />
        <path d="M-99.47,-53.11L-96.61,-50.50L-93.93,-45.28L-92.98,-39.77L-93.38,-37.46L-94.77,-34.71L-99.47,-31.99L-102.53,-31.93L-104.63,-34.31" />
        <path d="M-118.13,-15.73L-116.52,-12.95L-112.39,-11.88L-107.22,-12.73L-103.08,-16.56L-101.11,-20.86L-101.41,-27.43L-105.50,-33.19" />
        <path d="M-152.69,-21.80L-153.75,-18.72L-153.70,-15.50L-151.21,-9.24L-147.42,-6.35L-139.46,-3.16L-131.58,-3.97L-127.05,-6.67L-122.53,-12.16L-121.97,-17.44" />
        <path d="M-175.02,-19.91L-175.38,-15.21L-172.94,-10.42L-169.29,-7.61L-166.06,-6.37L-163.15,-6.61L-157.34,-9.36L-155.23,-12.87L-154.25,-17.77" />
        <path d="M-175.86,-19.65L-176.75,-17.85L-181.53,-15.84L-188.59,-17.56L-190.78,-19.33L-194.65,-26.31L-195.74,-31.08L-194.99,-34.82L-191.53,-41.83" />
        <path d="M-190.31,-42.52L-194.19,-43.07L-196.96,-44.68L-198.21,-47.18L-198.13,-51.10L-196.48,-54.88L-193.31,-57.90L-190.34,-58.70L-187.51,-57.33" />
        <path d="M-176.09,-129.73L-173.89,-130.24" />
        <path d="M-144.68,-117.68L-142.29,-115.92" />
        <path d="M-106.67,-107.80L-105.31,-105.20" />
        <path d="M-188.51,-56.46L-191.26,-59.94L-192.81,-67.04L-191.05,-74.85L-184.71,-85.03L-183.25,-91.55L-183.60,-101.85L-186.82,-112.72L-186.22,-118.19L-184.66,-122.42L-181.05,-127.34L-176.35,-130.76L-172.54,-132.08L-164.61,-131.51L-160.73,-130.23L-154.28,-126.10L-147.81,-119.02L-142.02,-115.09L-129.27,-110.72L-121.28,-111.22L-116.34,-110.54L-110.37,-107.67L-108.06,-105.30L-105.27,-100.41L-103.40,-93.23L-104.52,-86.19L-108.43,-81.19L-109.95,-80.39" />
        <path d="M-184.25,-140.76" />
        <path d="M-175.54,-179.29L-174.98,-177.02" />
        <path d="M-169.21,-109.94L-172.73,-113.55L-179.64,-123.90L-182.25,-131.95L-183.12,-138.09L-181.07,-150.31L-174.41,-174.80L-174.32,-177.96L-176.68,-189.62L-176.21,-193.04L-173.91,-198.32L-168.75,-203.95" />
        <path d="M-98.22,-109.80L-95.51,-111.22" />
        <path d="M-77.94,-138.54L-78.56,-140.82" />
        <path d="M-122.04,-88.44L-112.05,-96.64L-96.31,-107.67L-87.29,-117.50L-81.30,-127.49L-77.97,-135.93L-76.82,-140.04L-76.31,-146.69L-73.69,-155.20L-67.24,-165.91" />
        <path d="M-137.54,99.34L-137.92,91.22L-133.64,81.32L-128.01,74.32L-119.06,68.05L-111.99,61.08L-104.17,50.89L-98.19,41.63L-89.64,18.82L-87.34,7.07L-88.19,-2.18L-93.60,-21.74L-99.07,-30.46L-101.03,-32.01" />
        <path d="M-68.49,-34.25L-66.68,-28.55" />
        <path d="M-61.86,47.17L-57.59,43.23" />
        <path d="M-16.79,46.58L-15.59,43.37L-15.63,38.79" />
        <path d="M-114.41,146.67L-104.59,147.93" />
        <path d="M-92.08,-66.53L-86.09,-63.18L-75.12,-50.92L-70.05,-40.73L-66.98,-27.24L-67.92,-16.93L-74.26,1.53L-82.72,17.78L-85.84,22.16L-89.46,24.56" />
        <path d="M-77.31,-56.20L-74.15,-59.06L-70.64,-59.43L-62.79,-57.27L-60.39,-55.84L-56.18,-52.04L-52.65,-47.51L-42.33,-30.91L-39.79,-23.07L-37.31,-9.82L-37.56,3.56L-41.19,19.84L-46.04,28.62L-60.00,45.77L-71.38,53.88L-85.71,59.14L-95.19,60.43L-100.41,60.05L-110.33,55.13" />
        <path d="M-32.11,-11.04" />
        <path d="M-35.69,-14.20L-29.24,-8.98L-24.37,-2.45L-21.11,3.63L-19.27,11.13L-19.34,17.02L-16.37,39.05L-16.70,42.80L-22.92,58.61L-31.16,70.64L-57.75,89.27L-63.34,92.41L-76.89,96.76L-82.93,97.41L-94.99,96.95L-108.90,95.04L-115.23,93.17L-123.69,87.52L-130.02,78.30" />
        <path d="M-171.77,93.70L-171.79,101.94L-169.31,110.58L-166.34,116.05L-159.17,124.29L-147.46,133.73L-139.34,139.78L-130.57,143.60L-114.72,147.21L-91.69,146.94L-73.54,142.84L-57.89,137.10L-36.24,124.88L-21.44,114.29L-11.28,103.92L-5.18,94.85L-0.68,84.09L1.91,75.34L2.72,68.05L2.14,53.94L0.54,42.43L-1.83,35.63L-5.17,29.69L-13.42,19.80L-17.88,16.30" />
      </g>
    </g>
  </g>
</svg>