<?xml version="1.0" encoding="utf-8"?>
<svg width="2388" height="1668" viewBox="-1194 -834 2388 1668" xmlns="http://www.w3.org/2000/svg">
  <style>
svg { background-color:#FFFFFF; }

#looom {
--version:2; --tempo:120; --musicTime:0; 
}

#t0 {
--visible:1; --timeOffset:39; --speed:24; --bookmarkIndex:-1; --latched:0; --playMode:0; --masked:0; --blendMode:0; --pressureEnabled:0; 
stroke:#5CB500; stroke-opacity:1; fill-opacity:0; stroke-width:3.055403; stroke-linecap:round; stroke-linejoin:round;
}
@keyframes t0 { 0% { opacity: 1; } 4.166667% { opacity: 0; } }
#t0 .frame { animation:t0 1s calc(var(--index) * 0.04166667s) steps(1) infinite; }

#t1 {
--visible:1; --timeOffset:28.99982; --speed:24; --bookmarkIndex:-1; --latched:0; --playMode:0; --masked:0; --blendMode:0; --pressureEnabled:0; 
stroke:#000000; stroke-opacity:1; fill-opacity:0; stroke-width:1; stroke-linecap:round; stroke-linejoin:round;
}
@keyframes t1 { 0% { opacity: 1; } 4.166667% { opacity: 0; } }
#t1 .frame { animation:t1 1s calc(var(--index) * 0.04166667s) steps(1) infinite; }

</style>
  <g id="w0" transform="translate(-70.00 -76.50) scale(0.80 0.80) rotate(-11.83)" class="weave">
    <g id="t0" transform="translate(38.06 -29.61)" class="thread">
      <g id="f0" style="--index:0; opacity:1;" class="frame">
        <path d="M-99.79,65.49L-100.76,67.00" />
        <path d="M-163.25,-10.76" />
        <path d="M-124.82,-97.71" />
        <path d="M-44.79,-44.49" />
        <path d="M7.21,-81.42" />
        <path d="M7.47,-81.39" />
        <path d="M28.80,-69.47" />
        <path d="M20.77,-35.08" />
        <path d="M-13.69,43.78" />
        <path d="M55.36,136.01" />
        <path d="M102.12,40.43" />
        <path d="M-163.05,-11.39L-163.21,-9.58" />
        <path d="M-124.57,-98.38L-125.03,-96.75" />
        <path d="M-44.13,-44.62L-44.85,-43.48" />
        <path d="M7.95,-82.14L6.85,-80.75" />
        <path d="M8.30,-82.48L7.32,-81.31" />
        <path d="M29.61,-70.52L28.61,-68.71" />
        <path d="M21.51,-36.10L20.48,-34.84" />
        <path d="M-11.72,42.53L-13.51,44.50" />
        <path d="M102.94,39.49L101.39,41.69" />
        <path d="M56.60,135.11L55.76,136.18" />
        <path d="M-100.43,66.45L-101.05,68.23" />
      </g>
      <g id="f1" style="--index:1; opacity:0;" class="frame">
        <path d="M-108.13,73.32" />
        <path d="M-162.77,-11.64" />
        <path d="M-125.15,-95.94" />
        <path d="M-44.43,-43.86" />
        <path d="M7.50,-81.69" />
        <path d="M29.02,-69.65" />
        <path d="M21.17,-35.84" />
        <path d="M-13.51,43.60" />
        <path d="M53.77,140.59" />
        <path d="M101.47,41.02" />
        <path d="M-162.53,-12.31L-162.76,-10.53" />
        <path d="M-124.40,-96.82L-124.96,-95.32" />
        <path d="M-43.81,-44.52L-44.40,-43.20" />
        <path d="M8.13,-82.34L7.04,-81.13" />
        <path d="M29.40,-70.48L28.51,-69.17" />
        <path d="M29.35,-70.57L28.35,-68.91" />
        <path d="M21.79,-35.81L21.02,-34.99" />
        <path d="M-12.54,42.80L-13.32,44.08" />
        <path d="M102.03,40.16L101.17,41.43" />
        <path d="M54.90,138.15L53.75,140.15" />
        <path d="M-106.95,71.79L-108.07,73.64" />
      </g>
      <g id="f2" style="--index:2; opacity:0;" class="frame">
        <path d="M-115.03,75.91" />
        <path d="M-162.77,-9.99" />
        <path d="M-124.92,-93.95" />
        <path d="M-44.26,-44.20" />
        <path d="M7.18,-81.52" />
        <path d="M29.25,-70.09" />
        <path d="M18.50,-35.11" />
        <path d="M21.67,-35.91" />
        <path d="M-13.70,43.88" />
        <path d="M53.59,143.03" />
        <path d="M102.08,40.56" />
        <path d="M-162.43,-10.90L-162.69,-9.02" />
        <path d="M-124.62,-94.36L-124.90,-93.17" />
        <path d="M-43.76,-44.59L-44.28,-43.32" />
        <path d="M8.31,-82.42L7.16,-81.12" />
        <path d="M29.83,-70.78L29.07,-69.60" />
        <path d="M29.95,-70.77L29.17,-69.04" />
        <path d="M21.64,-36.21L20.17,-35.03" />
        <path d="M-12.58,42.86L-13.49,44.60" />
        <path d="M103.03,39.71L102.10,41.18" />
        <path d="M53.73,142.63L52.91,144.59" />
        <path d="M-113.85,75.02L-115.11,76.90" />
      </g>
      <g id="f3" style="--index:3; opacity:0;" class="frame">
        <path d="M-120.48,77.88" />
        <path d="M-162.87,-7.96" />
        <path d="M-124.73,-90.48" />
        <path d="M-44.84,-44.72" />
        <path d="M7.06,-82.62" />
        <path d="M29.74,-69.71" />
        <path d="M18.61,-35.49" />
        <path d="M-13.42,43.41" />
        <path d="M54.59,142.61" />
        <path d="M102.35,40.48" />
        <path d="M-162.51,-8.68L-162.83,-6.90" />
        <path d="M-124.54,-91.17L-124.97,-89.91" />
        <path d="M-43.95,-45.31L-44.82,-44.00" />
        <path d="M8.24,-82.38" />
        <path d="M8.39,-83.58L6.58,-81.54" />
        <path d="M29.96,-70.97L29.07,-69.53" />
        <path d="M30.91,-71.14L29.88,-69.50" />
        <path d="M19.82,-36.06L18.19,-35.12" />
        <path d="M-12.80,43.23L-13.36,44.41" />
        <path d="M103.52,39.38L102.18,41.29" />
        <path d="M55.21,142.95" />
        <path d="M-119.45,76.68L-120.19,78.77" />
      </g>
      <g id="f4" style="--index:4; opacity:0;" class="frame">
        <path d="M-122.32,78.22" />
        <path d="M-162.83,-5.95" />
        <path d="M-124.70,-85.67" />
        <path d="M-45.23,-44.33" />
        <path d="M5.84,-84.97L5.41,-86.26" />
        <path d="M31.27,-70.25" />
        <path d="M17.21,-34.94" />
        <path d="M-13.08,42.92" />
        <path d="M-13.67,43.29" />
        <path d="M55.89,141.45" />
        <path d="M101.81,40.30" />
        <path d="M-162.61,-6.86L-162.76,-5.43" />
        <path d="M-124.34,-87.47L-125.02,-85.21" />
        <path d="M-44.88,-45.11L-45.48,-43.87" />
        <path d="M5.75,-86.35L4.67,-85.06" />
        <path d="M31.22,-70.97L30.21,-69.67" />
        <path d="M31.86,-70.87L31.03,-69.55" />
        <path d="M18.77,-35.80L17.11,-34.82" />
        <path d="M-12.35,42.32L-13.23,43.59" />
        <path d="M102.75,39.57L101.79,41.23" />
        <path d="M57.36,140.76L56.07,142.49" />
        <path d="M-121.07,77.07L-122.54,79.02" />
      </g>
      <g id="f5" style="--index:5; opacity:0;" class="frame">
        <path d="M-122.61,78.56" />
        <path d="M-162.87,-3.39" />
        <path d="M-124.72,-82.78" />
        <path d="M-46.03,-43.94" />
        <path d="M1.99,-87.28" />
        <path d="M34.22,-70.85" />
        <path d="M17.13,-34.87" />
        <path d="M-12.81,42.52" />
        <path d="M-13.46,43.08" />
        <path d="M54.39,140.95L55.06,139.86" />
        <path d="M101.14,40.04" />
        <path d="M100.84,41.16" />
        <path d="M-162.47,-4.23L-163.15,-2.38" />
        <path d="M-124.30,-83.15L-124.91,-81.66" />
        <path d="M-124.25,-82.87L-124.60,-81.58" />
        <path d="M-45.44,-44.56L-46.13,-43.43" />
        <path d="M1.98,-88.25L0.82,-87.08" />
        <path d="M32.57,-70.88L31.90,-70.18" />
        <path d="M34.31,-70.96L32.77,-69.73" />
        <path d="M18.24,-35.88L16.75,-34.39" />
        <path d="M-12.11,42.25L-12.99,43.86" />
        <path d="M102.29,39.66L101.04,41.26" />
        <path d="M55.82,139.31L54.72,141.12" />
        <path d="M-120.99,77.08L-121.96,78.48" />
      </g>
      <g id="f6" style="--index:6; opacity:0;" class="frame">
        <path d="M-121.86,78.93" />
        <path d="M-163.22,-0.80" />
        <path d="M-124.37,-80.58" />
        <path d="M-46.71,-43.68" />
        <path d="M-1.30,-87.21" />
        <path d="M37.77,-71.83" />
        <path d="M16.34,-34.43" />
        <path d="M-11.68,42.03" />
        <path d="M54.78,140.29" />
        <path d="M102.00,41.63" />
        <path d="M101.14,41.75" />
        <path d="M-163.06,-1.23L-163.23,0.13" />
        <path d="M-124.15,-81.37L-124.51,-79.98" />
        <path d="M-46.15,-44.34L-46.72,-43.33" />
        <path d="M-0.21,-88.11L-1.13,-86.65" />
        <path d="M39.10,-72.91L37.52,-71.32" />
        <path d="M39.59,-73.00L38.12,-71.45" />
        <path d="M17.70,-35.35L16.33,-34.23" />
        <path d="M-10.49,41.04L-11.53,42.67" />
        <path d="M102.09,40.48L101.48,41.87" />
        <path d="M56.15,138.14L55.15,140.34" />
        <path d="M-120.83,76.94L-121.82,78.83" />
      </g>
      <g id="f7" style="--index:7; opacity:0;" class="frame">
        <path d="M-122.23,78.60" />
        <path d="M-163.95,1.56" />
        <path d="M-124.57,-79.32" />
        <path d="M-48.58,-41.69" />
        <path d="M-6.56,-84.85" />
        <path d="M42.52,-72.41" />
        <path d="M15.91,-34.47" />
        <path d="M-11.42,41.70" />
        <path d="M55.00,139.46" />
        <path d="M103.81,40.30" />
        <path d="M-163.26,0.63L-163.80,2.66" />
        <path d="M-123.54,-80.25L-124.12,-78.80" />
        <path d="M-48.04,-42.77L-48.73,-41.53" />
        <path d="M-4.85,-85.94L-6.45,-84.36" />
        <path d="M43.46,-72.96L42.45,-71.76" />
        <path d="M43.45,-72.84L42.09,-71.38" />
        <path d="M17.30,-35.13L15.75,-34.02" />
        <path d="M-10.46,41.09L-11.44,42.54" />
        <path d="M104.11,39.82L103.23,41.23" />
        <path d="M55.83,137.70L54.84,140.20" />
        <path d="M-120.55,77.23L-121.49,78.88" />
      </g>
      <g id="f8" style="--index:8; opacity:0;" class="frame">
        <path d="M-121.44,78.97" />
        <path d="M-122.22,79.25" />
        <path d="M-165.39,4.97" />
        <path d="M-124.43,-80.29" />
        <path d="M-52.07,-37.96" />
        <path d="M-7.80,-81.36" />
        <path d="M50.09,-74.51" />
        <path d="M14.59,-33.81" />
        <path d="M-10.72,41.27" />
        <path d="M54.07,139.14" />
        <path d="M101.29,41.20" />
        <path d="M-164.91,4.08L-165.69,6.06" />
        <path d="M-124.32,-81.05L-124.86,-79.01" />
        <path d="M-51.84,-38.76L-52.61,-37.21" />
        <path d="M-6.88,-82.47L-7.88,-80.86" />
        <path d="M51.26,-75.30L50.28,-74.07" />
        <path d="M51.06,-75.15L49.94,-73.96" />
        <path d="M15.86,-34.50L14.56,-33.64" />
        <path d="M-9.64,40.47L-10.49,41.74" />
        <path d="M102.04,40.37L101.19,41.61" />
        <path d="M55.27,138.05L54.55,139.77" />
        <path d="M-120.35,77.61L-120.94,79.09" />
      </g>
      <g id="f9" style="--index:9; opacity:0;" class="frame">
        <path d="M-121.26,79.15L-122.31,81.84" />
        <path d="M-165.63,7.09" />
        <path d="M-123.99,-81.76" />
        <path d="M-58.07,-34.33" />
        <path d="M-5.53,-75.49" />
        <path d="M54.92,-75.49" />
        <path d="M13.06,-33.20" />
        <path d="M-9.97,40.36" />
        <path d="M54.57,138.43" />
        <path d="M102.05,40.88" />
        <path d="M-165.57,6.43L-165.81,8.10" />
        <path d="M-123.84,-82.60L-124.37,-80.39" />
        <path d="M-57.62,-35.39L-58.09,-34.22" />
        <path d="M-4.17,-76.37L-5.63,-74.45" />
        <path d="M56.10,-76.43L53.68,-74.37" />
        <path d="M56.16,-75.91L55.29,-75.17" />
        <path d="M14.17,-33.82L12.89,-32.47" />
        <path d="M-9.22,39.81L-9.85,40.87" />
        <path d="M102.52,40.14L101.48,41.84" />
        <path d="M55.45,136.88L54.26,139.28" />
        <path d="M-120.34,78.71L-121.62,81.01" />
      </g>
      <g id="f10" style="--index:10; opacity:0;" class="frame">
        <path d="M-120.60,79.77" />
        <path d="M-165.78,8.55" />
        <path d="M-123.97,-83.44" />
        <path d="M-123.80,-87.23" />
        <path d="M-68.67,-32.79L-70.09,-33.79" />
        <path d="M-2.39,-73.01" />
        <path d="M60.87,-76.49" />
        <path d="M11.27,-32.35" />
        <path d="M2.21,30.27" />
        <path d="M55.51,135.43" />
        <path d="M101.44,40.99" />
        <path d="M-165.37,7.65L-165.70,9.52" />
        <path d="M-123.28,-86.35L-124.06,-83.58" />
        <path d="M-68.48,-33.71L-69.12,-32.64" />
        <path d="M-0.84,-73.43L-2.17,-71.89" />
        <path d="M61.36,-76.93L59.98,-75.73" />
        <path d="M61.68,-76.52L60.79,-75.71" />
        <path d="M12.93,-33.28L11.34,-32.18" />
        <path d="M2.68,29.94L1.95,30.93" />
        <path d="M102.00,40.52L101.33,41.66" />
        <path d="M56.32,134.34L55.43,136.18" />
        <path d="M-119.61,79.51L-120.26,80.98" />
      </g>
      <g id="f11" style="--index:11; opacity:0;" class="frame">
        <path d="M-119.66,80.32L-119.80,82.38" />
        <path d="M-165.80,8.78" />
        <path d="M-123.80,-87.23" />
        <path d="M-123.80,-90.62" />
        <path d="M-76.74,-36.76L-77.66,-38.40" />
        <path d="M1.32,-71.94" />
        <path d="M62.37,-77.03" />
        <path d="M10.34,-31.92" />
        <path d="M17.22,15.54L17.65,14.37L18.89,13.90" />
        <path d="M55.56,129.22" />
        <path d="M99.00,41.77" />
        <path d="M-165.51,7.88L-165.90,9.62" />
        <path d="M-165.90,9.62L-165.90,9.62" />
        <path d="M-165.90,9.62L-165.84,9.40" />
        <path d="M-123.52,-89.85L-123.99,-87.64" />
        <path d="M-76.58,-38.25L-77.33,-36.64" />
        <path d="M2.75,-72.93L1.38,-71.16" />
        <path d="M63.45,-77.52L61.61,-76.15" />
        <path d="M11.29,-32.64L10.57,-31.79" />
        <path d="M11.44,-32.84L10.85,-32.23" />
        <path d="M19.43,13.12L18.21,14.56" />
        <path d="M99.44,41.90L98.13,43.34" />
        <path d="M56.39,128.00L55.00,130.54" />
        <path d="M-118.32,79.88L-119.27,81.72" />
      </g>
      <g id="f12" style="--index:12; opacity:0;" class="frame">
        <path d="M-117.96,81.08L-117.93,82.82" />
        <path d="M-165.77,8.85" />
        <path d="M-123.80,-90.62" />
        <path d="M-124.22,-93.32" />
        <path d="M-83.84,-50.43" />
        <path d="M5.27,-74.05" />
        <path d="M62.64,-77.44" />
        <path d="M10.29,-32.16" />
        <path d="M26.47,7.60" />
        <path d="M56.71,120.04L57.06,117.80" />
        <path d="M95.81,43.13" />
        <path d="M-165.35,7.53L-165.81,9.55" />
        <path d="M-165.81,9.55L-165.81,9.55" />
        <path d="M-165.81,9.55L-165.78,9.44" />
        <path d="M-123.93,-93.29L-124.05,-91.55" />
        <path d="M-83.30,-50.93L-84.19,-49.51" />
        <path d="M5.95,-74.60L4.93,-72.95" />
        <path d="M63.90,-77.96L61.72,-76.56" />
        <path d="M11.80,-32.77L10.78,-31.95" />
        <path d="M27.18,6.98L25.70,8.39" />
        <path d="M96.23,42.26L95.30,43.87" />
        <path d="M57.83,118.42L57.28,119.53" />
        <path d="M-116.43,81.54L-117.78,83.43" />
      </g>
      <g id="f13" style="--index:13; opacity:0;" class="frame">
        <path d="M-113.79,79.41L-114.24,82.39" />
        <path d="M-165.41,8.55" />
        <path d="M-124.64,-94.80" />
        <path d="M-84.01,-64.48L-83.19,-66.57" />
        <path d="M7.27,-77.01" />
        <path d="M62.03,-77.23" />
        <path d="M11.92,-32.69" />
        <path d="M32.74,2.19" />
        <path d="M57.08,108.01L57.69,105.18" />
        <path d="M90.61,44.57" />
        <path d="M-165.18,7.83L-165.44,9.36" />
        <path d="M-124.14,-95.27L-124.34,-93.47" />
        <path d="M-82.84,-66.37L-83.59,-64.90" />
        <path d="M7.90,-77.41L6.69,-75.95" />
        <path d="M63.11,-77.78L61.45,-76.56" />
        <path d="M12.29,-33.03L11.76,-31.98" />
        <path d="M33.74,1.20L32.23,2.97" />
        <path d="M91.71,43.96L90.79,44.70" />
        <path d="M57.91,105.01L56.62,106.83" />
        <path d="M-113.09,79.47L-114.16,81.73" />
      </g>
      <g id="f14" style="--index:14; opacity:0;" class="frame">
        <path d="M-107.17,74.92L-106.49,77.62" />
        <path d="M-167.03,8.66" />
        <path d="M-165.48,8.88" />
        <path d="M-124.72,-95.37" />
        <path d="M-77.81,-75.32" />
        <path d="M7.56,-79.61" />
        <path d="M58.62,-76.02" />
        <path d="M13.82,-33.62" />
        <path d="M34.81,0.56" />
        <path d="M58.25,98.43L58.50,96.48" />
        <path d="M87.10,45.87" />
        <path d="M-165.82,7.87L-166.07,9.53" />
        <path d="M-124.18,-95.69" />
        <path d="M-124.19,-96.62L-124.65,-94.47" />
        <path d="M-77.49,-75.59L-78.03,-74.57" />
        <path d="M-77.55,-75.10L-78.24,-74.12" />
        <path d="M8.35,-80.10L7.28,-78.63" />
        <path d="M59.31,-76.74L58.05,-75.55" />
        <path d="M15.03,-34.38L13.47,-32.83" />
        <path d="M35.35,0.04L34.44,1.23" />
        <path d="M87.70,44.81L86.77,46.37" />
        <path d="M87.36,45.07L85.48,47.04" />
        <path d="M-106.56,75.73L-106.73,76.77" />
      </g>
      <g id="f15" style="--index:15; opacity:0;" class="frame">
        <path d="M-99.72,70.19" />
        <path d="M-166.84,7.73" />
        <path d="M-165.48,8.19" />
        <path d="M-125.33,-96.58" />
        <path d="M-68.75,-82.33" />
        <path d="M7.00,-81.70" />
        <path d="M51.16,-73.55" />
        <path d="M15.67,-34.33" />
        <path d="M36.55,-0.75" />
        <path d="M59.20,92.57" />
        <path d="M84.16,47.36" />
        <path d="M-166.02,6.91L-165.96,8.51" />
        <path d="M-124.68,-97.29L-125.29,-95.39" />
        <path d="M-68.06,-83.33L-69.00,-81.91" />
        <path d="M7.53,-82.48L6.85,-81.29" />
        <path d="M8.35,-82.19L6.98,-80.94" />
        <path d="M51.84,-74.11L50.78,-72.91" />
        <path d="M17.65,-34.91L15.94,-33.72" />
        <path d="M37.29,-1.54L35.63,0.02" />
        <path d="M84.90,46.63L83.79,48.38" />
        <path d="M84.66,46.81L82.51,49.03" />
        <path d="M59.84,91.25L58.95,92.80" />
        <path d="M-99.05,69.79L-100.00,71.07" />
      </g>
      <g id="f16" style="--index:16; opacity:0;" class="frame">
        <path d="M-91.02,60.58L-90.47,61.69" />
        <path d="M-166.63,7.84" />
        <path d="M-125.75,-97.64" />
        <path d="M-54.95,-81.19L-52.53,-80.73" />
        <path d="M7.16,-81.95" />
        <path d="M42.81,-71.67" />
        <path d="M17.30,-34.99" />
        <path d="M36.26,-0.52" />
        <path d="M60.15,88.95" />
        <path d="M83.31,47.94" />
        <path d="M-166.11,6.39L-166.24,8.56" />
        <path d="M-125.29,-98.36L-125.83,-96.60" />
        <path d="M-53.05,-81.31L-53.75,-79.98" />
        <path d="M8.09,-82.38L7.32,-81.21" />
        <path d="M8.35,-82.93L6.54,-81.29" />
        <path d="M42.85,-71.87L42.18,-70.62" />
        <path d="M18.94,-35.76L17.15,-34.81" />
        <path d="M37.64,-1.64L35.77,0.17" />
        <path d="M84.40,47.21L83.62,48.32" />
        <path d="M84.72,47.22L83.73,48.59" />
        <path d="M60.83,88.06L59.85,90.01" />
        <path d="M-89.91,60.87L-90.77,62.46" />
      </g>
      <g id="f17" style="--index:17; opacity:0;" class="frame">
        <path d="M-81.61,55.68" />
        <path d="M-166.09,7.44" />
        <path d="M-126.35,-97.93" />
        <path d="M-42.41,-71.17L-41.25,-69.22" />
        <path d="M6.94,-81.77" />
        <path d="M36.12,-70.70" />
        <path d="M19.29,-35.09" />
        <path d="M27.59,5.80" />
        <path d="M59.55,89.68" />
        <path d="M82.60,48.60" />
        <path d="M-165.81,6.33L-165.72,8.46" />
        <path d="M-126.14,-99.10L-126.53,-97.33" />
        <path d="M-41.73,-70.75L-42.32,-69.45" />
        <path d="M7.82,-82.28L6.99,-80.85" />
        <path d="M7.97,-82.58L7.20,-81.40" />
        <path d="M36.95,-71.29L35.60,-69.59" />
        <path d="M20.11,-36.19L19.16,-35.00" />
        <path d="M28.56,5.27L27.30,6.28" />
        <path d="M84.14,47.42L82.57,49.23" />
        <path d="M84.36,47.50L83.36,48.94" />
        <path d="M60.70,88.11L59.67,90.18" />
        <path d="M-80.40,55.42L-81.53,56.82" />
      </g>
      <g id="f18" style="--index:18; opacity:0;" class="frame">
        <path d="M-74.26,56.09L-74.44,58.01" />
        <path d="M-165.12,6.84" />
        <path d="M-126.54,-98.21" />
        <path d="M-39.99,-60.09" />
        <path d="M7.12,-81.89" />
        <path d="M34.06,-70.80" />
        <path d="M20.17,-35.70" />
        <path d="M17.90,13.90" />
        <path d="M59.63,89.49" />
        <path d="M82.52,48.65" />
        <path d="M-164.82,5.23L-165.06,7.45" />
        <path d="M-126.39,-99.71L-126.65,-97.80" />
        <path d="M-39.28,-60.59L-40.16,-59.18" />
        <path d="M8.12,-82.43L7.20,-81.11" />
        <path d="M8.43,-82.35L7.54,-81.37" />
        <path d="M34.80,-71.12L33.88,-69.77" />
        <path d="M21.26,-36.43L20.26,-35.17" />
        <path d="M18.04,13.17L17.14,14.72" />
        <path d="M83.32,48.35L81.88,49.73" />
        <path d="M60.39,88.39L59.61,90.29" />
        <path d="M-72.57,56.17L-73.93,57.16" />
      </g>
      <g id="f19" style="--index:19; opacity:0;" class="frame">
        <path d="M-71.79,55.44" />
        <path d="M-164.47,5.23" />
        <path d="M-126.09,-98.13" />
        <path d="M-126.73,-97.31" />
        <path d="M-41.11,-52.67" />
        <path d="M8.61,-82.34" />
        <path d="M31.97,-69.30" />
        <path d="M20.63,-35.69" />
        <path d="M3.65,25.97" />
        <path d="M59.19,90.96" />
        <path d="M86.16,46.74" />
        <path d="M-164.13,4.20L-164.60,6.33" />
        <path d="M-126.35,-99.25L-126.70,-97.27" />
        <path d="M-40.62,-53.20L-41.15,-52.05" />
        <path d="M8.44,-82.48L7.91,-81.18" />
        <path d="M8.65,-82.13L7.82,-80.84" />
        <path d="M32.45,-70.12L31.51,-68.72" />
        <path d="M21.99,-36.75L20.37,-35.35" />
        <path d="M4.13,25.21L3.52,26.62" />
        <path d="M87.06,45.95L85.89,47.33" />
        <path d="M59.70,89.81L59.27,90.67" />
        <path d="M60.47,88.85L59.43,91.51" />
        <path d="M-70.32,54.71L-71.77,56.41" />
      </g>
      <g id="f20" style="--index:20; opacity:0;" class="frame">
        <path d="M-73.54,50.51" />
        <path d="M-163.83,1.68" />
        <path d="M-125.58,-98.41" />
        <path d="M-126.56,-97.42" />
        <path d="M-43.42,-45.79" />
        <path d="M7.37,-81.80" />
        <path d="M30.64,-69.16" />
        <path d="M20.84,-35.80" />
        <path d="M58.53,98.55" />
        <path d="M89.57,44.80" />
        <path d="M-1.05,30.48" />
        <path d="M-163.65,0.86L-164.00,2.31" />
        <path d="M-126.32,-98.67L-126.46,-96.50" />
        <path d="M-42.90,-46.01L-43.35,-44.75" />
        <path d="M8.17,-82.44L7.11,-80.94" />
        <path d="M9.07,-82.37L7.97,-80.85" />
        <path d="M31.76,-69.95L30.52,-68.34" />
        <path d="M21.96,-36.87L20.83,-35.25" />
        <path d="M-0.34,29.23L-1.56,30.81" />
        <path d="M91.26,43.77L89.22,45.60" />
        <path d="M59.26,97.67L57.85,99.72" />
        <path d="M-72.73,50.30L-73.58,51.81" />
      </g>
      <g id="f21" style="--index:21; opacity:0;" class="frame">
        <path d="M-79.12,48.95" />
        <path d="M-163.53,-1.71" />
        <path d="M-125.68,-98.32" />
        <path d="M-44.42,-44.22" />
        <path d="M7.59,-81.97" />
        <path d="M29.32,-69.39" />
        <path d="M21.22,-35.99" />
        <path d="M-7.61,36.64" />
        <path d="M57.59,110.20" />
        <path d="M93.52,43.37" />
        <path d="M-163.32,-2.75L-163.65,-0.70" />
        <path d="M-125.31,-98.74L-125.70,-97.08" />
        <path d="M-43.81,-44.73L-44.64,-43.33" />
        <path d="M8.34,-82.44L7.35,-81.23" />
        <path d="M8.87,-82.49L7.32,-80.46" />
        <path d="M30.32,-69.88L29.07,-68.20" />
        <path d="M22.25,-36.63L20.86,-35.38" />
        <path d="M-6.25,34.86L-8.09,37.23" />
        <path d="M94.51,42.39L93.29,43.86" />
        <path d="M58.85,110.11L58.61,109.12L57.61,110.50" />
        <path d="M-78.34,48.70L-79.57,50.33" />
      </g>
      <g id="f22" style="--index:22; opacity:0;" class="frame">
        <path d="M-86.33,51.77" />
        <path d="M-164.15,-5.19" />
        <path d="M-125.79,-97.87" />
        <path d="M-44.92,-43.58" />
        <path d="M7.15,-80.80" />
        <path d="M29.47,-69.99" />
        <path d="M21.12,-35.68" />
        <path d="M-10.79,40.58" />
        <path d="M57.13,121.45" />
        <path d="M95.31,42.79" />
        <path d="M-164.15,-6.29L-164.27,-3.93" />
        <path d="M-124.95,-98.84L-125.54,-97.16" />
        <path d="M-43.97,-44.46L-44.91,-43.05" />
        <path d="M8.70,-82.36L7.64,-81.06" />
        <path d="M8.70,-82.11L7.72,-80.57" />
        <path d="M30.10,-70.65L29.35,-68.97" />
        <path d="M21.96,-36.66L20.67,-35.16" />
        <path d="M-10.32,40.41L-11.24,41.85" />
        <path d="M96.04,42.02L95.07,43.65" />
        <path d="M57.48,120.95L56.94,122.02" />
        <path d="M-86.27,51.64L-87.22,53.44" />
        <path d="M-85.59,52.01L-86.75,53.49" />
      </g>
      <g id="f23" style="--index:23; opacity:0;" class="frame">
        <path d="M-94.14,58.47L-95.14,59.92" />
        <path d="M-99.79,65.49" />
        <path d="M-163.51,-9.11" />
        <path d="M-125.27,-98.19" />
        <path d="M-44.47,-44.06" />
        <path d="M8.34,-81.90" />
        <path d="M29.26,-69.85" />
        <path d="M20.85,-35.54" />
        <path d="M-12.17,42.68" />
        <path d="M56.56,129.75" />
        <path d="M99.38,41.58" />
        <path d="M-163.29,-10.36L-163.50,-8.37" />
        <path d="M-124.96,-98.55L-125.41,-97.16" />
        <path d="M-44.04,-44.33L-44.57,-43.17" />
        <path d="M8.65,-82.13L7.64,-80.95" />
        <path d="M8.67,-82.41L6.82,-81.01" />
        <path d="M30.15,-70.90L29.01,-68.78" />
        <path d="M21.91,-36.49L21.13,-35.34" />
        <path d="M-10.70,41.22L-11.75,42.96" />
        <path d="M100.89,40.71L99.14,42.20" />
        <path d="M57.91,129.41L56.62,130.36" />
        <path d="M-96.41,61.91L-96.19,61.18" />
        <path d="M-96.19,61.18L-96.19,61.18" />
        <path d="M-96.19,61.18L-97.04,62.71" />
        <path d="M-96.49,61.69L-97.11,62.83" />
      </g>
    </g>
    <g id="t1" transform="translate(80.54 22.96)" class="thread">
      <g id="f0" style="--index:0; opacity:1;" class="frame">
        <path d="M-206.11,-56.17L-198.42,-42.04" />
        <path d="M-197.43,-40.17L-193.66,-32.01" />
        <path d="M-191.41,-27.80L-187.46,-20.06" />
        <path d="M-182.81,-11.03L-180.96,-6.34" />
        <path d="M-177.54,0.35L-175.16,6.10" />
        <path d="M-171.32,12.83L-164.17,27.84" />
        <path d="M-89.36,-97.19L-90.22,-95.81" />
        <path d="M-93.99,-87.75L-95.04,-85.35" />
        <path d="M-97.57,-79.53L-101.13,-74.14" />
        <path d="M-105.23,-65.10L-109.83,-57.02" />
        <path d="M-114.28,-50.09L-121.86,-38.00" />
        <path d="M-124.75,-33.25L-133.14,-19.40" />
        <path d="M-138.66,-9.35L-147.13,3.92" />
        <path d="M-148.13,5.60L-159.35,21.85L-162.48,24.84" />
        <path d="M-88.46,-95.82L-95.68,-99.91" />
        <path d="M-104.51,-105.10L-112.57,-109.45" />
        <path d="M-122.11,-113.96L-128.13,-116.82" />
        <path d="M-137.36,-120.63L-147.68,-126.75L-166.79,-135.16" />
        <path d="M-29.69,-88.91" />
        <path d="M-26.95,-88.37L-37.10,-89.85" />
        <path d="M-41.25,-89.89L-46.03,-90.63" />
        <path d="M-51.74,-91.56L-58.89,-92.60" />
        <path d="M-60.93,-92.79L-71.11,-93.70" />
        <path d="M-75.12,-94.12L-87.05,-95.56" />
        <path d="M-26.08,-87.19L-29.09,-88.47" />
        <path d="M-42.05,-89.32L-50.10,-90.88" />
        <path d="M-55.43,-10.21L-41.51,-44.10" />
        <path d="M-38.63,-54.84L-34.87,-64.18" />
        <path d="M-32.19,-71.16L-26.23,-88.28" />
        <path d="M-24.97,-87.67L-39.20,-139.92" />
        <path d="M-56.59,-10.11L26.47,-10.70L40.27,-11.45L48.79,-11.43L54.60,-10.50" />
        <path d="M-26.35,-87.58L-10.53,-121.56" />
        <path d="M-53.54,-11.89L-51.99,-7.87L-28.10,23.49L-9.62,53.46L9.43,80.08L12.23,85.66" />
        <path d="M-107.56,-94.38L-103.26,-94.77" />
        <path d="M-86.24,-110.79L-84.51,-115.05" />
        <path d="M-83.50,-88.70L-80.21,-82.69" />
        <path d="M-106.80,-84.47L-101.26,-88.81" />
        <path d="M-87.95,-87.93L-88.17,-82.80" />
        <path d="M8.54,85.89L8.33,83.85L11.77,80.92" />
        <path d="M11.77,80.92L15.59,79.18L17.43,79.58L20.12,82.86L21.40,88.01L19.74,92.64L16.86,95.35L13.37,96.71L10.99,95.69L8.47,92.93L5.91,85.63L7.70,82.71L11.77,80.92" />
        <path d="M11.77,80.92L13.93,80.33" />
        <path d="M-219.36,-48.35L-223.42,-53.52" />
        <path d="M-72.20,-13.64L-69.95,2.00" />
      </g>
      <g id="f1" style="--index:1; opacity:0;" class="frame">
        <path d="M-205.65,-51.76L-203.90,-47.52" />
        <path d="M-202.27,-44.53L-199.37,-39.43" />
        <path d="M-195.55,-32.78L-192.29,-25.90" />
        <path d="M-190.05,-21.67L-186.60,-14.49" />
        <path d="M-184.10,-10.26L-165.13,26.04" />
        <path d="M-89.62,-95.60L-93.14,-90.10" />
        <path d="M-94.73,-87.29L-96.99,-83.60" />
        <path d="M-99.94,-78.00L-119.12,-45.12" />
        <path d="M-120.73,-42.25L-124.22,-36.28" />
        <path d="M-127.84,-30.38L-131.74,-24.51" />
        <path d="M-134.15,-20.74L-139.59,-12.96" />
        <path d="M-144.16,-5.34L-146.97,-1.23" />
        <path d="M-150.51,5.68L-152.31,8.49" />
        <path d="M-154.21,11.37L-162.66,24.50" />
        <path d="M-90.30,-97.70L-97.45,-101.95L-104.04,-104.33" />
        <path d="M-110.48,-107.59L-116.94,-110.64" />
        <path d="M-121.09,-112.34L-128.77,-115.78" />
        <path d="M-138.60,-119.35L-146.98,-123.36" />
        <path d="M-149.60,-124.45L-158.37,-127.59L-164.00,-130.61" />
        <path d="M-28.50,-87.87L-31.78,-88.74" />
        <path d="M-38.12,-89.69L-49.80,-90.93" />
        <path d="M-58.90,-91.95L-68.41,-93.45" />
        <path d="M-75.31,-94.53L-87.62,-96.64" />
        <path d="M-52.77,-11.99L-52.23,-14.02" />
        <path d="M-50.15,-19.54L-43.76,-37.30" />
        <path d="M-41.32,-45.01L-36.79,-57.88" />
        <path d="M-33.33,-67.78L-29.00,-80.85" />
        <path d="M-25.99,-87.04L-37.74,-124.63L-42.97,-138.99" />
        <path d="M-52.74,-9.19L-41.99,-9.78L46.57,-9.85L62.64,-10.81" />
        <path d="M-26.59,-87.42L-4.96,-123.95" />
        <path d="M-4.96,-123.95L-4.96,-123.95" />
        <path d="M-4.96,-123.95L-5.38,-123.20" />
        <path d="M-52.97,-14.17L-51.87,-10.97L-26.17,30.19L-3.91,63.99L11.60,84.78" />
        <path d="M-108.85,-93.82L-104.71,-95.37" />
        <path d="M-85.95,-111.29L-84.42,-115.02" />
        <path d="M-84.20,-88.52L-81.42,-84.32" />
        <path d="M-107.06,-84.95L-101.75,-88.39" />
        <path d="M-88.83,-87.86L-89.03,-82.27" />
        <path d="M5.58,86.58L5.60,83.88L7.92,80.96L12.52,77.86L15.83,77.38L18.79,79.80L20.89,84.40L21.51,88.98L20.06,92.21L16.83,95.10L14.45,95.83L10.66,95.25L8.36,93.53L6.51,89.26L6.31,85.88L7.53,82.57L10.77,79.90" />
        <path d="M-219.66,-45.88L-222.85,-51.63" />
        <path d="M-71.02,-14.10L-68.51,0.61" />
      </g>
      <g id="f2" style="--index:2; opacity:0;" class="frame">
        <path d="M-206.40,-50.75L-205.71,-49.67" />
        <path d="M-203.13,-45.66L-201.74,-42.39" />
        <path d="M-200.77,-40.82L-198.50,-36.56" />
        <path d="M-195.37,-31.46L-194.19,-28.68" />
        <path d="M-190.07,-20.57L-188.88,-18.24" />
        <path d="M-182.48,-7.18L-181.10,-4.66" />
        <path d="M-176.38,3.90L-175.72,5.59" />
        <path d="M-171.77,13.83L-170.25,17.11" />
        <path d="M-166.80,22.56L-164.47,27.35" />
        <path d="M-91.82,-94.44L-100.01,-79.93" />
        <path d="M-102.54,-75.22L-117.08,-50.55" />
        <path d="M-121.83,-42.40L-137.44,-18.91" />
        <path d="M-140.91,-13.07L-143.99,-8.26" />
        <path d="M-148.34,-1.56L-163.31,22.73" />
        <path d="M-90.93,-94.27L-95.75,-96.84" />
        <path d="M-103.90,-100.81L-112.58,-106.06" />
        <path d="M-123.74,-110.95L-131.70,-115.29" />
        <path d="M-141.37,-120.41L-158.18,-127.63L-168.61,-133.46" />
        <path d="M-28.73,-86.62L-40.36,-88.82L-55.31,-90.33" />
        <path d="M-57.78,-90.64L-62.53,-91.59" />
        <path d="M-75.72,-92.86L-76.59,-92.86" />
        <path d="M-81.40,-93.11L-91.05,-93.87" />
        <path d="M-51.77,-12.99L-50.84,-17.25" />
        <path d="M-48.73,-24.71L-45.93,-31.92" />
        <path d="M-43.42,-41.15L-39.43,-52.42" />
        <path d="M-33.98,-69.42L-28.26,-84.36" />
        <path d="M-27.32,-86.73L-35.19,-107.75L-47.56,-136.14" />
        <path d="M-51.60,-11.19L-47.41,-12.01L-20.65,-12.07L10.95,-10.61L44.23,-10.18L65.70,-11.35" />
        <path d="M65.70,-11.35L65.70,-11.35" />
        <path d="M65.70,-11.35L64.00,-11.13" />
        <path d="M-26.40,-87.49L-3.54,-122.64" />
        <path d="M-52.18,-11.90L-51.62,-9.59L-44.24,0.58L-10.30,55.54L12.19,88.11" />
        <path d="M-110.79,-94.52L-104.94,-94.28" />
        <path d="M-86.54,-111.27L-85.23,-114.75" />
        <path d="M-85.73,-86.90L-83.38,-80.99" />
        <path d="M-107.46,-84.01L-103.89,-86.97" />
        <path d="M-90.82,-85.50L-91.44,-78.87" />
        <path d="M6.38,85.94L6.43,85.25" />
        <path d="M6.43,85.25L6.54,83.82L9.14,81.17L14.06,78.81L16.78,78.35L19.58,82.82L20.67,86.98L20.27,90.42L15.65,95.40L12.64,96.41L9.86,95.85L7.69,94.30L6.25,92.02L5.47,88.73L6.43,85.25" />
        <path d="M6.43,85.25L8.15,82.42L11.58,79.13" />
        <path d="M-218.91,-43.55L-221.34,-49.66" />
        <path d="M-68.49,-18.14L-65.99,-0.36" />
      </g>
      <g id="f3" style="--index:3; opacity:0;" class="frame">
        <path d="M-207.12,-45.84L-206.01,-44.35" />
        <path d="M-202.69,-39.48L-201.56,-37.13" />
        <path d="M-197.09,-28.05L-194.37,-22.71" />
        <path d="M-189.77,-16.37L-187.08,-11.54" />
        <path d="M-182.06,-3.65L-179.68,0.37" />
        <path d="M-175.13,8.40L-173.63,11.78" />
        <path d="M-170.29,18.31L-165.73,26.22" />
        <path d="M-94.87,-89.72L-97.14,-86.63" />
        <path d="M-100.47,-81.07L-110.15,-65.94" />
        <path d="M-114.42,-58.31L-130.57,-31.56" />
        <path d="M-134.24,-24.18L-140.74,-13.85" />
        <path d="M-142.75,-10.55L-148.83,-0.61" />
        <path d="M-157.09,12.67L-164.57,24.57" />
        <path d="M-97.48,-89.20L-99.01,-91.15" />
        <path d="M-107.40,-96.70L-116.79,-102.81" />
        <path d="M-135.69,-113.44L-141.13,-117.16" />
        <path d="M-152.61,-123.53L-164.09,-130.38" />
        <path d="M-29.45,-85.92L-35.17,-86.83" />
        <path d="M-40.29,-87.42L-54.13,-89.10" />
        <path d="M-60.50,-89.78L-75.32,-90.53" />
        <path d="M-82.22,-90.40L-94.91,-90.93" />
        <path d="M-53.22,-10.09L-50.35,-17.08" />
        <path d="M-49.58,-21.16L-43.15,-37.81L-33.57,-66.69L-32.60,-71.89L-27.96,-82.33" />
        <path d="M-28.18,-86.22L-49.24,-129.86L-50.15,-133.16" />
        <path d="M-52.03,-12.39L-31.50,-12.69L14.37,-10.83L59.22,-10.60" />
        <path d="M-28.04,-86.64L-0.76,-123.49L4.16,-128.87" />
        <path d="M-51.87,-11.59L-41.33,2.26L-28.00,23.23L-11.71,51.28L11.27,86.65" />
        <path d="M-114.96,-88.62L-110.44,-89.26" />
        <path d="M-89.62,-107.20L-88.50,-110.62" />
        <path d="M-88.66,-82.53L-85.89,-76.69" />
        <path d="M-112.93,-79.80L-106.97,-84.22" />
        <path d="M-93.58,-81.45L-94.66,-75.30" />
        <path d="M7.50,86.62L7.33,84.02L9.14,81.56L13.31,79.26L16.33,78.68L18.47,80.80L20.15,86.28L18.90,91.07L16.70,94.22L13.01,95.45L10.45,94.57L7.90,92.21L6.34,88.21L6.34,84.74L7.39,82.53L11.23,80.17" />
        <path d="M-217.33,-36.74L-220.04,-41.12L-219.92,-44.66" />
        <path d="M-66.53,-18.63L-63.62,-0.02" />
      </g>
      <g id="f4" style="--index:4; opacity:0;" class="frame">
        <path d="M-207.60,-44.83L-206.37,-42.78" />
        <path d="M-204.29,-40.56L-202.73,-37.63" />
        <path d="M-200.19,-33.43L-196.31,-26.74" />
        <path d="M-191.97,-20.10L-188.77,-14.48" />
        <path d="M-184.19,-6.37L-180.38,0.52" />
        <path d="M-176.09,7.49L-173.33,12.96" />
        <path d="M-170.06,18.68L-165.18,28.35" />
        <path d="M-102.09,-85.56L-103.66,-82.76" />
        <path d="M-108.20,-72.21L-108.71,-71.37" />
        <path d="M-114.27,-62.01L-116.48,-58.24" />
        <path d="M-122.94,-46.67L-139.85,-16.37" />
        <path d="M-143.88,-9.21L-146.15,-4.56" />
        <path d="M-152.46,7.73L-163.04,25.61" />
        <path d="M-101.43,-86.15L-106.08,-90.32" />
        <path d="M-112.92,-95.28L-122.59,-102.71" />
        <path d="M-133.42,-108.97L-142.14,-115.32" />
        <path d="M-148.14,-119.20L-161.54,-128.90" />
        <path d="M-30.69,-85.89L-45.51,-87.19L-63.84,-87.55" />
        <path d="M-78.58,-87.35L-99.99,-86.80" />
        <path d="M-53.22,-13.13L-51.70,-15.82" />
        <path d="M-49.70,-23.09L-44.93,-34.83" />
        <path d="M-43.82,-37.81L-39.61,-49.23" />
        <path d="M-37.36,-58.23L-34.92,-64.70" />
        <path d="M-32.49,-72.21L-30.90,-76.63" />
        <path d="M-29.76,-85.35L-47.50,-127.54" />
        <path d="M-50.07,-14.29L-29.82,-14.52L8.45,-13.00L61.66,-12.28" />
        <path d="M-29.35,-85.60L-15.84,-101.03L11.55,-127.53" />
        <path d="M-51.52,-14.25L-51.41,-11.85L-36.09,8.29L-8.12,53.76L14.66,86.80" />
        <path d="M-127.01,-83.95L-122.77,-84.86" />
        <path d="M-95.06,-100.87L-93.23,-104.66" />
        <path d="M-94.94,-78.25L-92.55,-73.51" />
        <path d="M-120.80,-73.70L-114.56,-77.92" />
        <path d="M-100.83,-76.58L-101.10,-70.28" />
        <path d="M7.10,83.29L8.42,81.05L14.35,78.74L16.78,79.40L17.98,80.57L20.54,85.75L19.63,89.76L16.95,92.42L12.92,93.86L11.02,93.77L8.57,91.60L5.82,87.00L5.16,84.03L6.71,81.18" />
        <path d="M-218.18,-34.99L-219.01,-35.85" />
        <path d="M-64.58,-21.21L-61.45,0.17" />
      </g>
      <g id="f5" style="--index:5; opacity:0;" class="frame">
        <path d="M-207.76,-43.63L-206.31,-41.45" />
        <path d="M-204.40,-39.32L-201.51,-35.07" />
        <path d="M-197.42,-28.74L-190.57,-17.31" />
        <path d="M-189.24,-15.28L-184.55,-7.27" />
        <path d="M-180.20,0.64L-176.10,7.37" />
        <path d="M-173.57,10.87L-170.10,16.80" />
        <path d="M-166.76,21.75L-163.13,27.40" />
        <path d="M-112.89,-83.22L-114.10,-80.29" />
        <path d="M-118.19,-68.70L-121.69,-62.39" />
        <path d="M-128.02,-49.39L-136.44,-31.23" />
        <path d="M-139.95,-21.13L-156.96,11.76" />
        <path d="M-160.54,20.63L-162.82,25.90" />
        <path d="M-113.76,-87.62L-115.91,-89.50" />
        <path d="M-125.06,-97.82L-131.85,-102.88" />
        <path d="M-142.07,-112.45L-152.56,-122.79" />
        <path d="M-156.44,-126.20L-166.00,-135.87" />
        <path d="M-31.82,-84.55L-50.60,-86.12L-64.38,-86.00L-72.90,-86.76" />
        <path d="M-83.16,-86.90L-89.39,-87.07" />
        <path d="M-93.28,-87.03L-109.93,-86.54" />
        <path d="M-39.63,-25.34L-38.51,-27.25L-38.56,-32.83" />
        <path d="M-37.85,-38.20L-35.98,-50.06" />
        <path d="M-32.87,-69.60L-32.15,-72.44" />
        <path d="M-31.82,-77.54L-30.85,-83.74" />
        <path d="M-30.37,-85.57L-35.55,-100.67L-41.73,-115.54L-44.33,-124.32" />
        <path d="M-31.45,-86.17L-32.79,-91.77" />
        <path d="M-39.20,-23.40L-36.76,-22.49L11.68,-17.76L61.78,-11.34" />
        <path d="M-31.44,-85.83L-16.78,-99.50L2.24,-119.12L18.21,-132.08" />
        <path d="M-30.81,-85.34L-20.61,-95.14" />
        <path d="M-20.61,-95.14L-20.61,-95.14" />
        <path d="M-20.61,-95.14L-21.35,-93.87" />
        <path d="M-38.28,-22.06L-39.53,-22.25L-34.34,-13.26L-19.99,17.38L-1.72,53.19L2.70,64.60L15.09,86.43" />
        <path d="M-127.63,-82.22L-123.68,-82.86" />
        <path d="M-133.64,-86.21L-129.62,-86.13" />
        <path d="M-106.30,-98.27L-104.20,-102.95" />
        <path d="M-104.80,-78.41L-100.76,-74.02" />
        <path d="M-127.68,-76.13L-123.52,-79.22" />
        <path d="M-110.41,-74.53L-109.96,-68.99" />
        <path d="M6.99,80.41L7.56,78.88L9.05,77.85L14.55,76.09L19.49,78.24L21.07,82.66L19.60,91.76L17.71,93.24L11.58,94.42L8.42,93.25L6.38,90.81L4.44,83.05L6.36,78.92L10.38,75.57" />
        <path d="M-218.83,-35.05L-220.00,-37.53" />
        <path d="M-62.13,-23.38L-61.67,-14.61L-59.33,-2.06" />
      </g>
      <g id="f6" style="--index:6; opacity:0;" class="frame">
        <path d="M-207.79,-41.87L-206.00,-39.37" />
        <path d="M-204.92,-37.91L-199.43,-29.97" />
        <path d="M-196.59,-24.36L-193.14,-17.79" />
        <path d="M-187.40,-8.99L-181.96,-0.38" />
        <path d="M-177.95,5.92L-174.21,11.42" />
        <path d="M-169.18,18.03L-164.80,25.50" />
        <path d="M-120.00,-89.08L-122.40,-82.99" />
        <path d="M-123.69,-76.77L-124.85,-73.55" />
        <path d="M-128.47,-64.41L-131.60,-57.07" />
        <path d="M-136.48,-44.07L-144.58,-23.63" />
        <path d="M-152.13,-6.90L-154.22,-1.97" />
        <path d="M-161.58,19.14L-163.64,25.65" />
        <path d="M-122.17,-93.47L-124.42,-95.38" />
        <path d="M-132.81,-104.52L-141.01,-111.77" />
        <path d="M-144.07,-115.16L-153.93,-124.90" />
        <path d="M-155.00,-126.36L-158.52,-130.19L-162.54,-136.51" />
        <path d="M-32.78,-84.12L-63.97,-87.41" />
        <path d="M-77.07,-87.72L-81.11,-87.93" />
        <path d="M-107.65,-89.21L-115.53,-89.86" />
        <path d="M-23.90,-39.46L-25.77,-46.08" />
        <path d="M-28.97,-57.68L-28.44,-68.32L-30.58,-75.42L-31.33,-83.05" />
        <path d="M-32.48,-85.74L-40.02,-120.38" />
        <path d="M-24.30,-39.10L-2.88,-30.26L34.99,-17.51L58.08,-11.21" />
        <path d="M-32.11,-84.69L19.55,-131.02" />
        <path d="M-23.90,-37.93L-24.07,-36.44L-21.66,-29.93L-10.96,9.07L-5.79,21.31L6.29,55.88L9.15,68.38L13.38,78.13" />
        <path d="M-135.63,-89.25L-131.35,-89.09" />
        <path d="M-115.58,-98.79" />
        <path d="M-115.93,-99.57L-114.45,-102.88" />
        <path d="M-114.60,-80.44L-111.45,-75.94" />
        <path d="M-131.16,-81.34L-127.24,-84.30" />
        <path d="M-118.32,-78.26L-118.27,-72.51" />
        <path d="M7.18,72.80L8.36,70.77L11.49,68.52L13.65,67.76L14.82,68.25L17.00,70.74L19.27,75.48L19.86,77.67L18.80,80.23L15.47,82.85L11.28,83.98L6.32,81.18L5.27,79.58L4.52,75.56L6.30,72.03L9.76,69.26" />
        <path d="M-221.67,-42.95L-221.54,-45.24" />
        <path d="M-59.99,-26.06L-58.39,-3.71" />
      </g>
      <g id="f7" style="--index:7; opacity:0;" class="frame">
        <path d="M-206.66,-42.47L-205.79,-40.21" />
        <path d="M-203.52,-36.98L-200.38,-32.75" />
        <path d="M-196.99,-27.32L-190.92,-16.24" />
        <path d="M-187.26,-10.90L-182.44,-3.79" />
        <path d="M-177.91,3.88L-174.74,9.70" />
        <path d="M-171.24,14.82L-168.38,19.54" />
        <path d="M-164.19,25.74L-161.04,30.69" />
        <path d="M-126.90,-101.94L-128.41,-96.31" />
        <path d="M-130.05,-86.98L-134.21,-73.91" />
        <path d="M-139.24,-55.33L-146.38,-33.73L-152.34,-8.48" />
        <path d="M-156.18,3.35L-157.71,9.53" />
        <path d="M-159.18,17.44L-160.68,26.10" />
        <path d="M-128.47,-102.82L-129.56,-104.84" />
        <path d="M-135.04,-109.86L-140.59,-116.27" />
        <path d="M-149.31,-124.12L-154.78,-129.65" />
        <path d="M-156.87,-131.42L-163.63,-137.52L-167.48,-142.37" />
        <path d="M-31.67,-84.30L-46.97,-86.26L-56.85,-86.19" />
        <path d="M-58.49,-86.39L-75.40,-90.67" />
        <path d="M-87.35,-92.63L-112.20,-98.51L-122.09,-101.96" />
        <path d="M-16.58,-45.24" />
        <path d="M-19.11,-49.44L-21.92,-55.82" />
        <path d="M-25.98,-63.35" />
        <path d="M-29.51,-72.31L-32.35,-80.17" />
        <path d="M-32.68,-85.39L-34.64,-116.64L-36.10,-125.07" />
        <path d="M-16.65,-44.96L40.05,-17.27L47.81,-14.25L51.35,-11.43L54.00,-10.39" />
        <path d="M-33.29,-85.51L0.93,-112.64L21.37,-129.87" />
        <path d="M-14.36,-44.31L-1.43,13.92L8.45,43.61L12.66,64.37L14.13,67.46" />
        <path d="M-143.38,-98.45L-138.79,-99.16" />
        <path d="M-123.78,-111.91L-122.02,-116.35" />
        <path d="M-120.69,-92.16L-117.34,-86.28" />
        <path d="M-138.00,-90.36L-134.84,-93.35" />
        <path d="M-125.33,-88.42L-124.79,-84.89" />
        <path d="M10.75,61.19L12.00,59.62L15.13,58.02L16.84,57.76L18.99,59.09L22.91,64.84L21.21,70.22L18.04,74.05L15.38,75.05L11.60,73.31L9.05,70.38L7.04,66.33L6.63,63.48L8.94,59.69L12.97,57.04" />
        <path d="M-220.75,-50.73L-218.57,-54.56" />
        <path d="M-57.72,-28.75L-55.59,-8.74" />
      </g>
      <g id="f8" style="--index:8; opacity:0;" class="frame">
        <path d="M-207.56,-42.76L-200.88,-32.69" />
        <path d="M-196.85,-27.08L-187.56,-13.68" />
        <path d="M-181.38,-5.14L-177.03,1.09" />
        <path d="M-171.69,7.38L-168.79,11.53" />
        <path d="M-164.99,16.99L-163.07,20.19" />
        <path d="M-159.43,24.56L-157.73,27.87" />
        <path d="M-125.96,-116.55L-134.15,-76.05" />
        <path d="M-137.23,-65.03L-140.18,-54.91" />
        <path d="M-143.24,-42.77L-145.62,-30.74" />
        <path d="M-148.53,-16.11L-151.12,-4.98" />
        <path d="M-153.54,8.35L-157.68,30.77" />
        <path d="M-125.61,-119.60L-130.51,-122.43" />
        <path d="M-138.04,-126.35L-144.47,-131.45" />
        <path d="M-154.87,-139.25L-160.49,-143.07" />
        <path d="M-161.84,-143.62L-165.32,-145.42" />
        <path d="M-28.92,-85.74L-44.77,-90.56L-59.76,-93.57L-71.85,-98.35" />
        <path d="M-82.94,-101.76L-96.04,-107.70L-102.98,-109.85" />
        <path d="M-110.23,-112.66L-130.48,-119.62" />
        <path d="M-10.74,-52.87L-12.66,-56.33" />
        <path d="M-15.22,-60.38L-20.63,-69.76" />
        <path d="M-24.85,-74.49L-29.49,-84.05" />
        <path d="M-31.56,-85.18L-34.09,-118.21L-35.81,-126.87" />
        <path d="M-9.86,-51.19L8.41,-37.48L37.25,-19.91L44.22,-13.28L50.17,-9.13" />
        <path d="M-30.68,-85.20L-6.55,-105.18L21.32,-131.55" />
        <path d="M-9.16,-51.40L-6.03,-37.78L0.33,5.78L6.82,28.52L9.13,39.99L13.60,53.37" />
        <path d="M-142.88,-113.58L-138.13,-114.07" />
        <path d="M-121.20,-129.54L-118.52,-134.13" />
        <path d="M-119.65,-105.20L-117.20,-101.02" />
        <path d="M-137.87,-105.69L-135.34,-109.39" />
        <path d="M-123.76,-103.53L-123.35,-99.07" />
        <path d="M10.26,50.20L12.73,47.89L16.44,46.79L18.66,47.14L22.18,51.48L23.21,55.60L22.86,57.69L19.81,61.66L16.13,63.27L12.91,62.52L9.64,59.73L8.49,55.81L8.96,48.44L9.73,45.86L12.25,44.58" />
        <path d="M-50.32,-37.27L-50.42,-30.69L-48.58,-17.07" />
      </g>
      <g id="f9" style="--index:9; opacity:0;" class="frame">
        <path d="M-207.21,-43.03L-205.31,-40.80" />
        <path d="M-202.76,-37.60L-188.05,-18.81" />
        <path d="M-183.20,-13.21L-179.60,-9.02" />
        <path d="M-177.15,-6.09L-169.72,2.72" />
        <path d="M-164.14,9.34L-162.19,12.07" />
        <path d="M-156.91,16.95L-149.25,24.93" />
        <path d="M-119.90,-125.87L-121.57,-119.98" />
        <path d="M-122.29,-114.65L-122.92,-111.82" />
        <path d="M-125.33,-102.37L-125.89,-99.52" />
        <path d="M-127.74,-92.40L-130.96,-80.86" />
        <path d="M-132.91,-71.86L-136.29,-59.66" />
        <path d="M-139.45,-44.07L-143.36,-26.03L-149.25,9.08" />
        <path d="M-149.76,12.10L-151.27,19.11" />
        <path d="M-123.22,-128.92L-127.16,-130.85" />
        <path d="M-136.26,-134.23L-144.64,-138.24" />
        <path d="M-149.70,-140.62L-153.07,-142.33" />
        <path d="M-161.44,-145.83L-162.83,-146.33" />
        <path d="M-27.17,-86.64L-39.60,-92.43" />
        <path d="M-46.80,-95.58L-72.81,-107.15L-93.65,-119.37" />
        <path d="M-100.00,-122.04L-102.57,-122.55L-112.89,-128.75L-119.76,-131.07" />
        <path d="M-7.37,-54.97L-11.42,-60.92" />
        <path d="M-15.52,-67.10L-19.59,-73.52" />
        <path d="M-24.53,-80.02L-25.92,-82.71" />
        <path d="M-27.69,-87.86L-32.62,-117.98L-35.64,-129.93" />
        <path d="M-6.48,-51.66L31.43,-17.77L44.08,-8.07" />
        <path d="M-28.97,-86.56L17.89,-129.14" />
        <path d="M-6.66,-50.92L-6.81,-49.29L-3.93,-41.40L-1.35,-30.85L5.08,3.81L11.25,28.26L14.61,46.60" />
        <path d="M-136.22,-122.69L-131.16,-124.28" />
        <path d="M-118.18,-140.24L-116.89,-144.21L-116.95,-146.62" />
        <path d="M-112.39,-117.55L-109.35,-113.74" />
        <path d="M-128.90,-115.61L-127.24,-118.34" />
        <path d="M-115.52,-116.48L-115.14,-111.75" />
        <path d="M12.16,41.30L11.26,38.92L11.88,38.29L16.82,36.28L18.17,36.81L21.68,40.44L23.45,43.56L24.11,46.70L23.41,49.13L19.68,53.49L15.18,55.26L10.79,53.37L8.41,50.96L7.04,46.71L8.24,41.07L10.23,38.26L14.25,36.43" />
        <path d="M-217.41,-55.89L-212.70,-58.68" />
        <path d="M-43.18,-42.77L-42.08,-23.65" />
      </g>
      <g id="f10" style="--index:10; opacity:0;" class="frame">
        <path d="M-208.04,-43.95L-205.61,-42.16" />
        <path d="M-201.12,-38.66L-197.90,-35.64" />
        <path d="M-193.31,-31.45L-184.43,-23.14" />
        <path d="M-180.93,-19.89L-172.71,-12.26" />
        <path d="M-165.56,-4.56L-161.93,-0.32" />
        <path d="M-156.03,5.58L-151.46,10.33" />
        <path d="M-147.61,13.43L-143.35,17.84" />
        <path d="M-110.79,-134.66L-112.70,-127.21L-112.87,-120.90L-113.99,-115.39" />
        <path d="M-114.38,-110.93L-114.87,-108.12" />
        <path d="M-116.34,-101.05L-120.10,-83.33" />
        <path d="M-121.77,-73.79L-126.08,-57.65" />
        <path d="M-128.40,-47.66L-138.51,-2.19" />
        <path d="M-141.57,10.33L-143.39,18.77" />
        <path d="M-111.15,-137.05L-115.75,-137.98" />
        <path d="M-121.36,-139.14L-133.37,-142.71" />
        <path d="M-142.83,-144.40L-147.70,-145.91L-152.94,-146.48" />
        <path d="M-157.36,-146.90L-162.31,-148.32L-166.39,-148.55" />
        <path d="M-25.90,-86.87L-32.45,-90.80L-48.96,-97.28L-63.39,-105.82" />
        <path d="M-75.30,-113.12L-102.23,-129.54L-109.65,-132.67" />
        <path d="M-6.40,-56.17L-10.51,-62.11" />
        <path d="M-17.87,-72.01L-18.61,-73.13" />
        <path d="M-20.91,-77.43L-22.98,-80.58" />
        <path d="M-26.79,-89.24L-36.15,-133.62" />
        <path d="M-5.36,-54.00L20.54,-28.01L41.69,-4.66" />
        <path d="M-25.88,-87.86L-1.38,-113.07L8.37,-124.27" />
        <path d="M-5.18,-53.10L2.22,-23.85L5.46,-14.61L10.59,11.80L13.15,20.63L16.13,39.32" />
        <path d="M-129.14,-129.07L-123.82,-129.24" />
        <path d="M-107.40,-146.12L-105.94,-147.96L-105.49,-150.35" />
        <path d="M-105.11,-124.13L-102.40,-117.72" />
        <path d="M-122.39,-119.54L-119.50,-123.78" />
        <path d="M-108.62,-121.03L-107.93,-115.71" />
        <path d="M12.41,33.77L16.73,32.30L21.94,34.04L23.73,35.76L24.84,41.65L24.08,45.53L22.15,48.79L18.71,49.91L13.87,48.47L10.19,45.57L8.85,42.13L9.50,37.28L11.01,33.73L13.43,31.25L18.11,29.44" />
        <path d="M-208.56,-60.11L-203.38,-59.14" />
        <path d="M-41.46,-44.36L-41.36,-30.56" />
      </g>
      <g id="f11" style="--index:11; opacity:0;" class="frame">
        <path d="M-207.81,-44.36L-205.48,-43.18" />
        <path d="M-204.34,-42.61L-199.47,-39.32" />
        <path d="M-193.21,-35.43L-188.95,-32.45" />
        <path d="M-184.11,-28.87L-176.58,-22.85" />
        <path d="M-170.49,-18.09L-165.06,-13.52" />
        <path d="M-157.66,-8.02L-150.69,-2.64" />
        <path d="M-144.28,1.51L-139.54,4.67" />
        <path d="M-137.98,5.69L-133.29,8.62" />
        <path d="M-95.52,-132.25L-97.36,-127.75" />
        <path d="M-98.58,-119.07L-101.76,-108.80" />
        <path d="M-103.75,-99.15L-109.35,-83.89" />
        <path d="M-111.34,-76.42L-114.57,-66.25L-117.51,-53.17" />
        <path d="M-118.16,-50.37L-122.15,-34.37" />
        <path d="M-123.64,-29.69L-126.36,-19.26" />
        <path d="M-128.20,-9.70L-129.15,-6.12" />
        <path d="M-130.81,2.31L-132.63,9.75" />
        <path d="M-95.23,-134.10L-106.25,-136.99" />
        <path d="M-116.32,-139.18L-129.53,-142.77" />
        <path d="M-138.56,-144.55L-147.88,-146.50" />
        <path d="M-158.80,-147.35L-169.27,-150.14" />
        <path d="M-25.41,-87.88L-33.81,-93.09" />
        <path d="M-39.89,-97.69L-45.13,-100.37L-54.52,-106.82" />
        <path d="M-70.67,-115.12L-98.18,-133.15" />
        <path d="M-6.15,-54.94L-8.63,-59.00" />
        <path d="M-12.03,-63.89L-13.90,-67.20" />
        <path d="M-18.12,-74.88L-21.83,-81.72" />
        <path d="M-25.20,-88.51L-30.41,-117.07L-34.88,-134.54" />
        <path d="M-5.34,-53.62L42.21,-4.71" />
        <path d="M-26.19,-87.65L0.64,-122.40" />
        <path d="M-6.16,-53.31L-3.37,-45.88L5.31,-14.12L10.40,12.36L18.37,35.68" />
        <path d="M-121.32,-128.61L-116.56,-128.60" />
        <path d="M-91.90,-144.35L-89.33,-149.31" />
        <path d="M-90.67,-119.40L-88.80,-114.76" />
        <path d="M-110.35,-117.61L-106.11,-121.27" />
        <path d="M-94.87,-115.58L-94.65,-111.27" />
        <path d="M13.25,30.39L17.19,28.73" />
        <path d="M17.19,28.73L21.13,27.99L22.49,28.56L26.54,33.67L27.15,38.38L25.76,41.12L23.33,43.07L19.28,43.69L16.80,43.01L11.65,40.78L10.38,39.23L10.12,37.46L11.27,34.92L17.19,28.73" />
        <path d="M17.19,28.73L19.47,27.62" />
        <path d="M-204.26,-59.23L-200.52,-56.70L-198.44,-52.89" />
        <path d="M-40.03,-45.32L-41.05,-30.22" />
      </g>
      <g id="f12" style="--index:12; opacity:0;" class="frame">
        <path d="M-208.08,-44.42L-205.99,-44.03" />
        <path d="M-203.08,-43.26L-200.38,-41.40" />
        <path d="M-193.74,-38.79L-175.06,-27.06" />
        <path d="M-168.81,-23.38L-163.96,-20.59" />
        <path d="M-156.01,-15.88L-150.67,-12.10" />
        <path d="M-145.67,-8.94L-139.16,-4.77" />
        <path d="M-133.26,-2.05L-125.75,2.33" />
        <path d="M-83.46,-122.20L-87.76,-107.50" />
        <path d="M-89.62,-101.87L-91.91,-96.03" />
        <path d="M-93.69,-89.42L-97.96,-78.02" />
        <path d="M-99.32,-73.70L-100.23,-70.32" />
        <path d="M-100.81,-67.86L-103.99,-56.41L-114.68,-27.73" />
        <path d="M-117.08,-19.11L-124.68,2.03" />
        <path d="M-83.27,-120.81L-94.68,-126.59" />
        <path d="M-104.68,-130.32L-122.47,-136.17" />
        <path d="M-138.38,-139.35L-142.10,-140.79" />
        <path d="M-147.89,-142.57L-161.37,-147.18" />
        <path d="M-23.84,-89.07L-31.52,-93.89" />
        <path d="M-41.01,-98.78L-53.17,-106.06L-60.72,-109.17" />
        <path d="M-68.71,-112.69L-84.39,-119.93" />
        <path d="M-14.98,-47.06L-17.06,-52.87" />
        <path d="M-20.50,-63.02L-23.57,-75.26L-24.60,-84.92" />
        <path d="M-22.36,-88.49L-36.15,-132.23" />
        <path d="M-13.89,-47.43L-13.03,-45.95L-5.01,-39.96L15.05,-22.60L39.90,-3.68" />
        <path d="M-23.88,-88.31L-19.36,-96.18L-8.90,-118.26L-6.19,-121.96" />
        <path d="M-14.76,-47.50L-4.36,-20.78L7.81,18.65L12.92,28.03L14.35,34.02L16.08,37.35" />
        <path d="M-102.96,-114.94L-99.24,-116.59" />
        <path d="M-78.89,-133.69L-76.35,-136.81" />
        <path d="M-77.65,-108.58L-75.57,-103.85" />
        <path d="M-97.79,-108.15L-93.55,-112.70" />
        <path d="M-82.52,-106.97L-82.35,-101.89" />
        <path d="M11.36,33.03L13.68,31.37L18.76,29.80L21.50,30.67L24.66,36.92L25.36,40.04L24.59,42.71L22.13,44.85L18.71,45.61L12.44,43.84L9.12,41.63L8.85,38.96L10.47,34.34L15.87,26.40" />
        <path d="M-198.69,-55.27L-197.17,-52.85L-196.67,-49.77L-196.69,-46.68L-197.83,-43.60" />
        <path d="M-42.71,-44.94L-44.83,-29.48" />
      </g>
      <g id="f13" style="--index:13; opacity:0;" class="frame">
        <path d="M-206.34,-44.33L-204.13,-43.70" />
        <path d="M-203.39,-43.54L-198.28,-40.48" />
        <path d="M-191.58,-37.27L-166.57,-24.51" />
        <path d="M-159.68,-20.32L-153.45,-16.48" />
        <path d="M-145.69,-13.23L-141.64,-10.63" />
        <path d="M-137.52,-8.12L-131.94,-4.73" />
        <path d="M-126.14,-0.99L-117.59,3.63" />
        <path d="M-82.68,-110.58L-83.66,-106.47" />
        <path d="M-84.28,-103.83L-87.56,-91.01" />
        <path d="M-89.78,-84.64L-98.25,-55.30" />
        <path d="M-101.03,-46.50L-105.05,-35.09" />
        <path d="M-107.43,-24.06L-110.29,-16.12L-111.62,-9.84" />
        <path d="M-112.28,-6.40L-115.63,2.61" />
        <path d="M-81.31,-109.66L-93.59,-116.75L-112.79,-125.46" />
        <path d="M-133.62,-132.85L-148.86,-139.37" />
        <path d="M-157.52,-143.87L-161.56,-146.17" />
        <path d="M-23.65,-89.65L-36.21,-94.45" />
        <path d="M-46.78,-97.91L-59.26,-102.53L-66.96,-104.23L-81.08,-109.98" />
        <path d="M-23.30,-40.11L-22.76,-45.47" />
        <path d="M-23.43,-53.75L-20.48,-75.49L-20.36,-82.50" />
        <path d="M-20.95,-88.56L-35.77,-136.28" />
        <path d="M-24.93,-39.06L-6.17,-28.32L37.57,-1.26" />
        <path d="M-21.39,-89.99L-16.49,-104.34L-8.29,-122.33" />
        <path d="M-23.18,-37.82L-23.75,-35.91L-16.38,-25.52L-8.11,-10.56L-0.21,6.09L11.25,25.66L16.35,37.25" />
        <path d="M-98.74,-103.92L-96.27,-105.48" />
        <path d="M-78.22,-121.23L-76.17,-125.05" />
        <path d="M-75.98,-99.79L-72.96,-95.73" />
        <path d="M-93.96,-97.84L-90.14,-101.58" />
        <path d="M-80.97,-97.91L-80.25,-92.33" />
        <path d="M11.38,34.16L13.41,31.69L18.09,30.40L21.77,31.61L23.76,37.15L23.21,39.97L20.79,43.49L15.99,45.16L11.30,43.08L9.88,41.56L9.28,39.50L9.88,37.22L13.12,32.42" />
        <path d="M-196.53,-47.62L-198.53,-41.01L-203.44,-36.13" />
        <path d="M-46.79,-39.95L-52.39,-27.01" />
      </g>
      <g id="f14" style="--index:14; opacity:0;" class="frame">
        <path d="M-205.90,-45.91L-203.47,-45.02" />
        <path d="M-200.08,-43.38L-194.11,-39.55" />
        <path d="M-191.17,-37.94L-182.83,-33.32" />
        <path d="M-179.44,-31.28L-169.99,-25.47" />
        <path d="M-161.87,-20.95L-154.36,-16.86" />
        <path d="M-151.82,-15.52L-142.23,-10.23" />
        <path d="M-134.63,-6.53L-126.80,-2.58" />
        <path d="M-124.22,-1.57L-117.08,2.22" />
        <path d="M-82.73,-104.92L-84.72,-101.12" />
        <path d="M-86.55,-93.18L-96.37,-61.23" />
        <path d="M-98.82,-52.65L-109.07,-18.58" />
        <path d="M-110.78,-11.66L-114.53,-0.66" />
        <path d="M-84.74,-102.24L-85.80,-103.73L-91.69,-107.21" />
        <path d="M-102.73,-113.71L-118.89,-122.85" />
        <path d="M-152.54,-140.73L-163.29,-146.82" />
        <path d="M-22.76,-88.91L-32.58,-91.58" />
        <path d="M-48.72,-94.46L-52.08,-95.32" />
        <path d="M-68.69,-98.38L-77.35,-101.81L-87.41,-104.51" />
        <path d="M-39.04,-28.76L-38.00,-30.73" />
        <path d="M-32.83,-47.38L-31.21,-53.06" />
        <path d="M-30.41,-56.81L-29.94,-59.47" />
        <path d="M-27.74,-65.16L-26.03,-68.63L-20.14,-88.33" />
        <path d="M-21.88,-87.58L-26.02,-105.67L-34.60,-136.36" />
        <path d="M-37.33,-27.47L-31.06,-24.70L0.96,-16.28L40.50,-4.36" />
        <path d="M-22.38,-88.70L-14.55,-114.52L-11.63,-121.77" />
        <path d="M-37.87,-27.73L-6.51,9.45L11.19,31.79L14.22,37.29" />
        <path d="M-99.64,-98.02L-97.09,-99.23" />
        <path d="M-78.62,-116.06L-76.97,-119.45" />
        <path d="M-77.35,-93.98L-74.90,-89.09" />
        <path d="M-95.13,-92.41L-92.98,-95.25" />
        <path d="M-81.60,-91.71L-81.71,-85.37" />
        <path d="M10.61,35.26L12.06,32.73L14.38,30.98" />
        <path d="M14.38,30.98L17.42,30.17L20.22,31.47L21.65,33.59L22.88,38.10L22.48,41.71L21.06,44.55L19.12,46.03L15.51,46.89L11.82,46.03L9.62,44.49L8.27,42.40L7.74,39.58L9.62,33.73L11.16,32.25L14.38,30.98" />
        <path d="M14.38,30.98L14.53,30.94" />
        <path d="M-200.05,-41.04L-201.18,-39.14L-203.72,-37.24L-210.50,-36.95" />
        <path d="M-56.76,-32.21L-61.47,-22.79" />
      </g>
      <g id="f15" style="--index:15; opacity:0;" class="frame">
        <path d="M-205.12,-50.34L-203.70,-49.70" />
        <path d="M-199.84,-47.64L-197.10,-45.70" />
        <path d="M-192.08,-42.73L-189.02,-41.08" />
        <path d="M-184.64,-38.70L-180.85,-36.23" />
        <path d="M-176.57,-33.83L-170.92,-30.63" />
        <path d="M-165.85,-28.21L-162.12,-26.01" />
        <path d="M-156.51,-23.21L-151.33,-20.24" />
        <path d="M-146.45,-17.83L-142.89,-15.62" />
        <path d="M-136.71,-12.28L-135.07,-11.22" />
        <path d="M-129.82,-9.04L-126.21,-7.40" />
        <path d="M-122.45,-5.70L-118.13,-3.27" />
        <path d="M-87.23,-95.97L-88.59,-91.38" />
        <path d="M-89.95,-84.96L-94.31,-67.52L-98.71,-55.46" />
        <path d="M-102.15,-44.80L-107.29,-27.90" />
        <path d="M-110.04,-20.01L-111.61,-14.23" />
        <path d="M-114.16,-5.55L-116.99,1.68" />
        <path d="M-87.29,-96.27L-94.91,-102.89L-106.17,-108.80" />
        <path d="M-113.62,-113.15L-127.61,-122.27" />
        <path d="M-141.05,-130.51L-151.83,-136.66" />
        <path d="M-156.11,-139.53L-164.71,-145.58" />
        <path d="M-22.87,-87.53L-30.69,-89.88" />
        <path d="M-44.36,-91.09L-59.29,-94.46" />
        <path d="M-67.52,-95.26L-80.88,-98.42L-85.77,-98.64" />
        <path d="M-42.89,-22.00L-26.90,-69.06L-24.78,-78.74L-22.21,-84.94" />
        <path d="M-22.20,-87.79L-23.34,-94.85L-35.12,-134.36" />
        <path d="M-43.03,-23.47L19.94,-9.04L47.87,-6.23" />
        <path d="M-22.22,-88.54L-13.44,-115.11L-10.45,-122.04" />
        <path d="M-42.40,-21.49L-16.23,7.83L2.97,31.44L15.81,44.90" />
        <path d="M-103.76,-93.88L-100.66,-95.30" />
        <path d="M-82.60,-108.22L-81.06,-112.44" />
        <path d="M-79.27,-88.87L-77.04,-85.14" />
        <path d="M-99.51,-88.15L-95.19,-91.48" />
        <path d="M-84.45,-87.86L-84.09,-81.61" />
        <path d="M10.09,36.82L16.70,34.61L19.58,37.76L21.68,43.61L22.53,48.04L21.50,52.60L19.58,55.33L15.37,57.09L9.76,54.10L7.18,50.75L6.27,47.63L8.88,40.86L11.90,37.98L14.56,36.79" />
        <path d="M-204.55,-38.18L-208.84,-37.89L-213.27,-39.34L-213.85,-40.93" />
        <path d="M-67.55,-22.76L-69.03,-21.40L-73.87,-12.25" />
      </g>
      <g id="f16" style="--index:16; opacity:0;" class="frame">
        <path d="M-204.89,-54.24L-177.05,-37.83" />
        <path d="M-171.84,-34.96L-166.68,-31.97" />
        <path d="M-160.87,-28.54L-157.35,-26.08" />
        <path d="M-151.03,-22.38L-145.78,-18.65" />
        <path d="M-139.10,-15.43L-132.45,-11.31" />
        <path d="M-128.98,-9.34L-122.34,-5.11" />
        <path d="M-86.97,-96.78L-89.48,-90.19" />
        <path d="M-91.88,-81.09L-94.72,-73.30" />
        <path d="M-98.74,-63.01L-103.40,-52.71" />
        <path d="M-106.26,-45.56L-112.83,-30.05" />
        <path d="M-115.67,-22.12L-123.34,-4.15" />
        <path d="M-87.66,-94.22L-89.87,-96.69L-94.73,-99.44" />
        <path d="M-105.03,-105.95L-122.43,-118.30" />
        <path d="M-141.08,-131.13L-145.29,-134.79L-151.46,-138.60" />
        <path d="M-157.36,-141.54L-166.76,-148.62" />
        <path d="M-21.67,-88.21L-33.37,-89.70" />
        <path d="M-49.08,-90.30L-63.54,-92.90" />
        <path d="M-74.19,-94.31L-85.58,-96.40" />
        <path d="M-49.43,-16.36L-43.43,-33.02" />
        <path d="M-41.53,-38.28L-39.17,-44.63" />
        <path d="M-35.55,-53.20L-22.83,-84.37" />
        <path d="M-21.80,-87.13L-35.64,-136.91" />
        <path d="M-50.85,-17.24L-18.27,-15.44L2.75,-11.75L26.54,-9.54L39.74,-8.61L52.04,-8.88" />
        <path d="M-22.07,-88.62L-19.69,-94.22L-12.47,-121.16" />
        <path d="M-49.59,-16.66L-45.50,-10.80L-15.97,19.65L1.05,40.03L7.15,48.54L15.44,56.81" />
        <path d="M-105.63,-91.96L-101.80,-93.08" />
        <path d="M-84.21,-107.48L-83.06,-111.76" />
        <path d="M-81.89,-85.80L-79.40,-81.38" />
        <path d="M-100.03,-83.91L-96.56,-87.37" />
        <path d="M-86.70,-84.61L-86.92,-79.52" />
        <path d="M8.18,55.10L10.40,52.99" />
        <path d="M10.40,52.99L15.78,50.21L18.57,50.81L22.21,56.15L22.90,58.37L22.20,60.98L19.50,63.39L15.09,65.01L11.73,63.38L8.96,60.29L8.35,58.01L10.40,52.99" />
        <path d="M10.40,52.99L12.63,50.48" />
        <path d="M-206.14,-39.59L-208.41,-39.51L-213.81,-41.88L-215.99,-45.02" />
        <path d="M-77.71,-11.99L-82.53,-1.88" />
      </g>
      <g id="f17" style="--index:17; opacity:0;" class="frame">
        <path d="M-205.77,-57.32L-197.43,-50.66" />
        <path d="M-190.98,-45.26L-185.01,-40.76" />
        <path d="M-179.51,-37.09L-171.08,-30.82" />
        <path d="M-164.47,-26.77L-158.63,-22.73" />
        <path d="M-154.91,-19.72L-145.23,-12.17" />
        <path d="M-139.10,-8.20L-127.18,0.65" />
        <path d="M-88.22,-95.31L-90.02,-91.11" />
        <path d="M-92.57,-81.22L-99.28,-61.65L-109.25,-39.98L-115.24,-28.82" />
        <path d="M-117.66,-23.87L-128.31,-0.79" />
        <path d="M-88.13,-94.48L-96.75,-101.56" />
        <path d="M-106.39,-107.27L-113.83,-111.28L-122.75,-117.73" />
        <path d="M-132.69,-123.58L-145.49,-134.08L-164.48,-147.02" />
        <path d="M-21.28,-87.77L-35.82,-88.72" />
        <path d="M-52.68,-89.89L-85.90,-95.45" />
        <path d="M-52.72,-11.00L-51.07,-15.37" />
        <path d="M-47.10,-26.75L-40.06,-46.00L-35.81,-54.78" />
        <path d="M-33.01,-61.00L-21.81,-85.35" />
        <path d="M-22.26,-87.64L-22.20,-89.52L-32.08,-122.12L-34.53,-133.17" />
        <path d="M-52.46,-13.97L-32.81,-12.59L28.60,-12.21L53.19,-10.40" />
        <path d="M-21.89,-88.80L-19.99,-94.50L-16.00,-114.82L-13.04,-122.22" />
        <path d="M-54.35,-12.79L-43.07,-0.90L-29.95,15.63L-12.31,34.42L8.65,62.54L15.75,69.99" />
        <path d="M-107.37,-92.56L-103.04,-93.38" />
        <path d="M-84.52,-107.40L-82.88,-111.87" />
        <path d="M-83.63,-87.63L-80.96,-81.55" />
        <path d="M-101.61,-83.07L-98.31,-86.04" />
        <path d="M-87.95,-84.95L-87.44,-79.45" />
        <path d="M9.58,69.21L12.41,63.59" />
        <path d="M12.41,63.59L14.89,62.16L17.20,63.75L19.24,66.49L20.64,71.23L19.57,74.75L16.67,77.08L13.53,78.08L9.82,76.62L7.72,72.37L8.59,68.72L12.41,63.59" />
        <path d="M12.41,63.59L13.46,62.69" />
        <path d="M-210.73,-43.53L-215.31,-44.73L-218.78,-47.84" />
        <path d="M-81.89,-4.81L-80.89,5.48" />
      </g>
      <g id="f18" style="--index:18; opacity:0;" class="frame">
        <path d="M-206.41,-60.26L-184.04,-35.85" />
        <path d="M-177.86,-29.73L-167.28,-18.27" />
        <path d="M-159.08,-9.24L-155.53,-5.07" />
        <path d="M-149.78,1.39L-147.21,4.53" />
        <path d="M-145.31,6.92L-141.50,11.68" />
        <path d="M-87.49,-96.20L-89.80,-92.21" />
        <path d="M-92.59,-83.12L-94.93,-77.54" />
        <path d="M-97.31,-72.64L-112.79,-41.22" />
        <path d="M-117.78,-30.44L-122.80,-20.91" />
        <path d="M-126.47,-13.39L-136.25,4.61" />
        <path d="M-88.59,-97.04L-92.21,-100.61L-102.56,-105.47" />
        <path d="M-109.84,-110.15L-112.49,-111.88" />
        <path d="M-120.63,-117.12L-140.52,-130.67" />
        <path d="M-149.53,-136.53L-156.96,-142.75L-163.62,-146.05" />
        <path d="M-22.15,-87.77L-28.33,-88.92" />
        <path d="M-43.06,-88.93L-54.19,-90.66" />
        <path d="M-70.45,-93.98L-80.22,-94.76" />
        <path d="M-53.97,-9.81L-52.00,-14.65" />
        <path d="M-48.45,-24.35L-42.82,-37.40" />
        <path d="M-40.75,-42.44L-35.42,-56.40" />
        <path d="M-29.52,-70.98L-23.82,-87.03" />
        <path d="M-22.38,-88.48L-34.56,-133.65" />
        <path d="M-55.72,-10.44L28.81,-9.67L55.40,-10.11" />
        <path d="M55.40,-10.11L55.40,-10.11" />
        <path d="M55.40,-10.11L55.36,-10.11" />
        <path d="M-21.85,-89.67L-11.65,-120.73" />
        <path d="M-54.21,-10.43L-41.95,2.04L-16.93,36.46L-4.42,51.40L12.83,74.74" />
        <path d="M-107.84,-92.72L-104.29,-93.19" />
        <path d="M-84.00,-108.36L-82.41,-112.80" />
        <path d="M-82.75,-87.43L-80.01,-80.28" />
        <path d="M-104.23,-83.92L-99.90,-87.18" />
        <path d="M-87.98,-85.93L-87.84,-78.68" />
        <path d="M7.77,76.22L12.07,70.11L15.55,68.76L19.62,73.74L20.51,77.12L19.92,79.48L17.57,83.10L15.45,84.38L11.79,85.16L7.56,83.53L5.83,81.31L5.47,78.49L6.22,75.92L9.64,71.36" />
        <path d="M-216.29,-48.01L-220.99,-53.17" />
        <path d="M-82.21,-2.99L-79.76,10.00" />
      </g>
      <g id="f19" style="--index:19; opacity:0;" class="frame">
        <path d="M-206.71,-63.21L-204.72,-60.73" />
        <path d="M-201.69,-57.87L-200.31,-56.02" />
        <path d="M-196.27,-50.91L-194.90,-49.03" />
        <path d="M-189.50,-43.41L-186.34,-39.26" />
        <path d="M-182.40,-34.80L-178.49,-29.96" />
        <path d="M-172.76,-23.61L-166.93,-16.17" />
        <path d="M-160.21,-8.17L-157.37,-4.43" />
        <path d="M-150.97,2.55L-145.13,9.61" />
        <path d="M-87.69,-98.06L-95.97,-79.27" />
        <path d="M-99.25,-71.84L-102.12,-66.35" />
        <path d="M-104.59,-61.22L-112.78,-42.69" />
        <path d="M-117.49,-33.04L-126.38,-16.06L-142.75,12.26" />
        <path d="M-88.65,-99.16L-91.15,-101.10" />
        <path d="M-102.98,-107.52L-113.36,-114.41" />
        <path d="M-125.50,-121.88L-135.94,-128.98" />
        <path d="M-144.09,-133.72L-148.33,-137.03" />
        <path d="M-156.76,-142.14L-163.05,-146.83" />
        <path d="M-21.38,-88.12L-29.98,-89.31" />
        <path d="M-39.19,-89.55L-53.57,-91.17" />
        <path d="M-67.37,-93.28L-73.87,-94.48" />
        <path d="M-77.25,-95.00L-86.19,-96.58" />
        <path d="M-55.76,-7.85L-53.24,-13.62" />
        <path d="M-47.59,-27.86L-39.31,-49.03" />
        <path d="M-37.28,-54.12L-34.12,-61.39" />
        <path d="M-29.65,-71.16L-23.21,-85.52" />
        <path d="M-22.22,-87.75L-22.61,-91.24L-34.15,-133.29" />
        <path d="M-56.32,-9.24L40.97,-10.52L60.63,-11.85" />
        <path d="M-21.92,-89.59L-16.23,-113.46L-13.46,-119.42" />
        <path d="M-56.24,-8.21L-36.90,13.33L-8.39,49.42L15.84,84.46" />
        <path d="M-106.23,-94.47L-103.04,-94.45" />
        <path d="M-84.38,-108.93L-82.31,-113.26" />
        <path d="M-82.24,-87.64L-79.81,-83.03" />
        <path d="M-104.15,-85.44L-99.10,-88.64" />
        <path d="M-87.45,-86.25L-87.38,-80.39" />
        <path d="M7.91,81.14L14.13,75.24L16.28,74.44L17.64,74.88L19.79,78.47L20.79,82.78L20.09,87.12L18.53,90.59L15.99,92.62L10.71,94.42L7.97,93.88L6.30,91.18L5.60,84.75L6.78,80.42L9.66,76.44L13.58,74.24" />
        <path d="M-216.19,-50.97L-222.05,-56.35L-222.39,-57.44" />
        <path d="M-81.46,-2.87L-76.90,10.14" />
      </g>
      <g id="f20" style="--index:20; opacity:0;" class="frame">
        <path d="M-205.10,-63.48L-203.37,-60.50" />
        <path d="M-202.48,-58.73L-199.02,-53.55" />
        <path d="M-195.00,-48.23L-184.16,-31.86" />
        <path d="M-178.20,-23.36L-173.51,-16.19" />
        <path d="M-170.06,-10.76L-168.85,-8.60" />
        <path d="M-164.19,-1.68L-161.84,2.41" />
        <path d="M-157.76,9.80L-151.23,22.16" />
        <path d="M-87.49,-96.03L-90.29,-90.56L-93.03,-81.20L-95.39,-76.44" />
        <path d="M-100.94,-65.16L-105.46,-57.23" />
        <path d="M-106.97,-53.81L-111.17,-45.34" />
        <path d="M-117.69,-32.18L-122.75,-22.40" />
        <path d="M-127.39,-13.43L-133.70,-3.11" />
        <path d="M-138.38,3.21L-150.76,20.96" />
        <path d="M-86.83,-96.60L-97.29,-103.72L-100.50,-105.12" />
        <path d="M-108.32,-108.79L-133.00,-124.06L-145.41,-132.64" />
        <path d="M-149.10,-134.86L-151.89,-137.42" />
        <path d="M-157.19,-140.73L-168.15,-147.73" />
        <path d="M-20.27,-87.95L-27.82,-89.74" />
        <path d="M-42.64,-90.02L-64.54,-92.80L-83.35,-96.31" />
        <path d="M-55.87,-11.86L-50.00,-22.87L-42.59,-39.46" />
        <path d="M-30.78,-65.27L-23.16,-84.45" />
        <path d="M-21.21,-87.60L-21.37,-90.22L-34.28,-134.26" />
        <path d="M-54.96,-9.47L59.11,-10.60" />
        <path d="M-21.51,-87.52L-16.21,-106.73L-15.01,-114.95L-13.43,-118.44" />
        <path d="M-55.94,-9.27L-37.26,16.86L-12.70,55.66L12.79,88.06" />
        <path d="M-106.24,-94.45L-101.98,-95.17" />
        <path d="M-84.33,-109.79L-82.57,-114.53" />
        <path d="M-81.86,-88.49L-79.65,-84.17" />
        <path d="M-103.96,-85.14L-99.41,-87.76" />
        <path d="M-87.32,-87.11L-87.36,-80.60" />
        <path d="M4.27,85.69L4.31,85.60" />
        <path d="M4.31,85.60L5.10,83.61L8.61,80.44L11.47,78.69L14.44,78.24L18.01,83.30L19.51,88.61L19.32,90.44L17.95,93.00L14.76,95.14L9.80,96.34L7.30,95.88L4.64,93.59L4.01,90.53L4.31,85.60" />
        <path d="M4.31,85.60L5.85,81.39L8.16,79.34" />
        <path d="M-217.90,-52.43L-221.32,-60.46" />
        <path d="M-79.14,-4.69L-75.11,9.32" />
      </g>
      <g id="f21" style="--index:21; opacity:0;" class="frame">
        <path d="M-205.63,-62.15L-203.53,-57.93" />
        <path d="M-202.58,-56.06L-197.55,-49.43L-192.65,-40.44" />
        <path d="M-188.84,-33.76L-170.27,0.21" />
        <path d="M-166.05,6.95L-165.20,8.40" />
        <path d="M-162.69,13.15L-162.00,14.29" />
        <path d="M-159.27,19.15L-157.09,23.11" />
        <path d="M-87.47,-96.62L-89.55,-92.83" />
        <path d="M-91.56,-86.76L-94.52,-81.06" />
        <path d="M-97.82,-74.80L-101.06,-68.34" />
        <path d="M-107.09,-57.86L-113.53,-46.13" />
        <path d="M-115.88,-40.56L-123.45,-26.08" />
        <path d="M-127.79,-17.54L-133.90,-6.32" />
        <path d="M-136.50,-1.36L-139.69,4.09" />
        <path d="M-144.33,10.70L-153.08,22.24" />
        <path d="M-86.71,-95.94L-92.25,-100.21" />
        <path d="M-99.86,-104.43L-111.10,-111.11" />
        <path d="M-119.75,-117.59L-131.96,-125.59" />
        <path d="M-142.04,-130.49L-150.19,-135.56" />
        <path d="M-154.47,-137.60L-165.53,-144.12" />
        <path d="M-21.24,-89.39L-28.39,-89.96" />
        <path d="M-32.56,-89.79L-47.19,-91.04" />
        <path d="M-52.59,-92.00L-56.86,-92.48" />
        <path d="M-60.99,-93.27L-65.53,-94.13" />
        <path d="M-71.85,-94.81L-85.32,-96.43" />
        <path d="M-57.28,-9.29L-55.22,-12.12" />
        <path d="M-51.08,-22.11L-47.27,-30.28" />
        <path d="M-29.49,-72.49L-21.89,-87.17" />
        <path d="M-21.97,-90.50L-34.97,-132.58" />
        <path d="M-58.11,-9.41L56.83,-12.50" />
        <path d="M-23.13,-88.28L-11.92,-121.76" />
        <path d="M-55.37,-7.66L-51.05,0.09L-17.74,48.38L8.40,84.68L10.58,88.15L9.86,87.87" />
        <path d="M-105.69,-95.20L-100.42,-95.30" />
        <path d="M-84.06,-110.68L-82.55,-114.22" />
        <path d="M-81.27,-87.18L-79.74,-83.28" />
        <path d="M-105.00,-86.00L-100.13,-88.48" />
        <path d="M-86.80,-87.21L-86.57,-81.05" />
        <path d="M4.16,87.15L4.96,84.78L7.22,82.69L10.02,81.56L11.96,81.90L13.97,83.66L17.16,89.12L18.01,92.16L17.31,93.34L15.38,94.85L11.52,96.08L8.12,95.89L4.83,94.33L4.17,91.36L6.83,83.58" />
        <path d="M-218.36,-53.74L-220.93,-56.58L-221.26,-59.84" />
        <path d="M-75.47,-10.00L-73.69,-0.18" />
      </g>
      <g id="f22" style="--index:22; opacity:0;" class="frame">
        <path d="M-205.11,-59.96L-202.63,-54.62" />
        <path d="M-201.28,-51.95L-199.92,-49.97" />
        <path d="M-199.12,-48.67L-195.86,-42.74" />
        <path d="M-192.53,-36.53L-188.00,-26.71" />
        <path d="M-185.01,-20.54L-182.64,-14.99" />
        <path d="M-177.78,-5.67L-175.59,-1.20" />
        <path d="M-170.36,10.00L-168.30,14.12" />
        <path d="M-165.31,20.17" />
        <path d="M-88.18,-97.91L-90.35,-94.42" />
        <path d="M-94.19,-85.24L-96.84,-79.23" />
        <path d="M-98.13,-76.37L-107.66,-60.62" />
        <path d="M-113.44,-50.13L-120.67,-37.16" />
        <path d="M-125.74,-27.09L-130.81,-19.01" />
        <path d="M-137.08,-8.58L-144.30,1.97" />
        <path d="M-149.62,8.69L-155.05,14.95" />
        <path d="M-158.40,19.24L-160.98,22.99" />
        <path d="M-87.29,-96.66L-91.02,-99.39" />
        <path d="M-100.02,-103.95L-124.05,-119.11" />
        <path d="M-127.34,-121.26L-143.62,-131.27" />
        <path d="M-153.45,-135.80L-159.56,-138.54L-163.70,-141.48" />
        <path d="M-22.19,-87.49L-29.59,-88.87" />
        <path d="M-44.11,-89.49L-69.42,-93.83" />
        <path d="M-72.61,-94.90L-88.10,-97.13" />
        <path d="M-56.12,-9.05L-51.59,-18.28L-41.64,-42.97" />
        <path d="M-38.07,-51.83L-34.80,-58.85" />
        <path d="M-31.04,-69.69L-22.09,-88.38" />
        <path d="M-23.83,-87.81L-32.30,-122.26L-34.52,-134.28" />
        <path d="M-56.92,-10.23L-21.57,-10.39L-3.81,-11.56L18.61,-11.31L43.58,-12.90L54.83,-12.83" />
        <path d="M-24.06,-87.96L-12.11,-119.69" />
        <path d="M-56.40,-10.77L-46.83,4.23L-21.67,49.15L9.78,91.61" />
        <path d="M9.78,91.61L9.78,91.61" />
        <path d="M9.78,91.61L9.45,91.24" />
        <path d="M-106.59,-95.72L-103.41,-95.99" />
        <path d="M-83.96,-110.85L-82.51,-115.24" />
        <path d="M-82.03,-89.09L-79.48,-84.24" />
        <path d="M-105.11,-85.45L-100.44,-89.11" />
        <path d="M-87.34,-87.31L-87.85,-80.96" />
        <path d="M3.43,89.46L4.18,86.88L6.86,83.53L12.93,81.40L16.58,83.49L18.12,86.01L19.19,90.30L17.73,94.18L14.62,96.83L11.45,97.92L10.06,98.05L6.40,96.45L4.90,94.47L4.48,91.89L7.31,84.28" />
        <path d="M-219.55,-50.77L-222.83,-57.29" />
        <path d="M-74.65,-7.43L-73.77,-2.58" />
      </g>
      <g id="f23" style="--index:23; opacity:0;" class="frame">
        <path d="M-205.78,-58.72L-205.29,-57.13" />
        <path d="M-203.76,-53.24L-201.48,-47.95" />
        <path d="M-197.48,-41.22L-190.46,-25.44L-183.07,-12.61" />
        <path d="M-178.34,-3.88L-176.16,1.32" />
        <path d="M-171.58,10.89L-168.77,17.86" />
        <path d="M-167.20,21.21L-164.72,27.37" />
        <path d="M-89.12,-97.14L-90.36,-93.92" />
        <path d="M-92.68,-87.17L-95.44,-81.90" />
        <path d="M-98.05,-77.04L-114.01,-49.87L-127.59,-29.14" />
        <path d="M-132.97,-20.78L-136.50,-15.51" />
        <path d="M-143.86,-2.46L-146.71,1.44" />
        <path d="M-153.08,11.62L-161.43,22.57" />
        <path d="M-87.11,-95.37L-95.85,-101.61" />
        <path d="M-99.65,-103.43L-108.95,-107.29L-120.92,-115.12" />
        <path d="M-125.89,-118.06L-134.70,-123.34" />
        <path d="M-142.66,-127.26L-147.30,-129.50" />
        <path d="M-150.35,-131.16L-164.68,-138.71" />
        <path d="M-25.37,-87.90L-29.64,-89.16" />
        <path d="M-39.72,-89.42L-50.51,-91.29" />
        <path d="M-53.73,-91.93L-62.08,-92.88" />
        <path d="M-71.01,-94.52L-75.18,-94.60L-86.74,-96.90" />
        <path d="M-55.89,-9.66L-53.15,-14.92" />
        <path d="M-49.12,-25.23L-42.54,-42.15" />
        <path d="M-39.96,-48.54L-27.09,-82.50" />
        <path d="M-24.58,-88.32L-31.76,-119.05L-37.02,-137.66" />
        <path d="M-54.31,-9.73L-40.03,-10.91L-15.60,-10.87L24.64,-12.93L60.63,-13.69" />
        <path d="M60.63,-13.69L60.63,-13.69" />
        <path d="M60.63,-13.69L60.31,-13.69" />
        <path d="M-25.05,-89.24L-11.28,-119.58" />
        <path d="M-54.43,-10.73L-29.39,22.51L-9.27,55.35L13.80,88.07" />
        <path d="M-108.38,-95.19L-103.77,-95.22" />
        <path d="M-85.41,-111.57L-83.88,-115.53" />
        <path d="M-82.75,-87.83L-79.65,-81.52" />
        <path d="M-106.19,-84.61L-100.97,-88.30" />
        <path d="M-87.05,-87.77L-87.52,-82.75" />
        <path d="M6.10,87.58L5.98,86.73" />
        <path d="M5.98,86.73L5.98,84.14L7.52,81.14L10.71,78.92L13.66,78.22L18.33,80.92L20.45,86.12L19.80,90.45L18.02,93.07L15.54,94.95L12.39,95.73L8.41,94.60L6.55,92.89L5.62,90.56L5.98,86.73" />
        <path d="M5.98,86.73L7.67,83.67L11.33,80.54" />
        <path d="M-219.84,-48.92L-223.03,-52.65L-223.66,-55.06" />
        <path d="M-74.83,-12.65L-72.30,1.71" />
      </g>
    </g>
  </g>
</svg>